<svg xmlns="http://www.w3.org/2000/svg" viewBox="0 0 1920 1080"><defs><style>.cls-1{fill:silver;}.cls-2{fill:blue;}</style></defs><g id="Lager_2" data-name="Lager 2"><g id="Lager_1-2" data-name="Lager 1"><rect class="cls-1" width="1920" height="1080"/></g><g id="Lager_2-2" data-name="Lager 2"><path class="cls-2" d="M963.52,715.88c.26,1.7.52,6.46,3.14,6.47,2.14,0,2.75-3.24,3.16-4.78.75-2.84,1.28-5.74,2-8.6.25-1,.73-2.19.91-3.07s.5-.11-.22-.19c-1.2-.14-1.18-.6-.9.3a1.51,1.51,0,0,0,2.95-.39c.14-1.14.29-2.28.52-3.4a9.7,9.7,0,0,0,.51-2c0,.17.09-.36.16-.31s-1.21.49-.85.43c-1,.17-.66-.71-.54,0a20.87,20.87,0,0,0,1.9,4.74c.86,1.66,2.73,2.65,4,.69a9.81,9.81,0,0,0,1-3.53c.48-2.79.73-5.62,1-8.44h-3c.19,1.71.89,17,5.65,14.18,1.56-.9,2-3.54,2.41-5.11.93-3.76,1.51-7.61,2.1-11.43h-2.9c.86,2.27,3.43,6.91,5.89,3.11,1.28-2,1.6-4.75,2-7,.9-5.32,1.39-10.71,1.85-16.08h-3c.23,3.61.47,7.23.9,10.83a18.28,18.28,0,0,0,.89,4.76c.46,1.08,1.46,2,2.68,1.32.89-.49,1.17-1.67,1.4-2.57a88,88,0,0,0,1.74-12.12c.58-5.17,1.08-10.36,1.71-15.53l-3,.4c.51,1.7,1.67,4.9,4.08,3.69,2.16-1.08,2.75-5,3.25-7,1-3.92,1.68-7.9,2.47-11.85.31-1.56.6-3.14,1-4.67.27-1,.82-1.3-.45-1.33-1.74,0-.59-.15-.73.58a6.42,6.42,0,0,0,.3,1.41c.28,1.55,2.47,1.3,2.89,0s.93-1,1.85-2c1.72-1.9,1.73-5.38,2-7.75l-2.56,1.07c1,1,2,1.07,3.27,1.55,2,.8,2.56,3.6,3.08,5.48a1.52,1.52,0,0,0,2.21.9c-1.91,1.17-.44-.66-.51.13a4.25,4.25,0,0,0,.43.67c.35.57.63,1.2.92,1.8a29,29,0,0,0,1.95,3.85c1.44,2.14,4,2.54,5.16-.15a17.75,17.75,0,0,0,.8-2.27c.09.17-.51-1-.81,0,0,.06.2.22.2.3,0,.36.73,1.36.89,1.73.32.71.61,1.44.9,2.16.74,1.82,1.67,5.27,3.94,5.77a1.51,1.51,0,0,0,1.84-1c.62-4.27,1.23-8.56,2.08-12.8a36.37,36.37,0,0,1,1-4.24,6.94,6.94,0,0,0,.43-1.09c0-.35.15,0,.06-.11.35.29-1.52,0-1.4-.06a1.35,1.35,0,0,1,.23.51,15.65,15.65,0,0,1,.56,2.14,72.69,72.69,0,0,1,1.07,7.35c.45,4,.78,8.08,1.07,12.13.15,2.08.47,3.32,2.06,4.76a9.35,9.35,0,0,0,3.94,1.88,6.86,6.86,0,0,1,2.67,1.27c.62.5.84.87,1.65,1a5,5,0,0,0,2.61-.44c.64-.24,1.54-.83,2.25-.63,1.52.44,2.24,3.68,2.61,4.83a1.52,1.52,0,0,0,2.74.36c.55-1.09.53-1.55,1.4-.72a24,24,0,0,1,2.22,2.81c1.23,1.6,2.6,3.17,4.79,2.84a1.49,1.49,0,0,0,1.1-1.44c0-2.58.44-5.66-.11-8.2a1.51,1.51,0,0,0-2.89,0c-.45,1.54,0,3.5-.11,5.1l3-.4c.26.8,0-.79,0-1.16,0-1.77,0-3.54,0-5.31h-3c0,1.38-.35,3.31.06,4.68a1.5,1.5,0,0,0,2.94-.4c.16-3.42,0-6.88,0-10.3l0-7.12c0-.78,0-1.56,0-2.35,0-.26.11-1.56,0-.71l-2.5.66c-1.39-1.17-.26-1.37-.43-.75a2.55,2.55,0,0,0,0,.73c0,1,0,2.05,0,3.07,0,2.43,0,4.85.06,7.28q0,3.09.07,6.18a12.74,12.74,0,0,0,.14,3.32,1.47,1.47,0,0,0,1,1h0a1.55,1.55,0,0,0,1.85-1,11.06,11.06,0,0,0,.13-3.25c0-3.34.07-6.69.09-10,0-4.31,0-8.61.21-12.9.08-1.61.14-3.22.22-4.83a11.77,11.77,0,0,1,.23-2.91l-1,1h0l-1.7-.69-.1-.2c.39,1.7,2.88,1.25,2.95-.4a17.52,17.52,0,0,1,.24-3.54c-.07.28.18-.25.29-.61.93-3.3.48-7.24.53-10.61s.1-6.92.21-10.37c0-.85.06-1.69.1-2.53a2.52,2.52,0,0,0,0-.72c-.09-.27,0,.14,0,.1a.29.29,0,0,1,0-.09c.1-.48-.23-.17-1,.93l-1.46-.38c-.53-.47-.27-.76-.29-.22s.09,1,.12,1.51c.09,1.27.16,2.54.24,3.81.26,4,.4,8,.83,12a7,7,0,0,0,.65,3.09c.95,1.34,2.49.71,3-.62.72-1.93.64-4.36.86-6.39a8.61,8.61,0,0,0,.18-1.43c0-.11.16-.47.1-.57s-2.83,0-2.67-.16c-.09.1.1.74.13,1.15.09,1.22.13,2.45.18,3.67a1.5,1.5,0,0,0,3,0,17,17,0,0,0,.23-2.79q-3.15-1.35-2.75,0a.52.52,0,0,1,0,.11c0,.08,0,.33,0,.09a6.28,6.28,0,0,0,.12,1.21c.2,2.4.3,4.82.44,7.23.08,1.36-.2,3.87.59,5.07a1.55,1.55,0,0,0,2.81-.34,8.12,8.12,0,0,0,.27-2.31h-3c.12,5.55.23,11.11.54,16.66.08,1.45-.23,4.72,1.12,5.76,2.1,1.6,2.71-1.62,2.87-2.93.47-3.78.65-7.61.87-11.41l-1.5,1.5c1.86,0,3.93,2.7,5,3.93a14.62,14.62,0,0,1,3,4.52c.25.77.4,1.55.68,2.3.66,1.72,2.1,3.76,4.17,2.54,1.59-.94,2.32-3.32,2.94-4.92.8-2,1.39-4.16,2.37-6.1a8.47,8.47,0,0,1,.48-.81c.07.21-1.32,0-1.22-.16,0,.06.43,1.19.46,1.32a26.14,26.14,0,0,1,.54,2.91,1.51,1.51,0,0,0,2.74.36c.56-1.26,1.11-2.52,1.79-3.72a6.25,6.25,0,0,1,.65-1c.25-.35,0-.09-.29-.09s-.24-.13-.25-.15c.05.24.33.53.43.76a16.3,16.3,0,0,1,.79,2.54,83.64,83.64,0,0,1,1.64,10.44c1.31,11.47,1.62,23,3.29,34.47.38,2.53.68,9.33,4,10.2a3.28,3.28,0,0,0,3-1.09c.29-.25.58-.53.86-.8.1-.09.23,0,.06-.06a1.51,1.51,0,0,0,1.45-1.1c.84-4.23,1.6-9,3.85-12.76.76-1.25,1.72-2.15,3-2a1.56,1.56,0,0,0,1.85-1c.27-.76.4-.58-.82-.26-.51.13-.35-.61-.16.11.22.89.73,1.81,1,2.72.68,2.12,1.12,4.55,2.28,6.48,1.26,2.09,3.38,1.7,4.28-.44,1.88-4.44,1.79-10.25,2.19-14.93l-3,.39c.4,2.21,1.63,11.88,6.16,9.29,2.79-1.6,3.78-6.26,5.32-8.85l-2.74-.36c.4,1.5,1.44,3.92,3.44,2.8,1.42-.79,1.81-3.13,2.17-4.55,1.41-5.61,2-11.38,3.39-17,.23-1,.78-2.22.89-3s.51-.18-.41-.18-1-.61-.75.19a1.51,1.51,0,0,0,2.95-.4,13.93,13.93,0,0,0,.23-1.82c0-.08.18-.53.14-.59.08.11-2.61.49-2.42.05-.18.42.47,2.25.54,2.75.44,3,.72,6.09,1.12,9.13.21,1.62.16,5,1.67,6.06,3.09,2.25,3.23-4.7,3.45-5.82.26-1.3.69-1.07-.69-1.06-1.21,0-1-.23-.64.76a41,41,0,0,1,1.09,4.79c.67,3.34,1.11,6.91,2.38,10.09.2.51.65,1,.81,1.52s0,.31-.06,1.13a22.38,22.38,0,0,0,.15,3.56q.24,5.84.57,11.66a107.07,107.07,0,0,0,1.22,13.74c.19,1,.44,2.27,1.58,2.56,1.42.37,2-1,2.3-2.1a40.76,40.76,0,0,0,.75-6.23c.36-4.26.58-8.53.79-12.8l-2.95.4c.22,1.46.44,4.52,2.5,4.61,1.46,0,2-1.5,2.46-2.63a28.63,28.63,0,0,0,1.54-4.81c0-.09.29-.44.26-.51.13.3-1.79.21-1.62,0s.46,2,.38,1.6c.21,1.17.41,2.35.73,3.5.49,1.79,1.34,4.14,3.54,4.2a6.86,6.86,0,0,0,1.56-.32c.24-.05.24,0,.22-.05-.36-.13.16.39.37.58,3.07,2.63,4.33-3.79,4.78-5.53.28-1.05.54-2.11.84-3.16a11.92,11.92,0,0,0,.77-2.27c0-.07.18-.21.16-.28.06.2-3.07,1.78-1.54.06a3.73,3.73,0,0,1,.19.61c.18,1.79.71,3.61.93,5.42a1.51,1.51,0,0,0,2.79.75c1.75-2.44,3.54,0,5.58.74,2.41.87,4.19-.39,5.4-2.46l-2.79-.76c.54,4.62.72,10.13,2.74,14.42.94,2,3,2.77,4.41.77,1.6-2.21,2-5.59,2.54-8.18,1-4.78,1.7-9.6,2.45-14.41h-2.89c.86,3.74,1.55,7.55,2.65,11.23.41,1.36.91,3.57,2.42,4.15,2.43.93,3.2-2.49,3.54-4.13a129,129,0,0,0,1.83-17.2c.17-2.54.24-5.09.48-7.62a7.41,7.41,0,0,0,.16-1.39c0-.1.14-.35.1-.43.14.26-2.71.33-2.55,0a8,8,0,0,0,.36,1.93c.16,1.14.27,2.3.4,3.45a25.3,25.3,0,0,0,.77,5.64c.36,1,1.3,1.84,2.41,1.2a2.64,2.64,0,0,0,1-2.15c.7-4.84.34-9.78,1-14.62a5.88,5.88,0,0,0,.27-1.43c.26.78-2.39.49-2.31.25-.05.15,0-.28,0,.09a7.41,7.41,0,0,0,.58,2c.4,1,1.3,2,2.52,1.36,1-.55,1-2,1.18-3h-3c.26,6.24.48,12.5,1,18.71.14,1.5-.06,5.79,2.11,6.09,2.39.34,2.33-3.75,2.48-5.17.59-5.83.79-11.71,1-17.56h-3c.1,2.57.18,5.15.42,7.72a6.48,6.48,0,0,0,.55,2.89,1.59,1.59,0,0,0,2.7,0,5.66,5.66,0,0,0,.55-2.44c.48-3.87.65-7.8.9-11.7.18-2.62.34-5.24.55-7.86.08-1.07.16-2.14.3-3.2a5.12,5.12,0,0,0,.14-1c-.08-.66.8-.37-.44.23h-1.52c-.9-.63-.51-.59-.37.83q.11,1.08.24,2.16a11.64,11.64,0,0,0,.57,3c.5,1.23,1.79,2,2.94,1,1-.89,1.09-2.79,1.31-4,.43-2.43.74-4.88,1.11-7.31.46-3,.82-6.06,1.29-9.08.18-1.24.37-2.48.66-3.69a9.2,9.2,0,0,0,.33-1.22,10.51,10.51,0,0,0-1.95-.15c-.08.09.2.62.2.78,0,1.72.51,3.54.57,5.3s.13,3.65.21,5.48c.1,2.37.22,4.75.42,7.12.21,2.54.63,5,.93,7.56a1.5,1.5,0,0,0,3,0c.09-1.85.15-3.7.33-5.54a4.61,4.61,0,0,0,.15-1.21c-.3-1-2.38-.88-2.49.18-.19,1.92.49,4.36.64,6.29a1.5,1.5,0,0,0,3,0c.44-10.32,1.35-20.59,1.63-30.92h-3c.11,2.34.2,4.69.47,7a6.08,6.08,0,0,0,.58,2.67c1.36,2,2.92,0,3.25-1.47.44-2,.57-4.08.91-6.11.31-1.78.57-3.58.85-5.37.18-1.2.36-2.41.61-3.6a10.67,10.67,0,0,0,.27-1.22l.11-.37c.36-.77-.29-.76-2,0a1.47,1.47,0,0,0,1.29.75,3.73,3.73,0,0,0,2.26-.82c.37-.25,1.77-1.92,2.23-1.81a1.53,1.53,0,0,0,1.85-1.05c1.09-3.6,2-7.27,3-10.87.22-.75.45-1.49.71-2.23.15-.42.86-1.59.77-1.94,0,0-.6-.16-.75,0,.06-.05-.09.11-.1-.08,0,0,.27.25.31.3.15.21.14.15.42.56.39.59.73,1.22,1.11,1.82.75,1.17,1.72,2.69,3.3,2.64,2.18-.08,2.91-3,3.33-4.62,1.65-6.51,2-13.46,2.55-20.12l-2.94.4c2.15,5.36,5.57,9.66,9,14.21,3.31,4.39,4.06,10.45,4.91,15.71a1.51,1.51,0,0,0,2.74.36c.42-.91-1.43,0-1.32-.26,0-.06.19.27.28.54.3.85.59,1.7.84,2.58.6,2.11,1.06,4.26,1.76,6.34.44,1.29,1.07,3.34,2.74,3.4,2,.07,2.52-2.68,2.82-4.15l-1.44,1.1c2.67.16,2.65-6.84,2.91-8.45a13.65,13.65,0,0,0,.41-2.06c0-.1.11-.22.1-.31.09.54-2.6.64-2.36.12.07-.14.08.11.08.47.1,4.1.67,8.26.84,12.38a1.5,1.5,0,0,0,3,0,6.49,6.49,0,0,0,.22-1.1c.2.33-2.73.36-2.53,0,0,.07.12.27.1.36a11.7,11.7,0,0,0,.42,2.77c.35,3.09.59,6.19.88,9.29.21,2.19.17,4.77.9,6.88s3,1.78,3.44-.37l-2.94-.4c0,.84.07,13.21,3.87,9.83a5.48,5.48,0,0,0,1-2s.12-.16.1-.18c.21.29-2-.15-2.09-.08a1.06,1.06,0,0,1,.11.52c0,1.28.35,2.69.45,4a1.51,1.51,0,0,0,1.5,1.5c-1.78.16-.78-1.2-.81.11a9.07,9.07,0,0,0,.36,1.67c.31,1.67.54,3.35.78,5a52.84,52.84,0,0,0,1.49,8.39c.38,1.18,1.09,3.5,2.92,2.46,1.14-.65,1.27-2.57,1.5-3.71.15-.73.28-1.48.45-2.21a3.84,3.84,0,0,0,.23-.85c0-.15-2.11-.38-2.21,0-.24.81.37,2.63.44,3.5.2,2.42.31,4.85.49,7.27.24,3.16.48,6.32.91,9.45.18,1.27.25,3.63,1.78,4.09,2.15.64,2.41-2.37,2.59-3.71.66-5,.8-10.09,1-15.12l-1.5,1.5c-5.39-.45-.92-1.56-1.3-.72,0,0,0,.41,0,.17a8.57,8.57,0,0,0,.14,1.51c.13,1.47.22,3,.3,4.42.2,3.38.36,6.77.6,10.15.09,1.37-.22,4.9,1.59,5.38,2.77.73,2.28-5,2.34-6.3h-3c.1,3.89.18,7.79.4,11.68a13.56,13.56,0,0,0,.41,4.12,1.58,1.58,0,0,0,3-.07,13.66,13.66,0,0,0,.42-3.56c.75-10.14.83-20.31,1.69-30.44a9.17,9.17,0,0,0,.24-2.25c0-.08.09-.2.06-.27s-2.47-.4-2.66-.1c-.06.09.15.54.12.67a16.14,16.14,0,0,0,.25,3.72c.12,2.52.2,5,.27,7.57a1.5,1.5,0,0,0,3,0c.08-3.37.15-6.73.3-10.09,0-.83.07-1.66.14-2.49.11-1.29.32-.43-.53,0h-1.51c-2.31-1.4-.29-.95-.57-.51.09-.13,0,.26,0,.46.09.85.13,1.7.18,2.55.18,3.26.3,6.52.42,9.78.25,6.44.5,12.88.61,19.32.09,5.6.17,11.19.29,16.78,0,1.93.07,3.86.14,5.79a8.05,8.05,0,0,0,.33,2.9,1.44,1.44,0,0,0,1.29.75h0a1.58,1.58,0,0,0,1.45-1.1,7.19,7.19,0,0,0,.16-2.17c.06-2.05.09-4.11.11-6.16h-3c0,3.47.06,6.95.14,10.42,0,1.18-.21,2.76.85,3.54a1.49,1.49,0,0,0,1.82-.23c.69-.89.52-2.24.56-3.31.06-2,.09-4,.13-6s.09-4.24.14-6.36c0-.72,0-1.45.07-2.17s.36-1.2-.13-.4l-2.05.54c-.94-.43-.57-1.38-.7-.87a4.6,4.6,0,0,0,0,1,1.5,1.5,0,0,0,3,0c.1-3.78.15-7.59.5-11.36.08-.82.17-1.64.25-2.47,0-.52.07-1,.12-1.56.08-.85.38-1-.18-.57h-2.12c-.84-.69-.14-.69-.28-.18a4.7,4.7,0,0,0,.09,1.18c.09,1.66.14,3.32.18,5,.06,2,2.76,1.86,3,0,.32-2.45.57-4.87.7-7.33,0-.7.07-1.39.11-2.09.1-1.57.33-.32-.94.13l-1.7-.69c-.35-.54-.08-.47-.09.14s.05,1.26.07,1.88c.08,2.54.12,5.08.15,7.61a1.5,1.5,0,0,0,3,0c0-2.34.06-4.68.11-7,0-.54.07-1.09,0-1.63,0-1,.44-.87-.36.09l-2.35-.31c-.48-.93-.15-.17-.12.5s0,1.3.06,2c.06,2,.09,4,.13,5.93.11,6.47.06,12.94.1,19.4,0,3.7,0,7.4.08,11.09,0,1-.34,3.13.29,4a1.52,1.52,0,0,0,2.59,0,6.74,6.74,0,0,0,.26-2.76c0-2.12,0-4.25.07-6.38l.06-9.81c0-2.12,0-4.24.09-6.36,0-.68.13-1.4.09-2.08-.06-1.18.47-.45-.59.14l-2.06-.54c-.39-.59-.1-.21-.07.37s.07,1.37.09,2c.07,2,.11,4,.15,6q.15,7.84.23,15.67a1.5,1.5,0,0,0,3,0q0-3.63,0-7.28c0-.55,0-1.12,0-1.67s.28-1-.18.05l-2.75-.36c-.22-.54,0-.18,0,.22s0,1.08,0,1.61c0,1.7,0,3.4,0,5.1l0,11.43c0,.63,0,1.27,0,1.9.05.89-.32.82.21,0l2.79.76c0-4.8,0-9.59,0-14.39a1.5,1.5,0,0,0-3,0c0,.34-.19,1.69,0,.88h2.9c.21.84,0-.86,0-1.21l0-3.17c0-1.44.33-3.48-.14-4.88a1.53,1.53,0,0,0-2.21-.9c-1,.54-.78,2.32-.79,3.28,0,3.07-.05,6.13-.07,9.2,0,5.32,0,10.64-.07,16,0,.89,0,1.79,0,2.68,0,.29-.16,1.33,0,.53l2.74-.36c.51,1.14.16.5.18-.23s0-1.44,0-2.16q0-3.31,0-6.65c0-2.06,0-4.13-.05-6.19,0-1,.3-2.95-.78-3.54a1.51,1.51,0,0,0-2.2.9c-.57,3-.11,6.41-.12,9.41h3c0-1.11.62-5.14-.83-5.82a1.52,1.52,0,0,0-2.2.9,26.07,26.07,0,0,0-.15,4.42L1320,739a7.39,7.39,0,0,0,0,1c0,.29-.19.76,0,.17h2.89c.28.77-.21-.75-.42-.92a1.53,1.53,0,0,0-2.36.3c-.75,1.19-.41,3.66-.47,5-.05,1.13-.09,2.26-.14,3.39,0,.51-.14,1.68-.12,1.63l1.45-1.1h0l1.45,1.1c.11.28-.06-1-.08-1.41A6.57,6.57,0,0,0,1322,746a1.55,1.55,0,0,0-1.45-1.1h0a1.61,1.61,0,0,0-1.45,1.1,8.29,8.29,0,0,0-.21,2.44c-.07,1.59-.12,3.19-.17,4.79s-.11,3.25-.17,4.87c0,.6,0,1.21-.08,1.82-.07,1.16-.34.7.31.1l2.35.3v0a1.52,1.52,0,0,0-2.8.76c0,4.8,0,9.59-.12,14.39,0,1,0,2-.07,3-.05,1.37-.31.6.37,0h2.12c.52.41.26,1.15.39.65a3.39,3.39,0,0,0,0-.71c0-.62,0-1.24-.08-1.85,0-.85.17-2.43-.35-3.16a1.56,1.56,0,0,0-1.69-.69c-1.9.3-1.24,5.3-1.25,6.42,0,2.91,0,5.82-.09,8.73,0,.77,0,1.55-.06,2.33s-.31.82.13.23l2.36-.3c.6.49.39,1.32.36.14,0-.65,0-1.29-.07-1.93,0-1.77-.09-3.53-.13-5.29s-.07-3.31-.13-5c0-.89.13-2.22-.55-2.91a1.52,1.52,0,0,0-2.12,0c-.86.94-.55,3-.57,4.18-.1,5-.12,10.09-.24,15.13,0,2.31-.25,4.63-.27,6.94,0,.42-.12.08,0,.2s0,.13,0,.14c-.58-.33,3.1-.64,2.62-.32,0,0,.21.46-.14-.33a1.51,1.51,0,0,0-2.74.36c-.33.84-.12,1,.63.4l1.45.38c.14.13.13,0,0-.26l-2.5,1.46c2.27,1.88,4.71,5,7.89,5.2,4.58.26,6.53-5.66,7.68-9.06h-2.9c.87,5.58,1.45,11.39,3,16.83.34,1.14.75,2.78,1.92,3.36,1.35.67,2.38-.34,2.92-1.49,1-2.21,1.18-5,1.47-7.36.4-3.25.58-6.53,1.21-9.75.13-.64,1-2.77.94-3,0,.19-.48.1-.41.16s.35.1.6.11c2.23.09,3-1.76,3.52-3.67,1.47-5.6,1.54-11.51,3-17.14a23.2,23.2,0,0,1,1.58-4.39c.11-.22.39-.51.24-.3s-.58-.22-.14.16c.71.62,1.66.55,2.37,1.12,1.27,1,1.81,3,2.25,4.47,1.36,4.53,1.25,9.18,2.32,13.72.41,1.7,2.08,3.78,3.63,1.66,1-1.37,1.13-3.66,1.4-5.26.47-2.78.85-5.56,1.3-8.34.19-1.21.39-2.42.64-3.61.11-.49.53-2,.55-2s-.8.36-1.12.31c-.64-.08-.72-.41-.8-.27a6.85,6.85,0,0,0,.68,1.8,2.26,2.26,0,0,0,2.83,1.1,5.12,5.12,0,0,0,2-2.22c.15-.23.64-.74.65-1,0,0,.19-.17.18-.19s-4,2-1,0c-.2.13,0-.22.08.37.21,2.16,1.14,7.31,4.26,7.18,2.41-.1,3.53-3.42,4.25-5.24,1.37-3.48,2.34-7.1,3.44-10.66.8-2.57,1.47-6.39,3.37-8.43,1.43-1.54,4.65-2.65,6.7-.51s3.29,5.66,4.28,8.58a1.52,1.52,0,0,0,2.74.36c.8-1.6,3.24-7.6,5.77-6.14a6.51,6.51,0,0,1,1.86,2.65,34.69,34.69,0,0,1,2.2,6,1.51,1.51,0,0,0,3-.4,60.07,60.07,0,0,1,1.12-6.92,7.82,7.82,0,0,0,.5-1.71c0-.08.22-.31.18-.36-.14-.21-1,.31-1.23.09a1.51,1.51,0,0,0,2.5-.66,5.23,5.23,0,0,0,.45-1.21c-.14-.65-1.06-.52-1.18.13-.07.35.35,1.16.44,1.54.22.89.37,1.8.52,2.71a1.52,1.52,0,0,0,2.75.35c.87-1.69,1.57-3.47,2.32-5.22.36-.85.73-1.71,1.17-2.54.15-.29.35-.58.5-.87.35-.73.56-.36.18-.61a1.52,1.52,0,0,0,2.21-.9c1.52-4.35,4-11.74,9.86-10.87,2.48.37,4.75.93,7.28.57a14.52,14.52,0,0,0,7.16-3.38,1.49,1.49,0,0,0,.39-1.46c-.46-2.2-2.76-3.21-3.62-.63a24.18,24.18,0,0,0-.74,5.68c-.08,1-.53,2.93-.21,3.88,0,0,2-1.33,2.62-.32a1.62,1.62,0,0,0-.93-.72,1.57,1.57,0,0,0-1.9,1.1,6.37,6.37,0,0,0-.18,1.8c-.1,2.06-.12,4.13-.15,6.2h3a5.53,5.53,0,0,0-.31-2.43,1.52,1.52,0,0,0-2.59,0,4.27,4.27,0,0,0-.28,2c-.08,1.94-.09,3.88-.11,5.83,0,2.47,0,4.94-.08,7.41,0,.57,0,1.15,0,1.73,0,.24-.15,1,0,.34l1.45-1.1h0l1.45,1.1c.16.57,0-.26,0-.53a5.39,5.39,0,0,0-.11-1.07,1.51,1.51,0,0,0-2.21-.89c-.78.59-.77,1.32-.79,2.2h3c0-2.82.1-5.71-.15-8.53,0-.31-.07-.62-.11-.93s0,.34,0-.08c-.16-1.9-3-2-3,0,0,2.43,0,4.87-.05,7.3a15.14,15.14,0,0,0,0,1.65c0,.24-.14.92,0,.22l2.74-.36c.51.9.11.76.18.25a6.61,6.61,0,0,0,0-.89c0-.75,0-1.5,0-2.25,0-.92.28-2.86-.5-3.56a1.51,1.51,0,0,0-2.51.66,10.1,10.1,0,0,0-.09,1.74h3c0-1.51-.06-3-.08-4.51a8.61,8.61,0,0,0-.28-3.36c-.59-1.24-2.38-.78-2.74.36a10.5,10.5,0,0,0-.11,2.91c0,3.35,0,6.7-.06,10h3c0-1.23.2-2.85-.31-4a1.52,1.52,0,0,0-2.36-.3c-1,.89-.5,3.82-.51,4.9-.05,5.85,0,11.7-.07,17.56,0,1.91-.1,3.81-.14,5.72s-.06,3.88-.07,5.83,0,3.73,0,5.59c0,.93-.08,1.87-.06,2.8s-.38,1.05.14.27l2.74.36c.11.51,0-.28,0-.42a6.56,6.56,0,0,0,0-1.4,1.5,1.5,0,0,0-3,0c0,1.78,0,3.56-.06,5.34a7.71,7.71,0,0,0,0,1.27c.14.87-.61.42.4-.46l2.51.67c.16.54,0,0,0-.35,0-.57,0-1.15,0-1.72,0-1.62-.05-3.23-.08-4.84s0-3-.06-4.56a8.36,8.36,0,0,0-.12-2.45c-.43-1.08-2.12-1.63-2.74-.36a3.65,3.65,0,0,0-.24,1.57,7.28,7.28,0,0,0,0,1.32c0,.24-.14,1,0,.33l2.2-.89c.71.31.44,1.72.7.76a3.56,3.56,0,0,0,0-.92l-.06-2.5a12.11,12.11,0,0,0-.16-3.61c-.4-1-2.19-1.67-2.75-.35a4.25,4.25,0,0,0-.25,1.63h3a46.55,46.55,0,0,0-.08-5.15c-.09-.87-.89-1.83-1.89-1.45h0a1.58,1.58,0,0,0-1.1,1.44c-.25,2.46-.07,5-.08,7.49h3a10.63,10.63,0,0,0-.08-1.49c-.23-1.42-2.68-1.43-2.9,0a39.82,39.82,0,0,0-.11,5.57q0,6.5-.07,13h3c0-3.87,0-7.73,0-11.6a8.53,8.53,0,0,0-.22-3.19c-.66-1.49-2.7-.57-2.8.75s0,2.45,0,3.67l3-.4c.23.58,0,.18,0-.23a1.5,1.5,0,0,0-3,0q0,3.9,0,7.8a9.62,9.62,0,0,0,0,1.61c.11.61-.38.65.2-.24l2.79.76c-.06-1,.08-2.12-.08-3.17-.28-1.77-2.82-1.17-3,.4,0,.35,0,.71,0,1.06h3c0-1.41.07-2.84,0-4.24-.1-1.6-2.59-2.15-2.95-.4-.46,2.25-.07,4.92-.08,7.2q0,4.61,0,9.22c0,1.38,0,2.77,0,4.15a6.09,6.09,0,0,0,0,1.13c.11.58-.38.58.19-.26l2.8.76c-.06-1.19,0-2.38,0-3.56a1.5,1.5,0,0,0-3,0c0,.21-.07.62,0-.07l3,.39c0-.08,0-.16,0-.24a1.5,1.5,0,0,0-3,0,43.28,43.28,0,0,0,0,5.22c0,3.19,0,6.37,0,9.55l3-.4c.18.79,0-.35,0-.61,0-.7,0-1.4,0-2.1,0-1.28,0-2.57,0-3.85a1.5,1.5,0,0,0-3,0q0,3.66,0,7.34c0,.23-.1,2,0,1.06l2.74-.36c0-.06.44,1,0,0a1.51,1.51,0,0,0-2.74.36,20.92,20.92,0,0,0-.07,3.54h3c0-3.29.09-6.6,0-9.9a1.5,1.5,0,0,0-3,0c-.17,4.43.07,8.87,0,13.3h3c0-.5,0-1,0-1.5a1.5,1.5,0,0,0-3,0c-.13,1.75,0,3.56,0,5.32,0,1.21,0,2.42,0,3.62a9.26,9.26,0,0,0,0,1.29c0,.28-.15.9,0,.17l3,.4c-.12-3.07,0-6.17,0-9.24,0-4,0-7.92,0-11.88,0-1,.27-2.57-.45-3.43-.88-1.07-2.51-.13-2.56,1.06s.06,2.21,0,3.3h3c-.17-2.61,0-5.3,0-7.92a1.5,1.5,0,0,0-3,0,12,12,0,0,1,0,1.34l3-.4c.14.76,0-.08,0-.31,0-.46,0-.93,0-1.39l0-4.15c0-1.81.38-4.12-.09-5.89a1.51,1.51,0,0,0-2.95.4c0,.2,0,.41,0,.61l2.8-.76h0a1.51,1.51,0,0,0-2.79.76c-.36,5.73.34,11.53-.08,17.26h3c-.19-1.48,0-3,0-4.52s-2.7-2.16-3-.4a61.24,61.24,0,0,0-.1,8.13h3a10.46,10.46,0,0,0,0-1.12,1.5,1.5,0,0,0-3,0c-.17,3.81.12,7.64,0,11.45h3v-.15a1.5,1.5,0,0,0-3,0c0,.58,0,1.17,0,1.75h3c-.07-5.64.16-11.29,0-16.93a1.5,1.5,0,0,0-3,0c0,.38,0,.75,0,1.12h3c0-1.14.31-2.66-.75-3.41a1.51,1.51,0,0,0-2.26,1.29c0,2.69,0,5.38,0,8.07h3c0-5,0-10.06,0-15.09a1.5,1.5,0,0,0-3,0c0,2.73,0,5.47,0,8.2h3v-.16a1.51,1.51,0,0,0-2.8-.75,5,5,0,0,0-.2,2.28v6c0,6.1,0,12.2,0,18.29a1.5,1.5,0,0,0,3,0c0-1.07,0-2.14,0-3.21h-3c0,.32,0,.65,0,1a1.5,1.5,0,0,0,3,0c0-4.7-.24-9.49,0-14.19h-3c.27,8.87,0,17.78,0,26.65a1.5,1.5,0,0,0,3,0c0-1-.05-2,0-3.05h-3c.39,5.3-.11,10.69.12,16a1.5,1.5,0,0,0,3,0c.18-2.39,0-4.85,0-7.24h-3a5.61,5.61,0,0,0,0,.71,1.53,1.53,0,0,0,1.5,1.5h0a1.55,1.55,0,0,0,1.5-1.5c.43-4.62,0-9.45.06-14.07h-3c.13,9.5.07,19,.08,28.51h3c-.16-1.56-.49-14.24-4.9-11.73-1.1.64-1.58,2.21-2,3.31s-.81,2-1.18,3.08-.68,1.94-1,2.89c-.16.42-.4.85-.54,1.28a4.47,4.47,0,0,1-.33.61c-.33.42,0,.42.89,0a1.51,1.51,0,0,0-2.59,0c-.25.5-1.46,2.21-1.39,2.71,0,.33,1,.57,1.11.1a4.91,4.91,0,0,0-.32-.93,30,30,0,0,1-.78-4.21c-.2-1.39-2.11-1.31-2.74-.36,1.17-1.76,1.35.5,1.44-.12,0-.12-.22-.51-.26-.66-.29-1.07-.56-2.13-.77-3.22-.71-3.71-1.11-7.48-1.5-11.23-.17-1.56-2.56-2.19-2.95-.4a4.81,4.81,0,0,1-.29,1.13l1.46-.39c.6.18-.19-2.51-.3-3-.18-.8-.38-1.6-.56-2.4-.5-2.11-.69-4.28-1.14-6.4-.63-2.94-1.12-5.91-1.73-8.86-.28-1.41-1.12-5.15-3.39-3.5a4.07,4.07,0,0,0-1.17,2.89c0,.12-.07.25-.09.38-.17.76.57.8,2.22.13.06-.13-.16-.51-.16-.66,0-1.41-.4-2.88-.53-4.29a1.5,1.5,0,0,0-3,0c0,.46-.43,2.14-.21,2.53a2,2,0,0,1,0,.24l2.55-.21c.1-.11-.12.29,0-.18a7.67,7.67,0,0,0-.38-2.28c-.42-1.92-2.62-3-3.33-.54-.64,2.18-.31,5-.46,7.25-.11,1.72-.2,3.46-.45,5.17a5,5,0,0,0-.23,1.25c0,.2,0,.07,0,0,1.8.79,2.56.77,2.27-.09a3.65,3.65,0,0,1-.13-.55c-.11-2.85-.73-5.8-1-8.65a1.5,1.5,0,0,0-3,0c-.1,1.16-.19,2.32-.36,3.47a9.36,9.36,0,0,0-.35,1.7l2.29-.1-.07-.24a3.52,3.52,0,0,0-.19-.76c-.13-.62-.23-1.26-.32-1.89-.25-1.67-.24-3.49-.64-5.12-.33-1.37-.82-2.71-1.12-4.1s-.63-2.53-1-3.79a3.32,3.32,0,0,1-.27-1.65c0-1.29-.25-2.62-.38-3.91-.45-4.54-1-9.08-1.45-13.62a1.51,1.51,0,0,0-3-.4c-.21.69-.67,1.24-.94,1.91a18.13,18.13,0,0,0-.82,5l2.26-1.29a9.75,9.75,0,0,0-7.15-.74c-3.11.74-5.95,2.33-9.13,1.06a1.51,1.51,0,0,0-1.7.68c-.88,1.51-1.71,2.57-3.46,1.86-1.42-.58-2.58-1.76-4-2.46-3.82-2-6.51.54-8.11,4l2.36-.31c-3.49-3-7.75-4.19-11.62-1.13a18.08,18.08,0,0,0-5.48,7.48,21.24,21.24,0,0,0-.6,4.66c-.21,1.92-.43,3.85-.7,5.76-.46,3.38-.78,7.25-2.29,10.36-.53,1.11.68-.15.56.39,0-.05-.82-1.25-1-1.63-1.77-3.72-2.3-8.18-4.58-11.65-.93-1.42-2.56-2.32-4-1-1.73,1.59-1.89,5-2.27,7.11-.79,4.51-1.35,9.06-2.22,13.56-.13.7-1.18,3.34-1,3.86-.06-.14,1.76.22,1.82.15s-.19-.46-.19-.56a24.69,24.69,0,0,0-.57-3.12c-.2-1.54-2.49-2.19-2.94-.39a33.34,33.34,0,0,1-3.35,9c-.49.82-1,1.59-1.58,2.38a15.43,15.43,0,0,0-1.63,3.85c-.18.48-1.2,3-1.46,3-.59,0-1.46-2.29-1.66-2.75a53.91,53.91,0,0,1-3.28-11.27c-.6-3.27-.77-6.6-1.61-9.83-.31-1.19-.71-2.89-1.89-3.54-2.93-1.6-4,3.66-4.43,5.39-1.19,4.93-1.86,10-2.87,14.93l3,.4a59.28,59.28,0,0,0-.8-6.37c-.18-.92-.4-2.15-1.29-2.67-2.45-1.42-3.05,2.58-3.29,4-1.26,7.77-1.54,15.69-2.36,23.51-.35,3.42-.46,6.81-.61,10.25l-.09,1.59c0,.36,0,.91,0,.66.32.86,2.39.86,2.74,0,.07-.18,0,.37,0,0a2.59,2.59,0,0,0,0-.48c-.39-4.86-.42-9.75-.63-14.61,0-1.37.28-3.94-.5-5.17-1-1.58-2.62-.45-2.86.93a21.29,21.29,0,0,0-.15,2.88h3c-.12-10.05,0-20.16-.58-30.2a6.8,6.8,0,0,0-.18-1.8,1.54,1.54,0,0,0-2.79-.42c-.64,1-.38,3.06-.42,4.2-.14,3.85-.19,7.71-.26,11.57h3c0-1.39.58-5.79-1.24-6.56a1.59,1.59,0,0,0-2.07,1,1.18,1.18,0,0,0-.09.37c-.09.69-.37.08.56-.45l1.82.24c.62.69.22.93.33.34a7.9,7.9,0,0,0-.06-1.53c-.07-2.13-.12-4.26-.18-6.4-.11-3.59-.24-7.19-.3-10.79,0-2.08,0-4.16,0-6.23,0-.6.13-1.65-.24-2.17a1.53,1.53,0,0,0-2.75.35,8.92,8.92,0,0,0-.1,2.19c0,.44,0,.87,0,1.3s-.21.93,0,.32h2.89c.17.66,0,.07,0-.26,0-.69,0-1.39,0-2.08,0-3.24,0-6.48,0-9.72a1.5,1.5,0,0,0-3,0c0,.64,0,1.28,0,1.91,0,.22-.12,1,0,.33l3,.4c-.2-1.87,0-3.83-.06-5.7,0-1.22,0-2.45,0-3.68a6.86,6.86,0,0,0-1.64-4.37c-1.59-2.27-3.62-4.11-6.39-2.63a5.72,5.72,0,0,0-2.41,2.46,25.6,25.6,0,0,0-2.07,7.71c-.79,4.81-1.07,9.69-2,14.49a21.22,21.22,0,0,1-.89,3.7c-.33.86-.76.84,0,.8s.28.08,0-.41a7.21,7.21,0,0,0-1.09-1.76c-1.7-1.49-3.11.42-3.78,1.86a11.54,11.54,0,0,0-1.12,2.3c-.06-.2,1.52.15,1.58.06s-.26-.59-.26-.7a27.89,27.89,0,0,0-.61-3.21c-.21-1.43-2.66-1.42-2.89,0-.19,1.21-.38,2.43-.68,3.62a5.76,5.76,0,0,0-.37,1.27c0,.07-.13.19-.11.25s-.08.12,0,.09a1.41,1.41,0,0,1,1.5,0,10.17,10.17,0,0,0-.51-1.49c-.31-1.16-.53-2.34-.73-3.53-.57-3.31-.67-6.75-1.4-10-.23-1.05-.57-2.49-1.79-2.79-3-.73-3.27,5.45-3.53,7.06-.8,5.11-1.35,10.27-2.14,15.38-1,6.26-.72,12.77-1.18,19.09-.21,2.8-.9,5.67-1,8.43,0,.32-.11.13,0,.17a3.51,3.51,0,0,1,.62-.42c2.33-.5.46.22,1.24.3,0,0,0,.18.06.07s0,0-.15-.37-.19-.6-.27-.9c-.41-1.48-.69-3-1.05-4.47-.47-2-.54-6.24-2.89-6.84a2.61,2.61,0,0,0-2.62,1.37c0,.06-.41.41-.4.46s1.26.07,1.31,0-.3-1.08-.35-1.28c-.2-.89-.32-1.79-.45-2.69-.2-1.45-2.64-1.41-2.89,0-.5,2.85-.86,6.46-2.45,9-.59.94-.73.92-1.46.81-2.65-.4-4.29-.1-5.62,2.54l2.74.36c-.61-1.85-2.24-4.12-4.25-2.25-1.51,1.4-2,4.2-2.56,6.08-.75,2.63-1.33,5.34-2.33,7.89-.35.9-1.33,1.83.12,1.34.51-.17.24.61.11-.3-.11-.72-.44-1.47-.6-2.19-.38-1.68-2.91-1.25-3,.4-.06,2.6-.12,5.2-.24,7.79,0,.66-.07,1.31-.12,2,0,.47-.12.66-.09.69a7.89,7.89,0,0,0,2.76-.16c.13-.18-.07.21,0-.14a8.84,8.84,0,0,0-.12-1.44c-.11-1.45-.17-2.91-.24-4.36-.32-7.23-.34-14.5-.92-21.72-.07-.9,0-2.12-.8-2.73-1.57-1.2-2.44.62-2.57,1.88h3c-.07-6.22-.13-12.45-.31-18.67,0-1.37.45-5-.87-6-2.25-1.75-2.55,1.85-2.62,3.1-.16,2.81-.22,5.62-.31,8.44h3c-.13-1.57-.2-3.15-.31-4.72-.09-1.22.07-2.79-1-3.61a1.52,1.52,0,0,0-1.16-.15c-2,.85-1.36,5-1.4,6.67,0,1.43-.07,2.86-.1,4.29,0,1.86-.4,4.15-.1,6,0,.21-.09.29,0,.36s2.42.55,2.71.23c.07-.08-.12-.65-.12-.67.11-2.79-.41-5.77-.57-8.57s-.19-5.51-.56-8.22c-.14-1.06-.47-2.35-1.87-2.17s-1.42,1.66-1.51,2.74h3c0-3.59-.06-7.17-.19-10.75,0-1.11.16-2.92-1.23-3.29a1.51,1.51,0,0,0-1.69.68,7.22,7.22,0,0,0-.34,2.78c-.08,2-.12,3.9-.16,5.85-.11,5.12-.2,10.23-.31,15.35h3c0-4.52-.06-9-.18-13.55,0-1.06.27-3.23-.89-3.84a1.54,1.54,0,0,0-1.82.23c-.64.65-.54,1.84-.59,2.69l-.09,1.43c-.06,1-.17.3.34-.19l1.81-.24c1,.61.55,1.42.68.8a4.51,4.51,0,0,0,0-1c0-1.31-.07-2.61-.09-3.91a1.5,1.5,0,0,0-3,0c-.09,2.44-.18,4.88-.31,7.32,0,.72-.08,1.45-.14,2.17-.14,1.73-.41.65.83.31l1.69.69c.22.37,0-.82,0-1.1,0-1-.08-2-.11-3-.08-2.59-.14-5.18-.2-7.77-.15-6.61-.24-13.22-.42-19.84-.13-4.41-.3-8.82-.57-13.23-.07-1.15.3-4.81-1.42-5.12a1.51,1.51,0,0,0-1.46.39c-.81,1-.61,2.65-.66,3.85-.15,4-.19,8-.25,12h3c-.07-1.5.28-4.44-1.17-5.48a1.51,1.51,0,0,0-1.82.23c-.94.76-.82,3-.93,4.06h3c-.38-5.43-.58-10.86-.82-16.3a1.52,1.52,0,0,0-2.26-1.29h1.5c.87.65.62,1.07.52-.15-.06-.83-.11-1.66-.15-2.48-.12-2.23-.21-4.46-.3-6.69-.08-2-.15-4-.26-6-.06-1,.06-2.46-.66-3.3a1.54,1.54,0,0,0-1.82-.24c-.91.45-.84,1.73-.88,2.57l2.56-1.06c.63.69.24.67.26-.12,0-.62-.08-1.26-.11-1.88-.1-1.85-.16-3.69-.23-5.54-.11-3.27-.15-6.54-.36-9.81a1.5,1.5,0,0,0-3,0c0,1.54,0,3.07-.06,4.61,0,.29-.13,1.87,0,1.34l2.74-.36c.23.43.08.9.17.3a6.55,6.55,0,0,0,0-1c0-1.17,0-2.35-.05-3.53,0-3.77-.08-7.55-.12-11.33,0-2.21,0-4.45-.08-6.67,0-.24-.08-.48-.09-.72,0-.06,0,.52,0,.07-.26-11.21.05-22.47.08-33.69,0-1.38,0-2.76,0-4.15,0-.29.15-1.83,0-1h-2.89c-.23-.84,0,1,0,1.36l0,4.07q0,5.6,0,11.19a1.5,1.5,0,0,0,3,0c0-4.13.22-8.26.26-12.39l-1.1,1.45h0l-1.84-1c-.17-.47.05,0,0,.32a8.48,8.48,0,0,0,.06,1.42c0,1.25.09,2.5.13,3.75s-.4,4.58.7,5.54a1.53,1.53,0,0,0,2.12,0,4,4,0,0,0,.57-2.54c.11-2.47.13-5,.18-7.44,0-3.06.06-6.13.13-9.19,0-.65.06-1.29.06-1.94,0-.12.08-.36,0-.47-.11-.3.11.08,0,0,.51.18-3.29.68-1.75,1a1.57,1.57,0,0,0,1.49-.39,2.85,2.85,0,0,0,.55-1.93c.35-5,.19-10,.35-14.94.09-2.9.28-5.8.46-8.7.1-1.67-2.61-2.06-3-.4a43,43,0,0,1-3.1,9,36.52,36.52,0,0,0-2.55,10.3c-.42,3.47-.71,7-1.07,10.42-.16,1.54-.31,3.07-.52,4.6a17.54,17.54,0,0,0-.29,1.74c0,1-.61.4.58.1l1.69.69c-.82-1.41-.92-4.14-2.6-4.9-2.32-1-2.84,2.1-2.94,3.64-.16,2.13-.28,4.3-.64,6.41a5.72,5.72,0,0,0-.31,1.38c0,.12-.09.06,0,.11-.45-.38,2.16-.16,2-.12,0,0-.09-.19-.1-.23-.07-.32-.22-.65-.32-1-.21-.65-.39-1.32-.63-2-.59-1.56-2.3-3.16-3.63-1.17a7.77,7.77,0,0,0-.8,3.15c-.4,2.78-.57,5.59-.75,8.39l2.56-1.06c-2.51-2.42-4.08,1.8-4.61,3.6-1.42,4.8-2.15,9.81-3.23,14.7l2.94.39c-.22-1.86-.08-5.91-1.8-7.21-2.14-1.62-3,1.58-3.24,3-.12.74-.21,1.48-.3,2.22-.06.52-.58,2.57-.31,3.08.15.29-.15-.23.19-.24.61,0,.86-.33,1.61-.19,1.37.26,0,.23.18.13,0,0,.24.26-.07-.11a2.43,2.43,0,0,0-.76-.77c-2.82-1.55-3,3.6-3.11,5-.7,7.91-.18,16-2,23.76a10.85,10.85,0,0,1-1,2.74c0-.05,0,0,0,0a3.47,3.47,0,0,0-2.92,1.7l2.8.76c-.19-1.47-.36-5.87-3-5.15-1.82.5-2,3.73-2.25,5.21-.56,3.2-1,6.43-1.43,9.64-.21,1.39-.42,2.79-.72,4.17a10.62,10.62,0,0,0-.33,1.35c-.06.89-.48.15.44,0l1.85,1c-.31-1.78-2.09-4.59-3.7-1.94-1.14,1.89-1.14,4.89-1.43,7-.44,3.24-.8,6.5-1.32,9.72a20.83,20.83,0,0,0-.68,3.34c0,.34-.07.13-.06.16-.13-.34,2.35-.34,2.11.07a9.17,9.17,0,0,1-.25-1.11,1.54,1.54,0,0,0-1.85-1.05c-2.07.3-2,5.32-2.2,6.69-.5,4.26-.85,8.55-1.26,12.82-.19,2-.38,3.9-.63,5.84-.12,1-.73,2.52-.6,3.48.06.52-.15-.26.15-.13s2.36-.18,2.13.33c.11-.25-.27-1.32-.32-1.61-.37-2.61-.47-5.28-.62-7.92a67.18,67.18,0,0,0-1.11-9.69c-.27-1.27-.68-3.35-2.36-3.35s-2,1.85-2.33,3.07a69.07,69.07,0,0,0-1.19,8.35c-.51,4.88-.89,9.77-1.23,14.66-.12,1.69-.22,3.39-.38,5.08a12.9,12.9,0,0,0-.26,1.94c0,.48,0,.19,0,.14h2.39l0-.06s0,.36,0,.07a6.52,6.52,0,0,0-.28-1.49c-.24-1.73-.37-3.49-.51-5.23-.41-4.93-.69-9.88-1.15-14.81a22.13,22.13,0,0,0-.57-4.45c-.41-1.35-2.17-2.42-3.06-.75l2.79.76c-.24-5.43-.47-10.87-1-16.28-.14-1.55,0-4.68-1.25-5.88-1.7-1.62-2.83.69-3.08,2.08a83,83,0,0,0-.89,9.72h3c-.1-1.23.05-3.7-1.25-4.44s-2.27.53-2.61,1.68c-.11.37-.18.76-.27,1.14a1.7,1.7,0,0,0-.11.43c0,.06-.08.14-.07.2-.11-.69,2.61-.39,2.48-.15,0,.06-.08.32,0-.18a3.25,3.25,0,0,0-.1-.79c-.13-1.32-.18-2.66-.25-4-.48-10.52-.58-21.07-.92-31.61-.12-3.56-.23-7.13-.42-10.69-.06-1.26.24-3.88-.77-4.88-2.36-2.36-2.78,2.28-2.84,3.48-.29,5.78-.31,11.58-.4,17.36h3c-.16-5.84-.31-11.68-.52-17.52,0-1.39.56-6.9-1.48-7.35a1.56,1.56,0,0,0-1.69.69c-.64.88-.39,2.86-.42,3.85-.13,3.93-.16,7.87-.21,11.8h3c0-.88,0-1.85-.81-2.39a1.52,1.52,0,0,0-2.2.9,12.23,12.23,0,0,0-.17,3.42c0,.75,0,1.49,0,2.23,0,.29-.18,1.63,0,.9l1-1h0l1.85,1c.18.72,0-.71,0-1,0-1.38,0-2.77,0-4.15,0-5.21-.06-10.42-.09-15.62,0-3,0-5.94-.08-8.92a7.8,7.8,0,0,0-.27-3.08,1.51,1.51,0,0,0-2.59,0c-.49,1-.26,2.51-.27,3.57h3c-.18-1.46-.82-9.74-4.32-6.9a6.79,6.79,0,0,0-1.55,3c-.26.71.21-.57-.08.24,0,.15-.14.29-.19.44s-.1.37-.14.55c-.88,3.68-.76,7.72-1.12,11.48-.06.67-.18,1.65-.23,2,0,.1-.17.54-.12.62-.06-.11.64-.15,1.31-.15a7.26,7.26,0,0,1,1.31.13,15.63,15.63,0,0,0-.23-2.29c-.11-1.76-.18-3.53-.24-5.3-.11-2.87-.18-5.74-.25-8.61a44.54,44.54,0,0,0-1-8.78c-.32-1.48-.46-4.26-1.84-5.25a1.7,1.7,0,0,0-2.48.54c-1.06,1.61-.85,4.55-1,6.36-.44,6.41-.55,12.85-.69,19.28l2.95-.4a13.36,13.36,0,0,0-2.55-4.53c-1.08-1.16-2.11-1.92-2.67-3.49-.77-2.16-.18-5.55-1.94-7.31-.46-.46-2.49-1.14-2.83-.15.34-1,1.47,1.48,1-.61a42.56,42.56,0,0,1-.67-6.06,1.5,1.5,0,0,0-3,0,57.87,57.87,0,0,1-.83,6.54,3.54,3.54,0,0,0-.21.82c0-.09,2.13.2,2.22.08s-.28-1.44-.32-1.68c-.85-6.18-.8-12.52-1-18.74-.12-3.19.1-6.77-.63-9.9-.38-1.65-1.9-2.29-3.06-.87a1.73,1.73,0,0,0-.26.64c-.06.45-.09-.1,0,0-.35-.29,3.1-.06,2.61.28,0,0,.14-.32,0,0a5.13,5.13,0,0,0-.09-1.34,1.5,1.5,0,0,0-3,0c-.45,5.59-.66,11.43-1.93,16.91,0,.19-.42,1.29-.38,1.35a8.18,8.18,0,0,1,1.9.06c.07-.14-.22-.58-.23-.76-.07-2.39-.78-4.93-1-7.33-.15-1.54-2.67-2.21-3-.4-.51,3.27-1,6.54-1.81,9.76a22.41,22.41,0,0,1-1.82,5.66,9,9,0,0,0-1.32,3.2c-.3,1.73-.53,3.46-.76,5.2a98.65,98.65,0,0,1-1.51,10,9,9,0,0,1-.28,1c-.15-.38,2.34-.54,2.13.15,0-.15-.17-.48-.18-.66-.15-2.43-.62-4.89-.8-7.33a1.5,1.5,0,0,0-3,0c-.33,5.28-.3,11-1.67,16.15-.34,1.26-.73,1.11.64.8.29-.06,0,.21-.1-.09.13.32,0-.13-.43-.34-2.46-1.3-3.06.89-3.53,3-.28,1.24-.55,2.48-.94,3.69-.1.31-.37.85-.37,1,0,.47-.25.05-.09.18-.2-.15,1.88-.11,1.64.13.06-.06-.89-3.88-.95-4.3-.57-4-.84-8.13-1.12-12.19a1.5,1.5,0,0,0-3,0c-.12,1-.24,2-.44,2.91a6.12,6.12,0,0,0-.35,1.27c-.68-2,2-.39,1.9-.06,0,.16-.15-.58-.15-.34a6.47,6.47,0,0,0-.38-1.33c-.69-2.75-1.09-5.57-1.6-8.35-.42-2.24-.71-5-2.08-7a2.5,2.5,0,0,0-3.18-1,11,11,0,0,0-2.36,2.28,1.5,1.5,0,0,0-1.84,1,18.8,18.8,0,0,0-.55,2.73c-.2-.5,1.89.39,2-.16,0,.16,0,0,0-.14a6.26,6.26,0,0,0-.32-1.18c-.56-2.47-.84-5-1.16-7.51-.62-4.83-.64-10.41-2.35-15-.47-1.28-2.54-1.56-2.89,0a17.12,17.12,0,0,0-.53,1.81l1.32-.07c-.1-.13-.14-.16-.11-.1,0-.12-.25-.33-.29-.44a5.81,5.81,0,0,0-1.43-2c-2.54-2.15-3.84,1.67-4.23,3.53h2.89c-.82-5.41-1.62-10.84-2.77-16.18-.49-2.26-.92-6.14-2.88-7.73-.75-.61-2.34-.58-2.51.66-.73,5.39-1.17,10.82-1.74,16.23-.23,2.19-.43,4.41-.83,6.58-.07.38-.34,1.53-.33,1.54,1.16-.65,1.92-.61,2.26.1a3.11,3.11,0,0,1-.11-.41,6.16,6.16,0,0,0-.21-1.25,1.5,1.5,0,0,0-3,0c-.1,2.15-.2,4.3-.37,6.44-.05.67-.53,2.18-.34,2.83,0,.16,2.69-.25,2.49.16,0-.1-.17-.64-.19-.76-.13-.79-.24-1.57-.33-2.36-.27-2.28-.47-4.57-.72-6.86-.16-1.42-.11-3.32-.78-4.63a1.62,1.62,0,0,0-2.62-.59,4.06,4.06,0,0,0-.75,2.45h3c-.18-1.34-.68-4.4-2.82-3.18-1.15.66-1.24,2.61-1.43,3.75-.23,1.36-1,3.41-.84,4.77,0,.08-.12.24-.09.31-.18-.39,2.16.06,2.37-.11a4.64,4.64,0,0,1-.11-.72c-.21-1.6-.3-3.21-.4-4.81s-2.54-2.13-2.95-.4a107.07,107.07,0,0,0-1.61,12.26c-.21,1.88-.39,3.79-.76,5.65-.27,1.35-.65,1,1,1.34,1.89.37,1.07.37,1.17-.64a8,8,0,0,0-.12-1.46c-.24-3.16-.46-6.32-.76-9.47-.13-1.43,0-4.3-1.12-5.39-2.33-2.19-2.93,2.14-3,3.41-.54,5.8-.33,11.66-.89,17.45-.5,5.26-.88,10.58-2.17,15.7-.8,3.19-.38,7.05-.5,10.36-.1,2.56-.2,5.12-.34,7.67a44.56,44.56,0,0,0-.37,4.83c0,.09-.13.37-.09.49a3.89,3.89,0,0,0,2.61.23c.06-.08-.18-.74-.17-.84.06-1.37-.27-3-.36-4.38-.16-2.54-.27-5.09-.38-7.63a1.5,1.5,0,0,0-3,0c-.23,2.59-.44,5.19-.84,7.76a7.21,7.21,0,0,0-.35,1.89c0,.13-.19.37-.13.47l2.2.09a5.47,5.47,0,0,1-.15-.58c-.41-1.71-2.84-1.22-3,.4a2.32,2.32,0,0,0,0,.45c.1.4-.11-.1,0,0a4.22,4.22,0,0,0,2.77-.15c0,.07,0,.15,0-.3,0-.25,0-.5-.08-.76-.11-1.16-.07-3.07-1.72-3.07-2.07,0-1.68,3.3-1.72,4.6-.2,6-.21,12-.29,18.07,0,2.8-.07,5.59-.15,8.38,0,.69,0,1.37-.07,2.06s-.3,1,.11.32l1.29-.74h0l1.3.74c.28.54.14.49.11-.18s-.06-1.19-.08-1.78c-.07-1.69-.11-3.38-.15-5.07-.11-4.16-.19-8.33-.31-12.49a1.5,1.5,0,0,0-3,0c0,2-.09,4-.19,6,0,.55-.06,1.1-.1,1.64s-.1.51-.06.6c.76,1.6,2.44.65,2.71-.19,0-.1,0,.06-.06-.45-.08-.76-.13-1.53-.19-2.3a19.6,19.6,0,0,0-.42-4.19c-.34-1-1.42-1.79-2.46-1a2.58,2.58,0,0,0-.73,2c-.46,4.71-.34,9.53-.42,14.26h3c-.11-1.26-.24-3.73-2.22-3.2-1.36.37-1.34,2.25-1.46,3.35a26.67,26.67,0,0,0-.51,4.78c0,.16-.13.39-.09.55.21,1,2.35.87,2.6,0a12.37,12.37,0,0,0-.18-2.74c-.05-1,.12-2.66-.46-3.56-1-1.52-2.54-.53-2.89.8-.77,2.95-.45,6.51-.59,9.53-.09,1.87-.17,3.75-.31,5.62a6.76,6.76,0,0,0-.09,1c.06.43-.12.17,0,.28a5.62,5.62,0,0,0,2.74-.07c-.08.09,0-.24,0-.62a1.5,1.5,0,0,0-3,0c-.09,6.14-.17,12.28-.39,18.41,0,1.22-.25,2.5-.2,3.71,0,.45-.14.23-.05.38-.85-1.44,3-.57,2.76,0,0-.06-.07-.19,0-.27-.06.26,0-.27,0-.55,0-.44-.07-.88-.1-1.31-.07-1.17-.13-2.34-.19-3.5-.14-2.78-.25-5.57-.38-8.35a1.5,1.5,0,0,0-3,0c-.14,1.66-.28,3.32-.46,5a7.81,7.81,0,0,1-.41,2.44l1.29-.74h-.07l1.29.74a5.69,5.69,0,0,1-.25-1.71,1.5,1.5,0,0,0-3,0c-.09,4.13-.14,8.28-.4,12.41,0,.54-.21,1.79-.17,2s-.07.17-.05.23,0,.05.05-.09c.32-.83,1.16-.87,2.51-.12.08-.18,0,.46,0,.06a1.75,1.75,0,1,0-3.49-.24l2.94.4c-.5-5.47-1-10.94-1.94-16.36-.4-2.45-.74-5.28-2-7.5-.7-1.26-2-2.17-3.4-1.36-1.18.67-1.72,2.3-2.15,3.49-1.44,4-1.58,8.41-2,12.57,0,.42,0,.32,0,.19-.19-.42,2.49-.18,2.17.14,0,0,0-.09,0,0a3.87,3.87,0,0,0-.2-.72c-.28-1.23-.46-2.48-.63-3.72-.49-3.68-.83-7.37-1.27-11-.22-1.84-.08-5.79-1.58-7.21-3-2.85-3.42,4.57-3.51,5.73,0,.6-.64,3.73-.28,4.09l1.49-.36c0-.09-.09-.18-.14-.27s-.2-.34-.23-.48c-.17-.88-.6-1.78-.85-2.65-.7-2.45-1-5.56-2.72-7.57-.8-1,.51,1.12,0-.18a2.47,2.47,0,0,0-.56-.95,1.73,1.73,0,0,0-2.43,0c-.88.82-1.08,2.39-1.39,3.47-.14.47-.4,1.27-.41,1.25-.16-.43,2.26-.25,2.15.18a3.74,3.74,0,0,0-.23-1c-.86-4.81-.76-9.92-.94-14.77a1.5,1.5,0,0,0-3,0c-.15,4.57-.25,9.15-.62,13.71a8.45,8.45,0,0,0-.27,2.18c-.11-.35,2.78-.75,2.58.07,0-.17-.15-.58-.17-.76-.42-3.24-.62-7-1-10.39-.14-1.18-.22-3.15-1.87-3.14s-1.68,2.22-1.83,3.26a12.3,12.3,0,0,0-.53,2.73c-.18-.94,2.79-.84,2.56,0,0-.12-.14-.34-.12-.48a12,12,0,0,0-.21-1.76c-.88-10.15-.8-20.42-1-30.59a1.5,1.5,0,0,0-3,0c0,1.49-.07,3-.13,4.48a5.34,5.34,0,0,0-.06,1.19c.15.79-.4.1.66-.61l1.82.23c.64.77.38,1,.33-.17-.05-1-.07-2-.09-2.94-.09-3.86-.13-7.72-.17-11.59-.05-4.59-.06-9.18-.14-13.77,0-1.21.37-3.65-.85-4.43a1.52,1.52,0,0,0-2.21.89,8.5,8.5,0,0,0-.15,2.47c0,1.69-.07,3.38-.1,5.08,0,3.2-.06,6.42-.19,9.62h3c0-1.11.17-2.83-.41-3.84a1.51,1.51,0,0,0-2.36-.31,3.73,3.73,0,0,0-.56,2.3c-.12,2.08-.14,4.17-.18,6.25h3c-.09-3.72-.12-7.43-.17-11.15,0-2.53.29-5.41-.22-7.91a1.52,1.52,0,0,0-1.44-1.1h0a1.51,1.51,0,0,0-1.45,1.1,28.14,28.14,0,0,0-.14,5.11h3c0-4.5-.07-9-.18-13.5,0-1.21.27-3.14-.87-3.93a1.5,1.5,0,0,0-1.82.23,3.31,3.31,0,0,0-.53,2.06c-.07,1.14-.08,2.28-.13,3.41,0,.46-.05.91-.05,1.37s-.34,1.35.12.29l2.74.36c-.38-1.6,0-4.78-.1-6.92a3.53,3.53,0,0,0-.53-2.39,1.5,1.5,0,0,0-2.12,0,2.61,2.61,0,0,0-.51,1.54c-.13.79-.34.86.09.28l2.36-.3c.44.55.27,1.15.38.38a9.13,9.13,0,0,0,0-1.38c0-1.16-.09-2.32-.16-3.49-.24-3.68-.24-7.36-.25-11.05,0-4,.51-8.39-.1-12.35-.23-1.53-2.53-1.33-2.89,0-.58,2.11-.1,4.93-.11,7.09a55.1,55.1,0,0,1,0,7l2.95-.4c.24.67,0,.19,0-.13a12.87,12.87,0,0,0,0-3.1c0-1.22.36-3.3-.12-4.5a1.51,1.51,0,0,0-2.89,0,2.19,2.19,0,0,0-.08.68c0,.75-.27.29.4-.55l2.5.66c.19.75,0-.17,0-.4,0-.62,0-1.24,0-1.86,0-1.06,0-2.13,0-3.2,0-1.58,0-3.15,0-4.73,0-.95.28-2.55-.11-3.47s-2.14-1.68-2.74-.36c-.75,1.66-.27,4.36-.29,6.12,0,1.32,0,2.64,0,4,0,.49,0,1,0,1.46,0,.27-.15,1,0,.27l1-1h0l1.84,1c.2.83,0-.9,0-1.23,0-1.66,0-3.33,0-5,0-.57-.18-1.13-.21-1.67.07,1.24.12,0,.13-.23,0-1.1-.08-2.24-.12-3.34a36.89,36.89,0,0,0-.29-5.66c-.33-1.69-2.94-1.26-3,.4,0,4.06,0,8.12-.09,12.17,0,1,0,1.91,0,2.87,0,.32-.18,1.35,0,.77l1.85-1.05h0l1,1.05c.14.57,0-.68,0-1,0-1.07,0-2.15-.06-3.22-.06-3.39-.09-6.78-.13-10.17q-.07-6.14-.13-12.29c0-1.08.35-3.16-.27-4.18a1.52,1.52,0,0,0-2.74.36c-.52,1.67-.14,4-.16,5.72,0,1.3,0,2.6-.06,3.89a10.45,10.45,0,0,0,0,1.37c.05.25-.16,1,0,.24l1.84-1.05h0l1,1.05c.17.79,0-.76,0-1.05,0-1.48,0-3,0-4.45q0-6.48-.08-13c0-3.23-.05-6.45-.09-9.68,0-1.15.35-3.3-.29-4.36a1.52,1.52,0,0,0-2.74.36,14.22,14.22,0,0,0-.13,3.91c-.05,4.18-.06,8.37-.08,12.55h3c-.16-1.62-.79-19.8-5.55-17.3-1.67.88-2,3.89-2.27,5.49-.88,4.64-1.34,9.38-1.8,14.07l3-.4c-.37-1.87-.76-6.35-3.21-6.93-2.21-.51-3.1,2.38-3.57,3.95-2.46,8.26-2,17.13-2.44,25.66a110.23,110.23,0,0,1-1.14,13.47c-.18,1-.49.65.92.5.48-.06,1.37-.15,1.27.18,0-.11-.14-.51-.16-.63a41.89,41.89,0,0,1-.52-4.2c-.62-7-.88-14-1.17-21a1.51,1.51,0,0,0-3-.39,8.63,8.63,0,0,0-.39.85c-.06-.13.43.2.6-.07s.09.28,0-.07c0-.15-.36-.38-.48-.51-.72-.8-1.4-1.77-2.56-1.92-1.59-.2-2.45,1.16-3,2.46-1.27,3.31-1.48,7.16-1.86,10.64l1.5-1.5c-5.62.38-7.43,9.07-8.55,13.25l3,.4c-.16-1.84.12-6.94-1.94-8.06-2.42-1.32-3,2.61-3.24,4.05-1.09,6.28-1.24,12.73-2.56,19a5.28,5.28,0,0,0-.35,1.35c0,.19,0-.27.15-.21s2.18-.23,2.07.31a7.14,7.14,0,0,0-.35-1.58c-.16-1-.24-2-.34-3-.14-1.61-2.47-2.13-2.94-.4-.14.5-.66,1.48-.69,1.82,0-.43.74.22.29-.19a2.6,2.6,0,0,0-2.09-.25c-1.21.39-1.75,1.63-2.12,2.73a42.41,42.41,0,0,0-1.45,8.89h3c-.18-2.68-.37-5.36-.75-8a7.78,7.78,0,0,0-.85-3.22c-1.78-2.47-3.35.59-3.72,2.2-.66,2.88-1,5.84-1.39,8.76-.21,1.45-.42,2.91-.7,4.36-.1.48-.22,1-.32,1.44,0,.14-.21.44-.19.57-.06-.34,1.29-.77,1.75-.47a1.53,1.53,0,0,0-2.26,1.3,96,96,0,0,1-2.21,14.32c-.24.91-.76,1.8-1,2.69,0,.14-.1.27-.1.16s.72,0,.34-.11l1.05,1.84c.71-4.6.93-9.28,1.33-13.92.09-1.06.18-2.11.29-3.17a8.07,8.07,0,0,0,.27-2c0-.08.11-.24.07-.31a9.45,9.45,0,0,0-2.5.11s.09-.27,0,.05c0,.1.07.26.06.36a19.66,19.66,0,0,0,.26,3.66,1.5,1.5,0,0,0,3,0c.15-5.32.24-10.66.62-16a10.54,10.54,0,0,0,.25-2.28c-1.13-3-2.48-.46-2.6.37a7.19,7.19,0,0,0,.1.83c.25,2.52.35,5.06.47,7.59.08,1.54-.5,5.57,1.46,6.25a1.5,1.5,0,0,0,1.46-.39c.71-.65.6-2.07.66-2.94.12-1.8.18-3.6.24-5.39l.21-5.72c0-.75.06-1.49.1-2.24a2.56,2.56,0,0,0,.05-.67c-.2-.75.78.5-1,.91l-1.7-.69c-.28-.53-.16-.64-.13,0a1.5,1.5,0,0,0,3,0c.06-4,.11-8.1.2-12.15,0-1,0-1.94.07-2.9,0-.31.18-1.39,0-.83l-1,1.05h0l-1.84-1.05c-.19-.55,0,0,0,.3a10.42,10.42,0,0,0,0,1.58q0,2.72,0,5.43a1.5,1.5,0,0,0,3,0c0-3.9.51-8.18,0-12.06a1.52,1.52,0,0,0-2.8-.76c-.47.69-.24,2.2-.26,3,0,.61,0,1.22,0,1.84,0,.84-.36,1.11.14.38h2.59c.42.57.16.65.14-.24l-.06-2.6a1.5,1.5,0,0,0-3,0c0,.89,0,1.79,0,2.68,0,.66-.3,1.22.13.35l1.69-.69h0l1.05,1c.18.44,0-.32,0-.71,0-.72-.06-1.43-.08-2.15q-.11-3.23-.19-6.45c-.06-1.91-.11-3.83-.22-5.74-.05-1,.09-2.93-1.28-3.21a1.5,1.5,0,0,0-1.46.38c-.66.75-.56,1.92-.61,2.86-.09,1.93,2.91,1.92,3,0a4.2,4.2,0,0,0,.07-1.22c-.07-.27.17-.1-.34.48l-1.46.39c-.79-1.13-1.13-1.45-1-1a.24.24,0,0,1,0,.08c-.06,0,.08-.44,0-.07a3,3,0,0,0,0,.72c.05.77.08,1.55.11,2.32.09,2.12.14,4.24.21,6.35,0,1.86.09,3.72.17,5.58,0,1.07-.15,2.87,1.22,3.21a1.53,1.53,0,0,0,1.7-.69c.61-1.25.31-3.24.33-4.55h-3c0,1-.36,3.41.33,4.35a1.52,1.52,0,0,0,2.59,0c.5-.74.28-2.28.3-3.12l0-1.81c0-1,.36-1-.17-.25l-2.79-.76c.52,3.88,0,8.16,0,12.06h3c0-1.91,0-3.81,0-5.71a8.69,8.69,0,0,0-.12-2.39,1.51,1.51,0,0,0-1.85-1.05c-1.56.53-1.19,2.86-1.22,4.15-.11,4.52-.17,9-.23,13.57h3a3.47,3.47,0,0,0-.28-1.53,1.53,1.53,0,0,0-1.69-.69c-2.1.48-1.4,6.7-1.45,8.16-.07,2-.14,4-.23,5.95,0,.78-.07,1.56-.13,2.34a2.81,2.81,0,0,0-.07.81c.05.19-.22.06.32-.43l1.45-.38c1.19.4,1,1.61.93.27-.06-.84-.09-1.68-.13-2.51-.07-1.65-.15-3.3-.25-4.95s.15-4.41-.67-6a1.57,1.57,0,0,0-2.8-.19,6,6,0,0,0-.47,2.52c-.52,5.64-.54,11.35-.7,17h3c-.07-1.43.32-5.31-1.3-6.19-2.22-1.21-2.56,2-2.72,3.35-.7,5.73-.74,11.55-1.63,17.26a1.56,1.56,0,0,0,1.05,1.84c2.14.86,3.4-1.66,4-3.25,1.86-5.24,2.2-11.22,2.79-16.7l-2.26,1.3c3.49,2.3,4.21-10.1,4.42-11.5s.39-2.68.65-4c.11-.57.58-2.18.55-2.26.11.33-1.88-.35-2,0,0-.08,0-.08,0,.2a11.54,11.54,0,0,0,.35,1.79c.38,2.5.53,5.05.7,7.57a1.5,1.5,0,0,0,3,0c.2-1.86.4-3.71.74-5.55.18-.93.6-1.9.71-2.83.06-.54.47-.49-.22-.35-.07,0,.09.08.48.2,2.59.79,3.65-1.52,4.24-3.67l-3-.4c.15,1.57,0,6.92,2.55,6.93,2.13,0,2.29-3.55,2.51-5,1-6.21,1.14-12.63,2.57-18.75a2.54,2.54,0,0,1,.25-.81c.27.34-2.44.64-2.14,0,0,0,.05-.22.08.26.13,1.84.58,3.72.74,5.57.14,1.61,2.49,2.13,2.95.4a36.82,36.82,0,0,1,3-8.34c.53-1,1.4-2.62,2.69-2.71a1.55,1.55,0,0,0,1.5-1.5c.25-2.31.52-4.63,1-6.92a17.72,17.72,0,0,0,.84-3c0-.43.22-.2.14-.3s-.76.34-.72.07c0,0,.69.76.86.94,2.2,2.43,4.39,1.68,5.48-1.34l-2.94-.4c.27,6.52.53,13,1,19.54.14,1.79.29,3.59.56,5.37a4.91,4.91,0,0,0,.88,2.74c2.46,2.46,3.22-2.46,3.38-3.79.7-5.61.9-11.3,1.17-17,.26-5.43.11-11,1.2-16.3.22-1.08.45-2.16.75-3.22.12-.46.85-1.82.76-2.23l.08-.13c.3-.43-.06-.47-1.07-.13,0,0,.5,1.21.51,1.27a29.12,29.12,0,0,1,.85,3.67c.35,1.78,2.8,1.17,2.95-.4.37-3.72.75-7.44,1.33-11.14.18-1.18.38-2.36.65-3.53a9.45,9.45,0,0,0,.63-2.21c0-.08.2-.23.17-.3.1.28-1.52,0-1.59.07s.15,0,.14.25a14.22,14.22,0,0,0,.7,2.63,115,115,0,0,1,1.59,12c.18,1.88,3,2,3,0,0-4,0-8.08.07-12.12,0-.94,0-1.88,0-2.82,0-.33.22-1.43,0-.72l-2.74.36c-.48-.8-.12-.78-.17-.15,0,.31,0,.65,0,1,0,1.16,0,2.33,0,3.49,0,3.79.06,7.58.09,11.36,0,4.31,0,8.62.09,12.92,0,1.37-.4,3.59,1.16,4.23a1.52,1.52,0,0,0,1.85-1c.45-1.78.14-4,.16-5.78l.06-3.88a8.6,8.6,0,0,0,0-1.34c-.05-.31.18-.9,0-.22l-2.74.36c-.54-.89-.09-.81-.18-.29a6,6,0,0,0,0,1c0,1.39,0,2.79,0,4.19q.06,6.55.14,13.13c0,3,.07,6.06.14,9.09,0,1.31-.34,3.47,1.2,4a1.52,1.52,0,0,0,1.84-1.05,14.88,14.88,0,0,0,.15-4c.06-4.21.08-8.41.1-12.61l-2.94.4c-.08-.38,0,.41,0,.56a12.38,12.38,0,0,0,.06,1.49c.05,1.25.08,2.51.12,3.76,0,1,0,2,.11,2.92a9.76,9.76,0,0,1,.07,2c0,2-.36,4.42.12,6.39a1.55,1.55,0,0,0,1.85,1h0a1.46,1.46,0,0,0,1.05-1c.41-1.84.12-4,.14-5.88,0-1.29,0-2.57,0-3.86,0-.46.05-.94,0-1.4s.3-1-.18,0l-2.74-.36c-.25-.61,0,.07,0,.48,0,.93,0,1.86,0,2.79,0,1.63,0,3.26,0,4.88s-.33,3.84.09,5.52a1.51,1.51,0,0,0,2.51.66,2,2,0,0,0,.46-1.28c0-.29.18-.67,0-.17h-2.89c-.27-.68,0,.65,0,1,0,1.41,0,2.82,0,4.23a8.88,8.88,0,0,0,.08,2.46,1.5,1.5,0,0,0,2.94-.4,54.77,54.77,0,0,0,0-6.78l0-4.64c0-.54,0-1.08,0-1.62,0-.31.16-1,0-.29h-2.89c-.14-.86,0,.25,0,.47,0,.83,0,1.67,0,2.5l0,11.22c0,3.14.12,6.27.3,9.41.09,1.54-.42,4.29.63,5.61a1.52,1.52,0,0,0,2.36-.31,2.68,2.68,0,0,0,.28-1.29c.13-1,.2-.58-.33.08h-2.12c-.66-.71-.28-1.11-.37-.28a15.34,15.34,0,0,0,.06,1.92c0,2-.29,4.38.17,6.35.28,1.17,2.21,1.56,2.74.36.6-1.37.35-3.27.4-4.73a9.19,9.19,0,0,0,.1-2.33c-.15-.49.15-.14-.38.53l-1.81.24c-.83-.58-.7-1.65-.67-.34,0,.93.06,1.86.08,2.78.08,4.14.11,8.27.15,12.4a1.5,1.5,0,0,0,3,0c0-1.13,0-2.27,0-3.4,0-.24.14-1.63,0-.91l-1.45,1.1h0l-1.45-1.1c-.14-.7,0,.36,0,.57,0,.56,0,1.11,0,1.67,0,1.78.06,3.55.08,5.33,0,3.56.08,7.13.17,10.69a1.5,1.5,0,0,0,3,0c0-1.71.07-3.41.13-5.12a7.3,7.3,0,0,0,.06-1.32c-.13-.58.38-.88-.32,0l-2.36-.3c-.44-.77-.07-.16-.08.36s.06,1.32.08,2a1.5,1.5,0,0,0,3,0c.12-3.07.13-6.16.19-9.24,0-1.63,0-3.27.09-4.91,0-.56,0-1.13,0-1.69,0-.32.2-1.06,0-.53l-2.21.9c-.7-.45-.45-1.69-.69-.74a4.42,4.42,0,0,0,0,1.09c0,1.38.05,2.75.07,4.13.06,5.11.09,10.21.15,15.31,0,3.06.07,6.12.17,9.18,0,1.08-.15,2.58.59,3.46a1.5,1.5,0,0,0,1.81.24c1.7-1.15,1-6,1-7.65h-3c.17,10.05.13,20.19.94,30.23.1,1.16,0,2.91.7,3.92,1.1,1.61,2.69.49,3.11-.93a20.13,20.13,0,0,0,.61-3.87c0,.14.15-.43.1-.49.3.37-3,.54-2.69,0,0,.07.11.27.09.34a7,7,0,0,0,.24,1.88c.22,2.09.38,4.19.58,6.29.14,1.46.06,3.4.71,4.75a1.61,1.61,0,0,0,2.62.62,3.93,3.93,0,0,0,.72-2.37c.61-5,.61-10.19.77-15.25h-3c.17,4.69.28,9.42.84,14.09.16,1.26.21,3.6,1.78,4s2.14-1.15,2.51-2.28c.18-.53.3-1.07.46-1.61s.41-1.22.41-1.22.09-.14.08-.15c.26.49-2.36.42-2.1,0,.06-.1,0,.16.14.47a11.83,11.83,0,0,1,1.24,2.52c.87,2.77,1.19,6.16,2.78,8.65s4,.92,4.14-1.54c.16-2.16.21-4.45.56-6.53a5.25,5.25,0,0,0,.13-.69c0-.54,0-.23,0-.22.37.46-2.57.37-2.24,0-.1.12.05-.29,0,.16a27.14,27.14,0,0,0,.61,3.39c.48,3.53.8,7.08,1.22,10.61.28,2.36.17,5.88,1.45,8a1.72,1.72,0,0,0,3,.13,8.54,8.54,0,0,0,.8-3.52c.36-2.82.27-5.72,1.08-8.45a18.48,18.48,0,0,1,.82-2.41c.12-.24.52-.72.54-1,0-.05.07.16-.19.11-1.21-.21-.74-.21-.33.84a21.23,21.23,0,0,1,1,3.86,170.25,170.25,0,0,1,2.25,17.88c.15,1.53,2.71,2.2,2.95.4a3,3,0,0,0,.1-.57c0,.46-2.74.94-2.63,0a2.31,2.31,0,0,0,.21.71c.43,1.14,1.55,2.25,2.75,1.12.84-.79.71-2.5.78-3.53.28-4.24.33-8.5.42-12.74h-3c.14,1.3.94,5.91,3.21,3.38a5.08,5.08,0,0,0,.76-2.65c.29-2.14.46-4.29.64-6.43h-3c.21,4.48.24,9,.7,13.46.14,1.37,1.3,4,2.9,2,.92-1.15.59-3.77.64-5.11.25-6.26.32-12.53.41-18.79h-3a4.25,4.25,0,0,0,.37,2,1.54,1.54,0,0,0,2.79-.38c.52-1.3.34-3.23.41-4.6.14-2.56.25-5.12.38-7.68.06-1.06.11-2.11.19-3.16a5.35,5.35,0,0,0,.09-1.12c0-.37,0-.13,0-.15a.69.69,0,0,0,0-.13c.14-.5-.19-.21-1,.87l-1.46-.38c-.59-.49-.23-.71-.31-.38a4.9,4.9,0,0,0,.09,1.2c.07,1.19.08,2.38.22,3.57.09.79.14,1.71.92,2.16a1.58,1.58,0,0,0,2.31-1c.57-1.38.46-3.31.61-4.77a11.6,11.6,0,0,0,.28-2.46c0-.1.11-.27.07-.35s-2.43-.4-2.65-.12A5.59,5.59,0,0,0,1056,817a1.5,1.5,0,0,0,3,0c.07-4.53.06-9.09.37-13.61a3.77,3.77,0,0,0,0-.58c0-.36-.06-.3,0-.17-.24-.41-2.43-.44-2.71-.12-.14.16.06.25,0,.33a6.1,6.1,0,0,0,.1,1c.14,1.51.21,3,.38,4.53a4.16,4.16,0,0,0,.38,1.74,1.56,1.56,0,0,0,2.82-.39,9,9,0,0,0,.26-2.49c.12-2.22.17-4.45.22-6.67h-3c.13,4.73.22,9.46.35,14.19,0,1.59-.72,7.42,1.79,7.59a1.5,1.5,0,0,0,1.3-.74c.57-1,.35-2.79.37-3.9.12-4.24.15-8.48.2-12.71s.09-8.53.21-12.79c0-.95,0-1.9.1-2.85.08-1.41.31-.43-.59.09h-1.52c-.55-.91-.76-1.19-.64-.81,0,0,0,.07,0,.1s0,0,0,0a3.76,3.76,0,0,0,.09.88,11.88,11.88,0,0,0,.21,1.9c.25.9.87,1.69,2,1.39s1.16-1.46,1.22-2.41l-2.94.4c.47,1.94,2.53,3.11,3.59.85a13.6,13.6,0,0,0,.79-3.85c.33-2.47.56-5,.78-7.43h-3c.17,3.89.26,7.82.7,11.7a5.64,5.64,0,0,0,.52,2.42,1.59,1.59,0,0,0,2.74,0,6.51,6.51,0,0,0,.51-2.62c.19-1.87.27-3.75.37-5.63.15-3.07.26-6.14.36-9.22.06-1.87-.13-4,.12-5.79.09-.68.43-1.44.59-2.16a112.7,112.7,0,0,0,2.17-20.55c.1-3.08.21-6.17.39-9.24.07-1.25.56-3,.37-4.22s-2.49-.12-2.49-.11a6,6,0,0,0,.21,1.16c.19,1.27.28,2.56.39,3.84.3,3.44.33,7,.82,10.38.24,1.64,1.9,2.77,3.08,1.08.84-1.2.83-3.31,1-4.69.66-5,.8-10.17,2-15.08l-3-.4c.11,1.9-.23,5.42,1,7.1s2.82.27,3.22-1.21.56-3.27.84-4.88a9,9,0,0,0,.44-2c0,.29-2.62.68-2.37-.12-.07.22.2.9.23,1.14a1.5,1.5,0,0,0,3,0c0-.13.19-.61.14-.71.09.17-2.46-.06-2.5.11a7.14,7.14,0,0,0,.33,1.83c.29,2.18.47,4.39.7,6.58a27.48,27.48,0,0,0,.75,5.5c.57,1.78,2.62,2.2,3.33.23,1.08-3,.72-7.09.86-10.22h-3c.18,1.38.46,4.8,2.77,3.87,1.57-.64,1.6-3.46,1.79-4.84,1-7,1.34-14,2.3-21l-2.51.66a5,5,0,0,1,1.11,2.41c.53,1.76.92,3.56,1.28,5.36,1,4.91,1.74,9.87,2.49,14.82.23,1.47,2.6,1.39,2.89,0,0-.23.7-2.2.65-2.25-.2-.24-1.21.24-1.21.27s.15.19.17.26a5.89,5.89,0,0,0,1.44,2.09c2.38,2.13,3.79-1.16,4.22-3.07h-2.89c1,2.57,1.12,5.54,1.48,8.23.47,3.65.89,7.3,1.44,10.93.25,1.64.31,5.18,2,6.19,2.5,1.54,3.08-2.62,3.28-4.07l-1.85,1c1.56.51,2.61-.62,3.6-1.63a5.69,5.69,0,0,1,.72-.75c.25-.17.1-.2-.45-.1a6.43,6.43,0,0,1,.39.79c.09.48.34,1,.46,1.46.83,3.18,1.24,6.46,1.87,9.68.31,1.6.58,5.33,2.58,5.88,3,.81,3.08-5.09,3.27-6.64h-3c.28,4,.57,8.1,1.1,12.12.24,1.79.36,3.93,1.22,5.56,1.53,2.94,3.71.54,4.4-1.49a42.89,42.89,0,0,0,1.1-4.33c.06-.26.34-.92.26-1.18-.18-.6,1,0-.5.27-.11,0-.45.12-.53.15s-.38-.13-.41-.1.51.48,0,0a2.32,2.32,0,0,0,3.91-.48,15.05,15.05,0,0,0,1.18-5.13c.6-4.44.87-8.91,1.15-13.38h-3c.1,1.43-.22,11.22,3.3,10.3,2.42-.63,2.39-6.43,2.64-8.25.32-2.27.6-4.55.92-6.82.13-.93.27-1.86.43-2.79a9.59,9.59,0,0,1,.24-1.32c-.19.59.2-.2.35-.44,3-4.72,3.53-11.5,4.36-16.86l-2.94-.4c.27,2.83.29,6.2,1.35,8.88.59,1.51,2.15,2.46,3.38.94s1.28-4.39,1.53-6.22c.63-4.59,1-9.21,1.39-13.83h-3c.06,1.3.69,4.95,2.82,2.85.34-.33.51-1.12.53-1,.25.59-2.69.12-2.53-.1-.09.13.11.68.13.86.64,5.61.47,11.33.74,17,.16,3.32.31,6.66.7,10,.13,1.16.13,3.12,1.09,4,3.55,3.2,4-8.37,4.09-9.36h-3c.18,2.44-.06,6.36,1.37,8.55.48.74,2.31,1.71,3,.59.13-.21-.8-.34-1-.25s0-.06.13.54c.25,1.54.43,3.22.79,4.73.85,3.61,4.19,5.4,5.47,8.78a1.51,1.51,0,0,0,3-.39c.17-7.93.52-15.8,1.16-23.68,0-.16.19-.45.16-.59,0,0-.17.39-.23.36-3-1.69-1.79,0-1.7.71.3,2.52,1.41,4.95,1.58,7.51.32,5,.2,10.06.43,15.07.08,1.69-.09,3.92.49,5.55s2.57,1.55,3.15-.1c1-2.9.73-6.74,1-9.78.14-1.59.47-3.18.52-4.56,0-.65-.34.83,0,0a12.81,12.81,0,0,0,.73-1.92c0-.12.28-.4.26-.52,0-.39-1.31-.36-1.49.1a5.69,5.69,0,0,0,.33,1.29c.23,1.07.36,2.16.5,3.24.23,1.86,3,2,3,0,0-.64,0-1.28,0-1.91s.33-1.12-.16-.14h-2.59c-.45-.9-.15-.55-.17.21s0,1.52,0,2.27c0,3.38.06,6.76.08,10.13,0,4.88,0,9.75.09,14.63a21.66,21.66,0,0,0,.13,4.83,1.52,1.52,0,0,0,1.85,1.05c1.52-.47,1.17-2.74,1.2-4l.06-2.59a4.42,4.42,0,0,0,0-.89c-.05-.29.18-.66,0-.15l-2.2.89c-2.36-1.49-.48-1.62-.71-.93a2.57,2.57,0,0,0,0,.73,1.5,1.5,0,0,0,3,0c0-3.64.08-7.29.19-10.93,0-.9,0-1.79.09-2.68,0-.73.32-1.06-.06-.53l-1.7.69c-1.54-.34-.86-1.76-1-.45a11.07,11.07,0,0,0,.09,1.52c.09,1.76.15,3.51.21,5.26.17,5.22.31,10.43.45,15.65a1.5,1.5,0,0,0,3,0c.08-5.19.14-10.38.33-15.56,0-1,.07-2.06.15-3.08,0-.4,0-.65,0-.59-.42-.48-2.83.25-2.74,0a7.83,7.83,0,0,0,.18,2.35c.07,1.28.13,2.57.18,3.86.16,3.81.27,7.62.39,11.43.29,9.59.37,19.2.86,28.78.08,1.57-.06,3.59.49,5.1a1.63,1.63,0,0,0,3,.36,6.25,6.25,0,0,0,.68-2.39c0-.5.06-.06,0-.12.18.35-4.22,2.64-2.37,0-.13.19.06-.45,0-.05a10.63,10.63,0,0,0,.29,2.36,1.5,1.5,0,0,0,3,0c.16-2.62.31-5.24.63-7.84a8.2,8.2,0,0,0,.32-1.92c0-.06.1-.21.08-.26.18.37-2.13,0-2.34.15,0,0,.1-.17.07.34-.14,2,.54,4.36.69,6.34.33,4.51.55,9,.75,13.55a1.52,1.52,0,0,0,2.8.76c.46-.86-2.72.62-2.46-.16,0-.14,0-.11,0,0s.1.33.1.47c0,.56.18,1.18.24,1.74.2,1.82.34,3.65.48,5.47.34,4.41.62,8.81,1,13.21.14,1.5-.09,6.82,2.39,6.78,1.37,0,1.66-1.38,1.83-2.44.5-3.06.54-6.21.77-9.3.33-4.54.69-9.08,1.2-13.6.17-1.5.35-3,.6-4.49a13.45,13.45,0,0,0,.62-2.86c-.06-.5.12-.11,0-.22-.21-.28-1.92.19-1.79,0-.19.34.58,2.57.65,3,.54,3.45.7,6.92.94,10.4.11,1.65-.31,8.73,2.54,8.81,2.39.06,2.36-4.61,2.55-6.1.57-4.62.93-9.26,1.38-13.9.21-2.07.4-4.15.69-6.22.1-.67.2-1.35.34-2,.29-1.35.39-.33-.54-.2l-1.85-1c.34,1.78,2.14,4.18,3.66,1.71,1.16-1.91,1.15-5,1.45-7.15.44-3.23.8-6.48,1.32-9.7a20.45,20.45,0,0,0,.66-3.2c0-.38.13-.09.08-.21.2.47-2-.2-2.09,0a10.24,10.24,0,0,1,.26,1.27,1.53,1.53,0,0,0,1.84,1.05c1.57-.23,1.86-2.83,2.09-4,.53-2.65.86-5.34,1.24-8,.36-2.5.65-5.05,1.24-7.51a4.58,4.58,0,0,0,.3-1.11c0-.26.09-.14.07-.17.19.27-2-.2-2.07-.11s.51,2.37.57,2.79a1.51,1.51,0,0,0,2.79.76c.21-.34.19-.21.15-.2.19-.06-.29,0,.08,0a5,5,0,0,0,.78-.09,3.43,3.43,0,0,0,2.18-1.83c1.06-1.93,1.32-4.38,1.63-6.51a131.21,131.21,0,0,0,1-13.44c.12-2.71.23-5.43.49-8.14.06-.55.11-1.1.21-1.64a4.15,4.15,0,0,0,.12-.57c0-.41.15-.1,0-.13.5.14-3.48.61-1.11.6-.32,0-.68-.36-.91-.36.13,0-.09-.13-.09-.13a1.83,1.83,0,0,0,.36.5c.65.6,1.35,1.09,2.26.57,1.74-1,1.25-4.39,1.45-5.92a9.8,9.8,0,0,0,.39-2.18c-.1-.7,1.14-.43-1-.39-2.71.06-.85-.31-1,.26-.11.39.33,1.43.4,1.85.18,1,.31,2,.43,3.08.19,1.54,2.55,2.21,3,.4.77-3.46,1.42-6.94,2.18-10.41.31-1.43.63-2.87,1-4.28a8.81,8.81,0,0,0,.56-1.69,5.12,5.12,0,0,1,.27-.52c.28-.43-.14-.45-1.23-.07a1.52,1.52,0,0,0,2.56-1.06c.15-2.31.3-4.63.56-6.94.09-.75.72-2.36.56-3.06,0-.15.06,0,0,0a13.78,13.78,0,0,1-1.92.22c-.16,0,0,0,0,.06.14.58.39,1.15.56,1.72.33,1,.62,2.58,1.67,3.16,2,1.08,2.77-1.38,3-2.8.33-1.85.48-3.74.64-5.61a6.81,6.81,0,0,0,.15-2l0-.31-1.66-.46c0,.06.31.65.32.75a10.26,10.26,0,0,0,1.25,3.12,1.53,1.53,0,0,0,1.7.69c1.88-.46,1.82-4,2-5.43.48-3.81.79-7.65,1.19-11.47a41.11,41.11,0,0,1,2.36-11.41,55,55,0,0,0,3.5-10l-3-.4c-.21,3.31-.41,6.62-.5,9.93-.11,3.71-.13,7.43-.23,11.14,0,.84-.14,1.73-.08,2.57,0,.15-.1.43-.05.57-.21-.58,2.24-.93,2.15-1-2.75-2-2.48,4.21-2.5,5-.08,4-.1,8-.18,12,0,1.24,0,2.48-.11,3.71a3.57,3.57,0,0,0-.06,1c.17.33-.25.18.37-.55h2.12c.59.51.26,1,.34.34a8,8,0,0,0-.07-1.29c-.05-1.19-.09-2.38-.13-3.57,0-1.53.27-3.72-.27-5.19a1.56,1.56,0,0,0-1.85-1h0a1.53,1.53,0,0,0-1.11,1.45c0,4.13-.21,8.26-.26,12.39h3q0-5.71,0-11.42c0-1.84.37-4.19-.1-6a1.51,1.51,0,0,0-2.89,0,20.87,20.87,0,0,0-.08,4.33c0,4.68,0,9.35,0,14,0,6.92-.26,13.89-.06,20.81,0,.41.07.8.09,1.21,0-.75,0,.83,0,1,0,1.37,0,2.73,0,4.09q.06,6.54.13,13.09c0,1.48-.43,4.06.32,5.45a1.52,1.52,0,0,0,2.74-.36c.46-2.12.16-4.6.18-6.75h-3c.24,3.7.28,7.42.41,11.12.07,1.84.12,3.68.25,5.51.06.93,0,2.1.66,2.84a1.52,1.52,0,0,0,2.56-1.06c.08-1.51.32-.42-.6,0l-1.82-.24c-.58-.66-.35-.77-.28.18s.1,1.7.14,2.55q.15,3.43.28,6.87c.09,2,.16,4.05.31,6.07.08,1.17,0,2.59,1,3.37a1.53,1.53,0,0,0,1.52,0h0l-2.26-1.3c.24,5.44.44,10.87.82,16.3a1.5,1.5,0,0,0,3,0c.05-.5.15-1,.17-1.52s.42-.86-.12-.42l-1.82.24c-1.1-.8-.32-.55-.46.33a13.8,13.8,0,0,0,.15,2.56,1.5,1.5,0,0,0,3,0c.06-3.68.1-7.36.22-11,0-.89.06-1.78.11-2.66s.25-.76-.3-.08l-1.46.38c-.79-1.12-1.13-1.43-1-.92v.08c-.07.06.11-.38,0,.07a4.64,4.64,0,0,0,.08,1.17c.1,1.46.18,2.92.26,4.39.29,5.23.43,10.46.53,15.7.12,6,.23,12,.38,18,.06,2.24.12,4.49.21,6.73,0,1-.12,2.49.42,3.42a1.55,1.55,0,0,0,1.7.69c1.36-.37,1.28-2.09,1.37-3.21.25-3.16.33-6.33.45-9.49h-3c0,1.39-.63,5.73.94,6.67a1.53,1.53,0,0,0,1.82-.23c.65-.64.54-1.85.59-2.69l.09-1.43c.06-1,.17-.32-.34.19l-1.82.24c-.84-.46-.68-1.64-.64-.26,0,.92.06,1.85.08,2.77.08,4.09.11,8.19.15,12.29a1.5,1.5,0,0,0,3,0c.11-4.8.19-9.59.29-14.38,0-2,.08-3.93.15-5.9,0-.64,0-1.28.07-1.91s.26-1-.11-.27l-1.69.69h0l-1-1.05c-.17-.44,0,.29,0,.59,0,.74.05,1.48.07,2.22.08,3.13.11,6.26.15,9.39a1.5,1.5,0,0,0,3,0c.09-1.16.3-.43-.54,0h-1.51c-.85-.37-.39-.74-.57-.58s0,.27,0,.31c0,.69.13,1.38.17,2.07.13,1.76.22,3.52.32,5.28.18,3.25.06,6.74.7,9.94.23,1.13,1.06,2.41,2.41,1.63s1-3.62,1-4.78c0-3.35.09-6.7.21-10a10.76,10.76,0,0,0,.11-2.19c-.08-.36-.07-.36,0-.26a7.57,7.57,0,0,0-2.77,0c.06-.06,0,.42.09.91s.08,1.19.12,1.78c.08,1.26.14,2.52.25,3.78a1.5,1.5,0,0,0,3,0c.07-2.33.14-4.66.24-7,0-.76.07-1.51.12-2.26.08-1.27.28-.3-.59.16h-1.51c-1-.58-.54-1.12-.64-.69a4.4,4.4,0,0,0,.07,1.14c.07,1.37.1,2.75.14,4.12.15,5.88.21,11.75.28,17.63,0,2,2.81,1.89,3,0,0-.37.11,0,0-.15s-3.23.7-2.77-.08c-.13.22,0,.15.08.57.12,1.24.16,2.48.23,3.72.19,3.89.32,7.79.46,11.68.13,3.54.25,7.08.47,10.61a13.88,13.88,0,0,0,.27,2.89c.39,1.31,2,2,2.87.65.52-.81.4-2.2.45-3.11.16-2.85.21-5.7.28-8.56l-3,.4c.39,1.7,1.19,5.36,3.74,4.54,1.88-.61,2.52-3.57,3-5.19.83-2.68,1.46-5.42,2.33-8.09.17-.53,1.21-2.24,1.15-2.74,0,0-.06.11-.1.07.26.27-1.09,0-1-.12a4.76,4.76,0,0,1,.39,1,1.52,1.52,0,0,0,2.75.36c1.28-2.53,2-.43,4.49-1.1,4.16-1.12,4.77-8.73,5.34-12h-2.89c.28,2,1.34,8.38,4.66,5.18.22-.21.75-.74.75-.92,0,0-1.07-.43-1.22-.22,0,0,.22.68.27.85.32,1.21.52,2.45.83,3.67.47,1.83.81,7.93,3.5,8,1.93,0,2.19-2.63,2.4-4,.67-4.47.87-9,1.12-13.54.21-3.92.08-8,.68-11.88.42-2.75.77-5.51,1.14-8.27s.7-5.4,1.15-8.08c.16-1,.33-1.9.55-2.84a5.49,5.49,0,0,0,.27-1c0-.77.94-.51-.7-.5s-.8-.21-.9.42a8,8,0,0,0,.34,1.75c.33,2.2.53,4.41.85,6.61.37,2.49.57,5.5,1.78,7.78.68,1.28,2.11,2.07,3.35.9,1.53-1.44,1.67-4.65,2-6.54h-2.89c.24,1.64.45,5.65,2.87,5.73,1.62,0,2.27-1.81,2.81-3a17.71,17.71,0,0,0,.79-1.59c-.12-.33-1.43-.06-1.44,0s.17.4.2.5a3.75,3.75,0,0,0,.54.82c.71,1,1.72,1.9,3,1.54,1.56-.42,2.14-2.37,2.53-3.72A74.08,74.08,0,0,0,1290.6,839c.44-3.84.81-8,2.14-11.64.36-1,.79-2.1,1.67-2.33,1.38-.37,3.15,2,3.56,3.23.33,1,0,2.67,0,3.73,0,2.23-.17,4.57.06,6.8.16,1.55,2.55,2.18,2.94.4a14,14,0,0,0,.09-3h-3c0,3.35,0,6.69,0,10a12,12,0,0,0,.09,2.81,1.51,1.51,0,0,0,2.89,0,7,7,0,0,0,.1-2.14c0-.44,0-.88,0-1.32s.18-1,0-.34l-2.75.36c-.5-.7-.12-.85-.17-.08,0,.59,0,1.2,0,1.8,0,2.66,0,5.32.11,8,.11,4.09.24,8.19.35,12.28,0,1.4-.41,4.22.66,5.41a1.53,1.53,0,0,0,1.82.23A1.69,1.69,0,0,0,1302,872c.09-.3.33-.72,0-.3l-1.3.75h0l-1.3-.74c-.33-.45-.06.23,0,.7.07,1.24.11,2.49.14,3.73a1.5,1.5,0,0,0,3,0c.06-3.5.12-7,.22-10.49,0-1,.06-2,.12-3a6.4,6.4,0,0,0,.06-1c-.07-.44.12.09-.35.51l-1.46.38c-.46-.12-.75-1-1-.87-.07,0,.08-.39,0,.12a7.59,7.59,0,0,0,.08,1.5c.09,1.9.13,3.81.18,5.72.18,7.92.27,15.84.37,23.76a1.5,1.5,0,0,0,3,0c0-.71,0-1.43.09-2.15.06-1.27.2.15-1,.54l-1.46-.39a.9.9,0,0,1-.35-.65,2.8,2.8,0,0,0,.06.81c.06.8.09,1.6.13,2.4.1,2.26.17,4.52.26,6.78s.16,4.41.27,6.62c.06,1.08-.09,2.64.4,3.65a1.53,1.53,0,0,0,2.71.2,3.52,3.52,0,0,0,.33-1.64c.26-2.85.11-5.73.3-8.58.45-6.45,1.23-12.94,1.86-19.37.3-3.09.68-6.12,1.26-9.16.16-.81.39-.26-.89-.28s-1.09-.45-.85.58a47.54,47.54,0,0,1,.79,6.07c.14,1.56,2.58,2.18,2.94.39.9-4.43,1.56-8.91,2.51-13.34.34-1.56,1.2-3.32,1.37-4.87a.77.77,0,0,1,.19-.37c0,.1-1.29-.14-1.32-.06a13.94,13.94,0,0,0,.76,2.29c.83,3.47.89,7.07,1.74,10.52a66.28,66.28,0,0,0,3.2,10.53c.7,1.64,1.7,4,3.62,4.47s3.44-1.28,4.23-2.89,1-3.38,1.92-4.88c.53-.92,1.23-1.74,1.79-2.65a35.75,35.75,0,0,0,3.75-9.92l-3-.4c.2,1.52.57,7.59,3.64,6,2-1,2.13-5.26,2.45-7.08.72-4.13,1.26-8.29,2-12.41a28.93,28.93,0,0,1,1-4.61,7,7,0,0,1,.37-.74c.09.3-.53-.15-.88.06,0,0,.13.13.15.17.18.37.43.71.61,1.08a27.37,27.37,0,0,1,1.09,2.71c.78,2.19,1.47,4.41,2.34,6.56.6,1.48,1.39,3.73,3.09,4.28,2,.65,3.15-1.37,3.74-3,1.76-4.72,2.12-10.14,2.67-15.1.27-2.4.33-4.56,1.59-6.69a14.58,14.58,0,0,1,3.72-4.5c2.58-1.87,5.2-.77,7.41,1.11a1.51,1.51,0,0,0,2.35-.31c.65-1.41,1.53-3.63,3.41-3.17,1.4.34,2.65,1.63,3.86,2.33,3.45,2,6.29.78,8.25-2.55l-1.69.69a10.24,10.24,0,0,0,6.74.11c2.95-.79,5.85-2.26,8.82-.73a1.53,1.53,0,0,0,2.26-1.3,13.07,13.07,0,0,1,.75-4.16,16.73,16.73,0,0,0,.9-1.91l-2.94-.4c.62,5.84,1.29,11.68,1.83,17.53.33,3.53,1.78,7,2.54,10.55.41,1.9.44,3.91.77,5.82.18,1.06.32,2.68,1.35,3.3,3.28,2,3.3-6,3.4-7.19h-3c.11,1.27.06,13.54,3.78,11.49a2.92,2.92,0,0,0,1.11-2.26,55.82,55.82,0,0,0,.6-6c.11-1.66.2-3.32.28-5a8.7,8.7,0,0,0,.11-1.9c-.27-1-2.42-.75-2.55.25a8.75,8.75,0,0,0,.49,2.84c.34,1,1.27,2,2.44,1.3s1.05-3.42,1.13-4.65h-3c.16,1.78,0,4.9,1.12,6.48a1.69,1.69,0,0,0,3-.2,5.27,5.27,0,0,0,.61-2.22,1,1,0,0,0,.08-.34c.07-.72-.64-.74-2.12-.05a4.61,4.61,0,0,1,.17.47,50,50,0,0,0,1,5.32c.72,4.12,1.41,8.29,2.38,12.36.44,1.82.47,5,2,6.35,1.86,1.66,3-.93,3.35-2.4l-2.94-.4c.52,5,.76,10.46,2.37,15.25.68,2,2.68,3.94,4.31,1.5l-2.74-.36c.26,1.82.48,7.27,3.41,7.18,1.94-.06,2.75-2.72,3.45-4.14h-2.59c1.29,2.25,3.4,1.63,4.51-.4,1.34-2.43,2-5.26,3-7.83a10,10,0,0,0,.68-1.55.8.8,0,0,1,.23-.39c-.14-.19-1.42.15-1.33,0-.16.37.65,2.3.74,2.78.4,2.14.63,4.31.85,6.48.19,1.88,3,2,3,0,0-9.5,0-19-.08-28.51a1.5,1.5,0,0,0-3,0c0,4.62.37,9.45-.06,14.07l1.5-1.5h0l1.5,1.5a5.67,5.67,0,0,1,0-.71,1.5,1.5,0,0,0-3,0c0,2.4.13,4.85,0,7.24h3c-.23-5.31.27-10.7-.12-16a1.5,1.5,0,0,0-3,0c-.08,1,0,2,0,3.05h3c0-8.87.24-17.78,0-26.65a1.5,1.5,0,0,0-3,0c-.25,4.7,0,9.49,0,14.19h3c0-.32,0-.65,0-1a1.5,1.5,0,0,0-3,0c0,1.07,0,2.14,0,3.21h3c0-5.81,0-11.63,0-17.45v-6.31a11.53,11.53,0,0,0,0-1.44c-.1-.64.31-.79-.21.17l-2.79-.76v.16a1.5,1.5,0,0,0,3,0c0-2.73,0-5.47,0-8.2h-3c0,5,0,10.06,0,15.09a1.5,1.5,0,0,0,3,0c0-2.69,0-5.38,0-8.07l-2.25,1.3h0l-.75-1.3c0,.71,0,1.41,0,2.12a1.5,1.5,0,0,0,3,0c0-.37,0-.74,0-1.12h-3c.17,5.64-.06,11.29,0,16.93a1.5,1.5,0,0,0,3,0c0-.58,0-1.17,0-1.75h-3v.15a1.5,1.5,0,0,0,3,0c.16-3.81-.13-7.64,0-11.45h-3a10.46,10.46,0,0,1,0,1.12,1.5,1.5,0,0,0,3,0c0-1.59,0-3.18,0-4.77,0-.63,0-1.25,0-1.88,0-.19.06-1.32,0-.69l-3-.39c.07,1.49-.15,3,0,4.52a1.5,1.5,0,0,0,3,0c.42-5.73-.28-11.53.08-17.26l-2.8.76h0a1.51,1.51,0,0,0,2.79-.76c0-.2,0-.41,0-.61l-3,.4c-.18-.69,0,0,0,.28,0,.46,0,.92,0,1.38l0,4.14a34.65,34.65,0,0,0,.1,5.94c.32,1.8,2.77,1.14,2.94-.4a12,12,0,0,0,0-1.34h-3c0,2.62-.15,5.31,0,7.92a1.5,1.5,0,0,0,3,0c.08-1.09,0-2.2,0-3.3l-2.56,1.06c-.86-1-.34-1.3-.43-.2-.08.93,0,1.91,0,2.85,0,3.9,0,7.81,0,11.71,0,2.68-.1,5.39,0,8.07a1.51,1.51,0,0,0,3,.4c.44-1.71.06-3.91.07-5.65s-.12-3.72,0-5.55h-3c0,.5,0,1,0,1.5a1.5,1.5,0,0,0,3,0c.09-4.43-.15-8.87,0-13.3h-3c.09,3.3,0,6.61,0,9.9a1.5,1.5,0,0,0,3,0,20,20,0,0,0,0-2.57c0-.23.09-1-.05-.17l-2.74.36c-.44-1,.05.09,0,0,.57,1.05,2.54.94,2.74-.36.46-3,.07-6.23.07-9.2h-3c0,2.32-.44,5.09.08,7.36.37,1.68,2.91,1.26,2.94-.4,0-3.18,0-6.36,0-9.55a43.28,43.28,0,0,1,0-5.22h-3c0,.08,0,.16,0,.24.14,1.55,2.64,2.2,2.94.4a3.56,3.56,0,0,0,.06-.72h-3c0,1.18,0,2.37,0,3.56a1.51,1.51,0,0,0,2.79.75c.61-.88.23-3,.23-3.9,0-3.42,0-6.84,0-10.26,0-2,0-4.07,0-6.1,0-.54,0-1.08,0-1.61,0-.24.11-1,0-.28l-3-.4c.09,1.4,0,2.83,0,4.24a1.5,1.5,0,0,0,3,0c0-.35,0-.71,0-1.06l-2.95.4c-.13-.84,0,.74,0,1,0,.45,0,.9,0,1.35a1.52,1.52,0,0,0,2.8.76,5.13,5.13,0,0,0,.22-2.37q0-4.17,0-8.32h-3a3.16,3.16,0,0,0,.06,1,1.51,1.51,0,0,0,3-.39c.08-1.22-.06-2.45,0-3.67l-2.79.76c-.38-.86-.16-.81-.2-.05s0,1.52,0,2.26q0,5.54,0,11.07a1.5,1.5,0,0,0,3,0l.06-12.31,0-3.93a8.31,8.31,0,0,0,0-1.22c0-.14.07-1,0-.29h-2.9c-.1-.67,0,.51,0,.69a1.5,1.5,0,0,0,3,0c0-2.47-.17-5,.08-7.49l-1.1,1.45h0l-1.9-1.45a46.55,46.55,0,0,1,.08,5.15,1.5,1.5,0,0,0,3,0c0-.62.3-1.19-.16-.12l-2.74-.36c-.13-.34,0-.2,0,.12a5.17,5.17,0,0,0,0,1c0,.94,0,1.88.07,2.82s-.33,3.56.85,4.08a1.52,1.52,0,0,0,2.2-.9,7.18,7.18,0,0,0,.11-1.39,5.2,5.2,0,0,0,0-1.52c-.13-.26.49-1-.18.41l-2.75-.36c-.19-.51,0,0,0,.31a13.82,13.82,0,0,0,0,1.7c0,1.61,0,3.22.07,4.82,0,2.15-.42,5,.2,7.08a1.52,1.52,0,0,0,2.5.67c.6-.51.48-1.57.49-2.27,0-2,0-4,.07-6h-3a13.52,13.52,0,0,0,.16,2.62,1.52,1.52,0,0,0,2.74.36,3.61,3.61,0,0,0,.27-1.79c.07-1.82.06-3.65.07-5.47,0-2.55,0-5.09.07-7.63,0-1.84.1-3.68.14-5.53.1-5.79,0-11.59.08-17.38,0-1.35,0-2.69,0-4a4.32,4.32,0,0,0,0-.88c-.17-.68.8-.47-.42.65l-2.35-.31c-.55-1.23-.17,0-.15.68s0,1.21,0,1.81a1.5,1.5,0,0,0,3,0c0-3.21,0-6.43.06-9.65,0-.7,0-1.4,0-2.09,0-.32.2-1.11,0-.42l-2.74.36c-.45-.94-.18-.41-.16.32s0,1.33,0,2c0,1.35,0,2.7.07,4a1.5,1.5,0,0,0,3,0c0-.28.13-1.72,0-.94l-2.51.66c-1.34-1.21-.22-1.25-.41-.64a3,3,0,0,0,0,.85c0,.74,0,1.49,0,2.23,0,1-.23,2.51.27,3.4a1.51,1.51,0,0,0,2.74-.36,10.38,10.38,0,0,0,.1-2.3c0-2.56,0-5.11.05-7.66h-3a4.66,4.66,0,0,1,.12.81c0,.33,0-.38,0,.2.22,2.82.12,5.7.15,8.53a1.5,1.5,0,0,0,3,0c0-1.31.31-.37-.69.39l-2.21-.9c-.18-.55,0,.21,0,.51a4.92,4.92,0,0,0,.11,1.09,1.52,1.52,0,0,0,1.44,1.1h0a1.52,1.52,0,0,0,1.45-1.1c.59-2.34.15-5.28.17-7.65s0-4.57.09-6.85c0-.63.07-1.27.06-1.91s.35-1-.14-.16h-2.59c-.46-.83-.09-.63-.14-.14a9.21,9.21,0,0,0,0,1.05,1.5,1.5,0,0,0,3,0c0-1.74,0-3.48.11-5.21a7.19,7.19,0,0,0,.11-2.11c.23.59-2.51,1.68-2.44.74,0-.38-.52-.33.07.07a1.59,1.59,0,0,0,1.84.24c.91-.52.85-1.69.9-2.6.08-1.31.11-2.61.23-3.91.09-1,.17-1.92.32-2.87,0-.29.1-.57.16-.85.21-.57,0-.5-.65.2l-1.46-.38c-.32-.25-.06.06,0,.49l.38-1.46a11.76,11.76,0,0,1-10.11,2.33c-2.57-.48-5-.84-7.38.54-4.18,2.42-6.09,7.86-7.59,12.13l2.21-.89c-4.27-2.86-7.16,8.15-8.29,10.32l2.75.36c-.3-1.75-.53-5.8-2.76-6.43-2-.56-2.81,1.83-3.26,3.26l2.51-.66c-4.32-4.41-5.54,9.76-5.69,11l2.94-.4c-1-3.44-2.43-9.41-6.27-10.9-4.47-1.73-7.52,4.63-9,7.66l2.74.36c-1.36-4-3.33-10.37-8-11.85-2.62-.83-5.78.48-7.77,2.2s-2.78,5-3.56,7.4c-1.23,3.7-2.24,7.47-3.51,11.16a23.51,23.51,0,0,1-1.7,4.12c-.18.33-.58.7-.72,1s.33-.27.46,0a11.74,11.74,0,0,1-.71-1.47,36.25,36.25,0,0,0-.87-3.74c-.42-1.1-1.13-2.29-2.45-2.28a3.24,3.24,0,0,0-2.43,1.76c-.33.49-1.76,2.09-.56,1.81.83-.2.2.34.22-.37a5,5,0,0,0-.91-2,1.74,1.74,0,0,0-2.5.1c-1.19,1.21-1.32,3.79-1.59,5.34-.48,2.77-.85,5.55-1.29,8.33-.2,1.26-.41,2.52-.67,3.78-.11.5-.54,2-.55,2s2.16-.24,2,.19c.08-.21-.28-1-.34-1.28a48.36,48.36,0,0,1-.64-5.24c-.37-4.21-1.18-10.34-4.29-13.6a5.85,5.85,0,0,0-2.61-1.6c-1-.29.2.21-.64-.31a3.3,3.3,0,0,0-1.08-.49c-2.58-.54-3.78,2.6-4.42,4.5-1.85,5.53-2.18,11.44-3.14,17.15a23.31,23.31,0,0,1-.56,2.61,7.85,7.85,0,0,0-.53,1.35c0-.14.88-.13.08-.22-2.11-.22-3.05,1.12-3.64,3-1.72,5.47-1.26,11.43-2.52,17a9.86,9.86,0,0,0-.39,1.46s-.14.28-.13.34l-.06.1c-.33.52.17.51,1.52,0a12.88,12.88,0,0,0-.63-1.66,67,67,0,0,1-1.51-7.3c-.54-3.17-1-6.35-1.51-9.53-.25-1.58-2.47-1.26-2.9,0-.64,1.89-2.21,7.73-5.27,6.7-2-.68-3.68-2.83-5.28-4.16-1-.87-3-.09-2.51,1.46a4,4,0,0,0,.81,1.58,1.48,1.48,0,0,0,1.46.39c1.15-.43,1.31-1.37,1.47-2.49l-2.74.36c-.31-.7.07.31.27.5a1.57,1.57,0,0,0,2.54-.14c.65-1,.44-2.84.49-3.92.2-4.86.23-9.73.3-14.58,0-2.11,0-4.21.1-6.32a7.62,7.62,0,0,0,0-1.35c-.12-.74.26-.22-.38.47h-2.12c-.6-.61-.4-1.24-.36-.12,0,.65,0,1.29.07,1.94,0,1.76.08,3.53.12,5.29s.08,3.3.13,5c0,.79-.14,2.32.56,2.89a1.53,1.53,0,0,0,2.35-.3c.43-.57.28-1.82.3-2.48.07-2.63.07-5.26.1-7.89,0-1.84,0-3.68.08-5.52a8.2,8.2,0,0,0,0-1.31c-.15-1,.51.61-1,.86l-1.7-.69c-.17-.24-.08-.76-.15-.38a3.24,3.24,0,0,0,0,.69c0,.65.05,1.31.08,2,0,.85-.19,2.82.58,3.41a1.56,1.56,0,0,0,2.12,0c.92-.77.55-3.41.57-4.4.08-5,.1-10.1.13-15.15l-2.79.76v0a1.53,1.53,0,0,0,2.36.3c.63-.58.53-1.7.58-2.48.09-1.64.13-3.29.19-4.93s.11-3.53.18-5.3c0-.72.1-2.51.15-2.63l-1.45,1.1h0l-1.44-1.1c-.11-.27.09-.06,0,.49a10,10,0,0,0,.06,1.64,5.28,5.28,0,0,0,.16,1.49,1.55,1.55,0,0,0,1.44,1.1h0a1.59,1.59,0,0,0,1.45-1.1c.54-1.31.26-3.38.32-4.76,0-1.07.08-2.15.13-3.22,0-.42.09-.86.08-1.28s.21-.54-.11,0l-2.35.31c-.11-.09-.77-1.52-.35-.4a1.51,1.51,0,0,0,2.89,0c.42-1.24.13-3,.16-4.3,0-1,0-2,0-2.93a6.49,6.49,0,0,0,0-1.08c0-.18.12-.93,0-.23l-2.2.89c-1.93-.91-.47-1.68-.71-.79a3.05,3.05,0,0,0,0,.74c0,1.1,0,2.19,0,3.28a1.5,1.5,0,0,0,3,0c0-2.27,0-4.54,0-6.82,0-.52,0-1,0-1.57,0-.24.11-1,0-.22l-2.2.89c-2.27-1.24-.51-1.71-.73-1a2.51,2.51,0,0,0,0,.67c0,.76,0,1.52,0,2.28,0,2.1,0,4.2.05,6.31s0,4,0,6.07a8.75,8.75,0,0,0,.24,3.31,1.51,1.51,0,0,0,2.74-.36,14.41,14.41,0,0,0,.09-3.15c0-4.77,0-9.54.06-14.31,0-3.48,0-7,.06-10.45,0-.76.08-1.55,0-2.32-.09-1.49.54-.26-.7.38l-2.21-.89c-.18-.54,0-.22,0,.11a6.2,6.2,0,0,0,0,1.14c0,1.06,0,2.12,0,3.18a22.26,22.26,0,0,0,.11,4.83,1.52,1.52,0,0,0,2.9,0,7.26,7.26,0,0,0,.07-1.68h-3c0,4.8,0,9.59,0,14.39a1.52,1.52,0,0,0,2.8.76c.42-.62.2-1.94.2-2.63,0-1.71,0-3.42,0-5.13,0-3.94,0-7.89,0-11.84a9.55,9.55,0,0,0-.09-3c-.42-1-2.17-1.69-2.74-.36a7.3,7.3,0,0,0-.25,2.76c0,2.55,0,5.11,0,7.66h3c-.07-5.62-.14-11.24-.25-16.87,0-2-.08-4-.17-6a6.12,6.12,0,0,0-.39-2.79,1.53,1.53,0,0,0-2.05-.54c-1.72,1-1,6-1,7.52q0,5.58-.07,11.14c0,2.48,0,4.95-.06,7.43,0,.67-.05,1.34,0,2s-.34,1.21.17.22h2.59c.55.79.09.87.17.32a4.39,4.39,0,0,0,0-.81c0-1,0-2,0-3.08q-.06-6.3-.08-12.6c0-6.22,0-12.44-.13-18.66,0-1.83-.06-3.66-.13-5.49a6.17,6.17,0,0,0-.31-2.57,1.51,1.51,0,0,0-2.36-.31,4.2,4.2,0,0,0-.54,2.66c-.09,2.68-.1,5.36-.14,8h3c0-2.81-.06-5.62-.17-8.43a6.1,6.1,0,0,0-.36-2.72,1.56,1.56,0,0,0-1.7-.69c-1.46.52-1.24,2.41-1.31,3.66-.16,2.87-.39,5.68-.76,8.53h3c0-2-.07-4-.25-6-.06-.67,0-1.64-.62-2.11a1.56,1.56,0,0,0-2.12,0c-1.24,1-.85,4.56-1,6-.4,4-.47,8-.57,12h3c0-.84.12-2.27-.83-2.7a1.54,1.54,0,0,0-2,.54c-.5.82-.3,2.32-.33,3.23q-.07,3-.13,5.94c0,2.07-.08,4.13-.14,6.2,0,.75,0,1.49-.06,2.24,0,1.09-.3.84.35,0l1.82-.24c.88.65.7,1.63.67.4,0-.73,0-1.47,0-2.2-.06-3.19-.09-6.38-.12-9.57a1.5,1.5,0,0,0-3,0c0,1.95,0,3.89-.1,5.84a7.53,7.53,0,0,0,0,1.42c.06.3-.19.75,0,.28l1.44-1.11h0l1.3.74c.37.86.14.16.11-.4,0-.74,0-1.49-.07-2.24-.07-2.42-.11-4.85-.16-7.28-.11-6-.19-12-.3-18.06-.14-7.21-.47-14.42-.79-21.63,0-1.11.55-9.94-2.65-8.62-1.28.53-1.13,2.44-1.2,3.57-.24,3.89-.29,7.79-.38,11.69h3c-.1-3.56-.15-7.14-.47-10.69-.1-1.12,0-2.91-1.42-3.29-3-.83-2.56,6.78-2.65,8.19-.35,5.51-.62,11-.87,16.53-.12,2.5-.24,5-.38,7.49A44.79,44.79,0,0,0,1309,697c0-.1-.11.36-.09.43.37,1.13,2.47.77,2.65-.17a12.8,12.8,0,0,0-.19-2.22c-.26-4.16-.34-8.34-.44-12.5a1.5,1.5,0,0,0-3,0,28.18,28.18,0,0,0-.24,3.95c.14,1,1.87,2.37,2.64.3.08-.23-.11-.52-.11-.67,0-2.62-.39-5.3-.54-7.92-.17-2.93-.3-5.86-.53-8.78-.12-1.47.11-4.32-1.93-4.49a1.53,1.53,0,0,0-1.5,1.5c-.2,4.55-.38,9.12-.86,13.65a14.55,14.55,0,0,0-.42,2.74s-.1.23-.08.28c-.25-.7,2.43-.59,2.23-.3.08-.11,0,.54.1.12,0-.12-.12-.38-.13-.5-.63-6.32-1.12-12.67-1.73-19-.13-1.36,0-4.4-1.78-4.89s-2.19,1.31-2.48,2.51-1,3.06-.9,4.22c.07.7-.3,0,.07.09,0,0,2.32.14,2.14.34,0,0-.12-.36-.11-.44a12.7,12.7,0,0,0-.71-2.39c-.71-3.33-1-6.75-1.56-10.11-.23-1.41-.43-5.86-2.73-5.66l1.5,1.5c-.14-1.72,0-4.51-1-6a1.75,1.75,0,0,0-3.09.16,7.62,7.62,0,0,0-.54,1.24s-.15,0-.11.24c0,0-.13.19-.12.21-.25-.29,2.17,0,2.16,0,.16-.1-.13.27,0-.08,0-.1-.13-.41-.12-.51a9.59,9.59,0,0,0-.21-1.41c-.23-2-.34-3.93-.45-5.9-.1-1.59-2.61-2.15-3-.4a3.15,3.15,0,0,0-.14.57c-.11-.89,2.75-.86,2.53,0,.06-.21-.2-.82-.24-1-.2-1.1-.3-2.23-.41-3.34-.33-3.14-.57-6.28-.89-9.42-.18-1.76,0-4.63-1-6.18a1.62,1.62,0,0,0-2.56-.39c-.68.66-.7,1.91-.81,2.77h3c-.18-4.29,0-9-.94-13.18-.41-1.82-2.34-3-3.4-.87-.74,1.47-.75,3.51-1,5.1-.14,1-.28,2-.46,3a7.3,7.3,0,0,0-.23,1.11c0,.11-.15.31-.12.4a1.14,1.14,0,0,1,1.16-.69,1.51,1.51,0,0,0-1.45,1.1c-.12.59-.31,1.16-.43,1.74,0-.17-.15.42-.15.41.12.57-.19-.25.15-.05s1.27,0,1.25.08-.13-.16-.14-.27a5,5,0,0,0-.37-.9c-.72-2-1.15-4.09-1.72-6.13-.41-1.51-.78-3.44-1.82-4.67s-2.86-.94-3.59.62l2.75.36c-.88-5.4-1.72-11.55-5-16.12s-6.84-8.56-8.94-13.8a1.51,1.51,0,0,0-3,.4c-.5,6.16-.89,12.46-2.25,18.51-.26,1.16-.72,2.18-1.08,3.28-.09.28.62-.21.7,0a24,24,0,0,0-2.07-3.07c-.8-1.19-2-2.59-3.58-2.1-1.84.55-2.36,3.38-2.86,4.93-1.3,4-2.23,8.14-3.46,12.19l1.85-1a3.22,3.22,0,0,0-2.66.47c-.77.48-1.72,2-2.63,2.05l1.3.74a1.74,1.74,0,0,0-2.5-.9c-1,.61-1.2,2.16-1.41,3.18-.69,3.34-1.14,6.76-1.63,10.14-.24,1.66-.93,3.79-.84,5.45,0,.09,0,.36-.06.25-.19-.66,2.25.88,2.42,0a6.52,6.52,0,0,0-.22-1.37c-.27-2.25-.33-4.55-.44-6.81a1.5,1.5,0,0,0-3,0c-.28,10.33-1.19,20.6-1.63,30.92h3c-.15-1.88-.29-3.77-.53-5.64-.12-1-.14-2.38-1.11-2.93-3.46-2-2.94,7.88-3,8.85h3c-.27-2.29-.66-4.56-.87-6.86-.53-5.85-.22-11.83-1.06-17.63-.2-1.38-.41-4.29-2.42-4.26-1.79,0-2.14,2.49-2.41,3.8-1.17,5.74-1.69,11.63-2.59,17.42-.19,1.25-.37,2.51-.68,3.73a8.62,8.62,0,0,0-.28,1s2.1.06,2.11.05-.14-.38-.13-.5a9.74,9.74,0,0,0-.34-2.15c-.12-1-.14-2-.31-3a2.47,2.47,0,0,0-1-1.9,1.55,1.55,0,0,0-1.52,0c-1.73.85-1.39,5.39-1.51,6.88-.35,4.53-.6,9.08-.92,13.62-.1,1.43-.21,2.85-.35,4.28,0,.35-.51,2.05-.33,2.36a7.43,7.43,0,0,0,2.58,0c0-.08-.11-.34-.09-.45a8.17,8.17,0,0,0-.17-1.7c-.18-2.35-.27-4.7-.36-7.06a1.5,1.5,0,0,0-3,0c-.21,5-.43,9.94-.81,14.9-.11,1.4-.21,2.81-.41,4.2a5.75,5.75,0,0,0-.2,1.07c0,.11-.14.31-.11.41-.2-.78,2.71-.83,2.43-.12,0-.11-.28-1.47-.33-1.93-.19-1.5-.3-3-.41-4.54-.38-5.34-.61-10.7-.83-16.06a1.5,1.5,0,0,0-3,0,4.27,4.27,0,0,0-.19,1c-.11-.48,2.2.17,2.35-.24,0-.14,0,.31,0-.08a7,7,0,0,0-.47-1.65c-.58-1.75-2.61-2.86-3.51-.61a11.88,11.88,0,0,0-.51,3.19c-.26,2.68-.37,5.37-.49,8a40.65,40.65,0,0,0-.36,5.45c.1.84-.77.4,1.09.17.27,0,1.53-.18,1.37.25,0-.09-.08-.27-.08-.37,0-1.75-.49-3.67-.69-5.45a22.06,22.06,0,0,0-.75-5.2c-.84-2.24-3-1.31-3.37.61-.87,4.22-.64,8.83-1,13.1a106,106,0,0,1-2,15c-.15.67-.39.09.3.13a5.08,5.08,0,0,1,.83.08c.23-.18-.07.4,0-.14,0-.32-.5-1.2-.61-1.55-1.23-3.84-1.92-7.87-2.82-11.79-.31-1.38-2.66-1.49-2.89,0-1,6.62-1.73,13.59-3.84,20-.07.22-.81,1.86-.82,1.84s1.27-.27,1.11,0a7.86,7.86,0,0,0-.43-.9c-1.56-3.89-1.79-8.62-2.27-12.72a1.52,1.52,0,0,0-2.8-.76c-1.47,2.53-3.15.12-5.14-.6-2.51-.9-4.39.29-5.84,2.33l2.8.76c-.16-1.3-1.32-12.27-5-7.87-2,2.49-2.1,6.81-3.14,9.77-.13.36-.42,1.23-.47,1.13-.47-.89,2.53,1,1.1-.61a2.79,2.79,0,0,0-1.22-.74,3.62,3.62,0,0,0-1.82,0c-.49.11-.83.07-.6.23-.86-.59-1.07-3-1.25-3.91-.26-1.32-.27-3-1.1-4.12-1-1.46-2.68-1-3.51.37a23.3,23.3,0,0,0-1.75,5.06,16.54,16.54,0,0,1-.59,1.59h1.66l.08.09s-.15-.36-.15-.47a19.56,19.56,0,0,0-.44-2.36c-.26-1.75-2.87-1.21-3,.4-.29,5.85-.25,12-1.34,17.77,0,.28-.25,1.11-.26,1.1s2.41-.3,2.3-.08c0-.09-.14-.55-.17-.69-.32-1.69-.46-3.42-.61-5.13-.56-6.59-.85-13.2-1.13-19.8-.08-1.73.26-4.17-.28-5.81-.23-.68-.47-.66-.73-1.2a20.07,20.07,0,0,1-1.24-4.46c-.76-3.45-1.17-7-2.22-10.42-.29-.92-.63-2.09-1.61-2.48-1.27-.51-2.14.46-2.54,1.54a13.94,13.94,0,0,0-.89,5.35.82.82,0,0,1-.1.42c-.12-.18,2.28-.09,2.19,0a2.6,2.6,0,0,1-.21-.75c-.59-2.76-.83-5.59-1.16-8.38-.27-2.34-.09-5.92-1.34-8a1.66,1.66,0,0,0-2.9-.15c-.68,1-.63,2.68-.74,3.81l2.94-.4c-.55-1.57-2-3.23-3.68-1.67-1.24,1.18-1.57,3.55-1.93,5.12-1.29,5.63-1.93,11.4-3.39,17a15.31,15.31,0,0,0-.89,2.54c-.12-.38,1.67-.15,1.58,0,0,0-.36-1-.42-1.21a1.52,1.52,0,0,0-2.74-.36c-1.34,2.26-2.11,4.89-3.63,7a4.41,4.41,0,0,1-.62.75c.48-.43.44.53.08-.53a48.8,48.8,0,0,1-1.83-7c-.32-1.77-2.81-1.18-2.94.4-.29,3.4-.57,6.82-1.13,10.19-.08.5-1.16,3.72-1,4,0-.1.44-.31.46-.3,1.22.36.84.17.87.09a2.93,2.93,0,0,1-.35-.73c-.39-.93-.72-2-1-3-.59-1.92-1-4.29-2.2-5.95-1.58-2.2-3.56-.82-4.29,1.24l1.85-1.05c-8-1.13-9.53,11.51-10.58,16.82l1.44-1.1a3.56,3.56,0,0,0-2.51,1.24l-.74.68c-.21.2-.2,0,0,.1s.35.21.21-.07a9.34,9.34,0,0,1-.75-1.93,62.59,62.59,0,0,1-1.69-10c-1.37-11.84-1.67-23.79-3.44-35.59-.38-2.58-.73-9.87-4.2-10.65-3-.67-4.51,4.22-5.39,6.19l2.74.35c-.26-1.76-.56-6.11-3.17-6.13-2,0-2.83,2.63-3.41,4.09-.89,2.23-1.54,4.58-2.63,6.73-.19.38-.52.77-.67,1.16-.06.13-.4.25.17.08s.38.49.22-.2-.47-1.13-.64-1.69a11.83,11.83,0,0,0-1.9-4.17,33.82,33.82,0,0,0-3.56-4.28c-1.5-1.49-3.48-3.29-5.73-3.32a1.53,1.53,0,0,0-1.5,1.5c-.19,3.23-.38,6.48-.69,9.7a14.89,14.89,0,0,0-.29,2.37c0,.19,0,.55-.07.4-.28-.84,2.84-.67,2.58.12,0-.07-.08-.2-.07-.28a9.61,9.61,0,0,0-.21-2c-.1-1.39-.17-2.79-.23-4.18-.21-4.74-.32-9.48-.42-14.22a1.5,1.5,0,0,0-3,0,5.57,5.57,0,0,0-.1,1.28c0,.12-.11,0,0,0l0,.09c-.15.5.18.19,1-.93l1.46.39c1.35,1.15.19.65.3.42,0,.06.07-.48,0-.08a5.09,5.09,0,0,0-.1-1.09c-.08-1-.13-1.89-.19-2.84-.13-2.24-.23-4.48-.4-6.72-.1-1.25,0-3.65-1.81-3.67-2.1,0-1.78,3.5-1.85,4.81h3c-.06-1.58.37-4.89-.74-6.25-1.65-2-2.8.67-3,2-.24,1.75-.37,3.51-.6,5.26a6.43,6.43,0,0,0-.29,1.71c.09.37,0-.1,0,0a15.37,15.37,0,0,0,2.35,0c.08-.07-.06.35,0,0,0-.13-.08-.38-.09-.51-.64-5.17-.79-10.43-1.12-15.63-.07-1.17.13-3.11-.52-4.16a1.52,1.52,0,0,0-2.72.19,6,6,0,0,0-.28,2.19c-.32,5.76-.19,11.55-.35,17.31-.11,3.92-.85,5.93-1,9.92l2.94-.4a2,2,0,0,0-.2-.51,1.51,1.51,0,0,0-1.69-.69c-2.05.67-1.44,5.42-1.51,7-.2,4.26-.28,7.81-.31,12.25,0,4.11,0,8.21-.1,12.32,0,.9,0,1.8,0,2.7,0,.36-.22,1.32,0,.67l1.84-1.05h0l1,1.05c.22.67,0-.3,0-.63,0-.77,0-1.54,0-2.31,0-2.19-.06-4.37-.08-6.56,0-2.52,0-5-.06-7.57,0-.91.38-3.37-.47-4.08s-2.31-.56-2.51.66c-.55,3.42-.11,7.24-.12,10.7s.12,7.06,0,10.58l3-.4c.24.78,0-.3,0-.65V662a1.5,1.5,0,0,0-3,0c0,1.85,0,3.7,0,5.56a6.06,6.06,0,0,0,0,1.7,1.51,1.51,0,0,0,3-.39c0-.77,0-1.54,0-2.31,0-.51,0-1,0-1.52,0-.33.18-1.21,0-.48h-2.89c-.16-.73,0-.14,0,.09a8.32,8.32,0,0,0,0,1.32c0,2,0,4,0,6l1.1-1.45c-.91.13-3.68-4.59-4.57-5.33-2.29-1.88-4.44-.58-5.63,1.78l2.74.36c-.81-2.57-2-6.47-5.1-7-1.57-.27-3.71,1.32-4.79.9-.63-.25-1.2-1-1.85-1.3a12.3,12.3,0,0,0-2.14-.74,6.46,6.46,0,0,1-2.61-1.11c-1.33-1.15-1.2-2.83-1.32-4.44-.33-4.29-.69-8.59-1.23-12.86a48.68,48.68,0,0,0-1.21-7c-.29-1-.67-2.36-1.68-2.92-2.65-1.46-3.7,2.87-4.12,4.54-1.26,5-1.9,10.28-2.65,15.42l1.84-1c-1.73-.38-4-14.41-8.29-8.91a6.13,6.13,0,0,0-.87,1.8,4.31,4.31,0,0,0-.4,1.34c0,.06.6.07.56-.06-.4-1.18-1.43-2.49-2-3.66-.84-1.81-2.5-5.88-5.2-4.22l2.21.9c-.67-2.38-1.46-5.45-3.66-6.91-1.06-.69-2.57-.58-3.47-1.46a1.52,1.52,0,0,0-2.56,1.06c-.21,1.73-.36,4.94-1.54,5.91a5.63,5.63,0,0,0-2.22,3h2.89c-.27-1.49-1-4.85-3.32-3.57-1.77,1-2,4.66-2.37,6.36-.79,3.85-1.49,7.71-2.35,11.53a38.82,38.82,0,0,1-1.45,5.3c-.25.66-1.07,1.49-.21,1.48s0-1.14-.25-1.87a1.5,1.5,0,0,0-2.94.39c-1,7.92-1.51,15.9-2.76,23.78-.19,1.17-.57,2.35-.7,3.52a4.49,4.49,0,0,1-.26.69c.25.26,2.14-.26,2,0,0-.09-.18-.49-.18-.59-.09-1.49-.54-3-.7-4.55-.33-3.16-.55-6.33-.75-9.5a1.5,1.5,0,0,0-3,0c-.39,4.49-.8,9-1.45,13.45a37.43,37.43,0,0,1-1.45,7c-.09.24-.56,1.26-.57,1.25-.12-.28,1-.07,1,0a15.59,15.59,0,0,1-1.32-2.52c-.46-1.21-2.65-1.62-2.9,0-.45,3-.93,6-1.53,8.9-.37,1.79-1,3.53-1.4,5.3,0,.11-.33.54-.3.6-.07-.16,1.25-.06,1.19.07,0,0-.52-1.36-.57-1.53a62.44,62.44,0,0,1-1.65-10.18,1.5,1.5,0,0,0-3,0,80,80,0,0,1-1,8.32c-.12.58-.34,1.18-.43,1.76-.11.74-.39.16,1,.07.51,0,.5.66.22-.07-.15-.38-.22-.45-.35-.75-.35-.86-.63-1.74-1-2.6-.57-1.45-1.63-4-3.68-3-2.25,1.16-2.21,6-2.46,8l2.94-.4c-.61-2-2.55-3.58-4.09-1.34-1.29,1.89-1.61,4.77-2.1,6.94a52.37,52.37,0,0,1-2,8,6.1,6.1,0,0,0-.44.89c-.08-.21.7-.4.8-.39,1.53.17.62.61.74.21a7.57,7.57,0,0,0-.42-1.37c-.25-1-.41-2.07-.56-3.11C966.13,713.18,963.24,714,963.52,715.88Z"/></g></g></svg>