<?xml version="1.0" encoding="UTF-8"?><svg id="Lager_2" xmlns="http://www.w3.org/2000/svg" viewBox="0 0 500.39 415.99"><defs><style>.cls-1{fill:red;}</style></defs><g id="Lager_1-2"><path class="cls-1" d="M0,3.01H3.01v6.03H0V3.01Zm0,30.14v-6.03H3.01v6.03H0Zm0,12.06H3.01v6.03H0v-6.03Zm0,30.14v-6.03H3.01v6.03H0Zm0,12.06H3.01v6.03H0v-6.03Zm0,30.14v-6.03H3.01v6.03H0Zm0,12.06H3.01v6.03H0v-6.03Zm0,30.14v-6.03H3.01v6.03H0Zm0,12.06H3.01v6.03H0v-6.03Zm0,30.14v-6.03H3.01v6.03H0Zm0,12.06H3.01v6.03H0v-6.03Zm0,30.14v-6.03H3.01v6.03H0Zm0,12.06H3.01v6.03H0v-6.03Zm0,30.14v-6.03H3.01v6.03H0Zm0,12.06H3.01v6.03H0v-6.03Zm0,30.14v-6.03H3.01v6.03H0Zm0,12.06H3.01v6.03H0v-6.03Zm0,30.14v-6.03H3.01v6.03H0Zm0,12.06H3.01v6.03H0v-6.03Zm0,30.14v-6.03H3.01v6.03H0ZM3.01,0h6.03V3.01H3.01V0ZM21.1,9.04v3.01H3.01v-3.01H21.1ZM3.01,24.12h3.01v3.01H3.01v-3.01Zm6.03,12.06H3.01v-3.01h6.03v3.01Zm-6.03,6.03h6.03v3.01H3.01v-3.01Zm18.09,9.04v3.01H3.01v-3.01H21.1ZM3.01,66.32h3.01v3.01H3.01v-3.01Zm6.03,12.06H3.01v-3.01h6.03v3.01Zm-6.03,6.03h6.03v3.01H3.01v-3.01Zm18.09,9.04v3.01H3.01v-3.01H21.1ZM3.01,108.52h3.01v3.01H3.01v-3.01Zm6.03,12.06H3.01v-3.01h6.03v3.01Zm-6.03,6.03h6.03v3.01H3.01v-3.01Zm18.09,9.04v3.01H3.01v-3.01H21.1Zm-18.09,15.07h3.01v3.01H3.01v-3.01Zm6.03,12.06H3.01v-3.01h6.03v3.01Zm-6.03,6.03h6.03v3.01H3.01v-3.01Zm18.09,9.04v3.01H3.01v-3.01H21.1Zm-18.09,15.07h3.01v3.01H3.01v-3.01Zm6.03,12.06H3.01v-3.01h6.03v3.01Zm-6.03,6.03h6.03v3.01H3.01v-3.01Zm18.09,9.04v3.01H3.01v-3.01H21.1Zm-18.09,15.07h3.01v3.01H3.01v-3.01Zm6.03,12.06H3.01v-3.01h6.03v3.01Zm-6.03,6.03h6.03v3.01H3.01v-3.01Zm18.09,9.04v3.01H3.01v-3.01H21.1Zm-18.09,15.07h3.01v3.01H3.01v-3.01Zm6.03,12.06H3.01v-3.01h6.03v3.01Zm-6.03,6.03h6.03v3.01H3.01v-3.01Zm18.09,9.04v3.01H3.01v-3.01H21.1Zm-18.09,15.07h3.01v3.01H3.01v-3.01Zm6.03,12.06H3.01v-3.01h6.03v3.01Zm-6.03,6.03h6.03v3.01H3.01v-3.01Zm18.09,9.04v3.01H3.01v-3.01H21.1Zm-18.09,15.07h3.01v3.01H3.01v-3.01Zm6.03,12.06H3.01v-3.01h6.03v3.01Zm-6.03,6.03h6.03v3.01H3.01v-3.01Zm18.09,9.04v3.01H3.01v-3.01H21.1Zm-18.09,15.07h3.01v3.01H3.01v-3.01Zm6.03,12.06H3.01v-3.01h6.03v3.01ZM12.06,3.01v3.01h-3.01V3.01h3.01Zm0,30.14h-3.01V15.07h3.01v18.09Zm0,12.06v3.01h-3.01v-3.01h3.01Zm0,30.14h-3.01v-18.09h3.01v18.09Zm0,12.06v3.01h-3.01v-3.01h3.01Zm0,30.14h-3.01v-18.09h3.01v18.09Zm0,12.06v3.01h-3.01v-3.01h3.01Zm0,30.14h-3.01v-18.09h3.01v18.09Zm0,12.06v3.01h-3.01v-3.01h3.01Zm0,30.14h-3.01v-18.09h3.01v18.09Zm0,12.06v3.01h-3.01v-3.01h3.01Zm0,30.14h-3.01v-18.09h3.01v18.09Zm0,12.06v3.01h-3.01v-3.01h3.01Zm0,30.14h-3.01v-18.09h3.01v18.09Zm0,12.06v3.01h-3.01v-3.01h3.01Zm0,30.14h-3.01v-18.09h3.01v18.09Zm0,12.06v3.01h-3.01v-3.01h3.01Zm0,30.14h-3.01v-18.09h3.01v18.09Zm0,12.06v3.01h-3.01v-3.01h3.01Zm0,30.14h-3.01v-18.09h3.01v18.09ZM15.07,27.13v-3.01h18.09v3.01H15.07Zm0,42.2v-3.01h18.09v3.01H15.07Zm0,42.2v-3.01h18.09v3.01H15.07Zm0,42.2v-3.01h18.09v3.01H15.07Zm0,42.2v-3.01h18.09v3.01H15.07Zm0,42.2v-3.01h18.09v3.01H15.07Zm0,42.2v-3.01h18.09v3.01H15.07Zm0,42.2v-3.01h18.09v3.01H15.07Zm0,42.2v-3.01h18.09v3.01H15.07Zm0,42.2v-3.01h18.09v3.01H15.07ZM27.13,21.1h-3.01V3.01h3.01V21.1Zm-3.01,12.06v-3.01h3.01v3.01h-3.01Zm3.01,30.14h-3.01v-18.09h3.01v18.09Zm-3.01,12.06v-3.01h3.01v3.01h-3.01Zm3.01,30.14h-3.01v-18.09h3.01v18.09Zm-3.01,12.06v-3.01h3.01v3.01h-3.01Zm3.01,30.14h-3.01v-18.09h3.01v18.09Zm-3.01,12.06v-3.01h3.01v3.01h-3.01Zm3.01,30.14h-3.01v-18.09h3.01v18.09Zm-3.01,12.06v-3.01h3.01v3.01h-3.01Zm3.01,30.14h-3.01v-18.09h3.01v18.09Zm-3.01,12.06v-3.01h3.01v3.01h-3.01Zm3.01,30.14h-3.01v-18.09h3.01v18.09Zm-3.01,12.06v-3.01h3.01v3.01h-3.01Zm3.01,30.14h-3.01v-18.09h3.01v18.09Zm-3.01,12.06v-3.01h3.01v3.01h-3.01Zm3.01,30.14h-3.01v-18.09h3.01v18.09Zm-3.01,12.06v-3.01h3.01v3.01h-3.01Zm3.01,30.14h-3.01v-18.09h3.01v18.09Zm-3.01,12.06v-3.01h3.01v3.01h-3.01ZM27.13,3.01V0h6.03V3.01h-6.03Zm6.03,33.16h-6.03v-3.01h6.03v3.01Zm-6.03,9.04v-3.01h6.03v3.01h-6.03Zm6.03,33.16h-6.03v-3.01h6.03v3.01Zm-6.03,9.04v-3.01h6.03v3.01h-6.03Zm6.03,33.16h-6.03v-3.01h6.03v3.01Zm-6.03,9.04v-3.01h6.03v3.01h-6.03Zm6.03,33.16h-6.03v-3.01h6.03v3.01Zm-6.03,9.04v-3.01h6.03v3.01h-6.03Zm6.03,33.16h-6.03v-3.01h6.03v3.01Zm-6.03,9.04v-3.01h6.03v3.01h-6.03Zm6.03,33.16h-6.03v-3.01h6.03v3.01Zm-6.03,9.04v-3.01h6.03v3.01h-6.03Zm6.03,33.16h-6.03v-3.01h6.03v3.01Zm-6.03,9.04v-3.01h6.03v3.01h-6.03Zm6.03,33.16h-6.03v-3.01h6.03v3.01Zm-6.03,9.04v-3.01h6.03v3.01h-6.03Zm6.03,33.16h-6.03v-3.01h6.03v3.01Zm-6.03,9.04v-3.01h6.03v3.01h-6.03Zm6.03,33.16h-6.03v-3.01h6.03v3.01Zm0-403.93h-3.01v-3.01h3.01v3.01Zm0,42.2h-3.01v-3.01h3.01v3.01Zm0,42.2h-3.01v-3.01h3.01v3.01Zm0,42.2h-3.01v-3.01h3.01v3.01Zm0,42.2h-3.01v-3.01h3.01v3.01Zm0,42.2h-3.01v-3.01h3.01v3.01Zm0,42.2h-3.01v-3.01h3.01v3.01Zm0,42.2h-3.01v-3.01h3.01v3.01Zm0,42.2h-3.01v-3.01h3.01v3.01Zm0,42.2h-3.01v-3.01h3.01v3.01Zm0-382.83V3.01h3.01v6.03h-3.01Zm3.01,24.12h-3.01v-6.03h3.01v6.03Zm-3.01,18.09v-6.03h3.01v6.03h-3.01Zm3.01,24.12h-3.01v-6.03h3.01v6.03Zm-3.01,18.09v-6.03h3.01v6.03h-3.01Zm3.01,24.12h-3.01v-6.03h3.01v6.03Zm-3.01,18.09v-6.03h3.01v6.03h-3.01Zm3.01,24.12h-3.01v-6.03h3.01v6.03Zm-3.01,18.09v-6.03h3.01v6.03h-3.01Zm3.01,24.12h-3.01v-6.03h3.01v6.03Zm-3.01,18.09v-6.03h3.01v6.03h-3.01Zm3.01,24.12h-3.01v-6.03h3.01v6.03Zm-3.01,18.09v-6.03h3.01v6.03h-3.01Zm3.01,24.12h-3.01v-6.03h3.01v6.03Zm-3.01,18.09v-6.03h3.01v6.03h-3.01Zm3.01,24.12h-3.01v-6.03h3.01v6.03Zm-3.01,18.09v-6.03h3.01v6.03h-3.01Zm3.01,24.12h-3.01v-6.03h3.01v6.03Zm-3.01,18.09v-6.03h3.01v6.03h-3.01Zm3.01,24.12h-3.01v-6.03h3.01v6.03ZM42.2,3.01h3.01v6.03h-3.01V3.01Zm0,30.14v-6.03h3.01v6.03h-3.01Zm0,54.26h3.01v6.03h-3.01v-6.03Zm0,30.14v-6.03h3.01v6.03h-3.01Zm0,265.27h3.01v6.03h-3.01v-6.03Zm0,30.14v-6.03h3.01v6.03h-3.01ZM45.22,0h6.03V3.01h-6.03V0Zm18.09,9.04v3.01h-18.09v-3.01h18.09Zm-18.09,15.07h3.01v3.01h-3.01v-3.01Zm6.03,12.06h-6.03v-3.01h6.03v3.01Zm-6.03,48.23h6.03v3.01h-6.03v-3.01Zm18.09,9.04v3.01h-18.09v-3.01h18.09Zm-18.09,15.07h3.01v3.01h-3.01v-3.01Zm6.03,12.06h-6.03v-3.01h6.03v3.01Zm-6.03,259.24h6.03v3.01h-6.03v-3.01Zm18.09,9.04v3.01h-18.09v-3.01h18.09Zm-18.09,15.07h3.01v3.01h-3.01v-3.01Zm6.03,12.06h-6.03v-3.01h6.03v3.01ZM54.26,3.01v3.01h-3.01V3.01h3.01Zm0,30.14h-3.01V15.07h3.01v18.09Zm0,54.26v3.01h-3.01v-3.01h3.01Zm0,30.14h-3.01v-18.09h3.01v18.09Zm0,265.27v3.01h-3.01v-3.01h3.01Zm0,30.14h-3.01v-18.09h3.01v18.09ZM57.27,27.13v-3.01h18.09v3.01h-18.09Zm0,84.4v-3.01h18.09v3.01h-18.09Zm0,295.41v-3.01h18.09v3.01h-18.09ZM69.33,21.1h-3.01V3.01h3.01V21.1Zm-3.01,12.06v-3.01h3.01v3.01h-3.01Zm3.01,72.35h-3.01v-18.09h3.01v18.09Zm-3.01,12.06v-3.01h3.01v3.01h-3.01Zm3.01,283.35h-3.01v-18.09h3.01v18.09Zm-3.01,12.06v-3.01h3.01v3.01h-3.01ZM69.33,3.01V0h6.03V3.01h-6.03Zm6.03,33.16h-6.03v-3.01h6.03v3.01Zm-6.03,51.24v-3.01h6.03v3.01h-6.03Zm6.03,33.16h-6.03v-3.01h6.03v3.01Zm-6.03,262.25v-3.01h6.03v3.01h-6.03Zm6.03,33.16h-6.03v-3.01h6.03v3.01Zm0-403.93h-3.01v-3.01h3.01v3.01Zm0,84.4h-3.01v-3.01h3.01v3.01Zm0,295.41h-3.01v-3.01h3.01v3.01Zm0-382.83V3.01h3.01v6.03h-3.01Zm3.01,24.12h-3.01v-6.03h3.01v6.03Zm-3.01,60.29v-6.03h3.01v6.03h-3.01Zm3.01,24.12h-3.01v-6.03h3.01v6.03Zm-3.01,271.3v-6.03h3.01v6.03h-3.01Zm3.01,24.12h-3.01v-6.03h3.01v6.03ZM84.4,3.01h3.01v6.03h-3.01V3.01Zm0,30.14v-6.03h3.01v6.03h-3.01Zm0,96.46h3.01v6.03h-3.01v-6.03Zm0,30.14v-6.03h3.01v6.03h-3.01Zm0,223.07h3.01v6.03h-3.01v-6.03Zm0,30.14v-6.03h3.01v6.03h-3.01ZM87.42,0h6.03V3.01h-6.03V0Zm18.09,9.04v3.01h-18.09v-3.01h18.09Zm-18.09,15.07h3.01v3.01h-3.01v-3.01Zm6.03,12.06h-6.03v-3.01h6.03v3.01Zm-6.03,90.43h6.03v3.01h-6.03v-3.01Zm18.09,9.04v3.01h-18.09v-3.01h18.09Zm-18.09,15.07h3.01v3.01h-3.01v-3.01Zm6.03,12.06h-6.03v-3.01h6.03v3.01Zm-6.03,217.04h6.03v3.01h-6.03v-3.01Zm18.09,9.04v3.01h-18.09v-3.01h18.09Zm-18.09,15.07h3.01v3.01h-3.01v-3.01Zm6.03,12.06h-6.03v-3.01h6.03v3.01ZM96.46,3.01v3.01h-3.01V3.01h3.01Zm0,30.14h-3.01V15.07h3.01v18.09Zm0,96.46v3.01h-3.01v-3.01h3.01Zm0,30.14h-3.01v-18.09h3.01v18.09Zm0,223.07v3.01h-3.01v-3.01h3.01Zm0,30.14h-3.01v-18.09h3.01v18.09Zm3.01-385.84v-3.01h18.09v3.01h-18.09Zm0,126.6v-3.01h18.09v3.01h-18.09Zm0,253.21v-3.01h18.09v3.01h-18.09ZM111.53,21.1h-3.01V3.01h3.01V21.1Zm-3.01,12.06v-3.01h3.01v3.01h-3.01Zm3.01,114.55h-3.01v-18.09h3.01v18.09Zm-3.01,12.06v-3.01h3.01v3.01h-3.01Zm3.01,241.15h-3.01v-18.09h3.01v18.09Zm-3.01,12.06v-3.01h3.01v3.01h-3.01ZM111.53,3.01V0h6.03V3.01h-6.03Zm6.03,33.16h-6.03v-3.01h6.03v3.01Zm-6.03,93.45v-3.01h6.03v3.01h-6.03Zm6.03,33.16h-6.03v-3.01h6.03v3.01Zm-6.03,220.05v-3.01h6.03v3.01h-6.03Zm6.03,33.16h-6.03v-3.01h6.03v3.01Zm0-403.93h-3.01v-3.01h3.01v3.01Zm0,126.6h-3.01v-3.01h3.01v3.01Zm0,253.21h-3.01v-3.01h3.01v3.01Zm0-382.83V3.01h3.01v6.03h-3.01Zm3.01,24.12h-3.01v-6.03h3.01v6.03Zm-3.01,102.49v-6.03h3.01v6.03h-3.01Zm3.01,24.12h-3.01v-6.03h3.01v6.03Zm-3.01,229.1v-6.03h3.01v6.03h-3.01Zm3.01,24.12h-3.01v-6.03h3.01v6.03ZM126.6,3.01h3.01v6.03h-3.01V3.01Zm0,30.14v-6.03h3.01v6.03h-3.01Zm0,138.66h3.01v6.03h-3.01v-6.03Zm0,30.14v-6.03h3.01v6.03h-3.01Zm0,180.86h3.01v6.03h-3.01v-6.03Zm0,30.14v-6.03h3.01v6.03h-3.01ZM129.62,0h6.03V3.01h-6.03V0Zm18.09,9.04v3.01h-18.09v-3.01h18.09Zm-18.09,15.07h3.01v3.01h-3.01v-3.01Zm6.03,12.06h-6.03v-3.01h6.03v3.01Zm-6.03,132.63h6.03v3.01h-6.03v-3.01Zm18.09,9.04v3.01h-18.09v-3.01h18.09Zm-18.09,15.07h3.01v3.01h-3.01v-3.01Zm6.03,12.06h-6.03v-3.01h6.03v3.01Zm-6.03,174.83h6.03v3.01h-6.03v-3.01Zm18.09,9.04v3.01h-18.09v-3.01h18.09Zm-18.09,15.07h3.01v3.01h-3.01v-3.01Zm6.03,12.06h-6.03v-3.01h6.03v3.01ZM138.66,3.01v3.01h-3.01V3.01h3.01Zm0,30.14h-3.01V15.07h3.01v18.09Zm0,138.66v3.01h-3.01v-3.01h3.01Zm0,30.14h-3.01v-18.09h3.01v18.09Zm0,180.86v3.01h-3.01v-3.01h3.01Zm0,30.14h-3.01v-18.09h3.01v18.09Zm3.01-385.84v-3.01h18.09v3.01h-18.09Zm0,168.81v-3.01h18.09v3.01h-18.09Zm0,211.01v-3.01h18.09v3.01h-18.09ZM153.73,21.1h-3.01V3.01h3.01V21.1Zm-3.01,12.06v-3.01h3.01v3.01h-3.01Zm3.01,156.75h-3.01v-18.09h3.01v18.09Zm-3.01,12.06v-3.01h3.01v3.01h-3.01Zm3.01,198.95h-3.01v-18.09h3.01v18.09Zm-3.01,12.06v-3.01h3.01v3.01h-3.01ZM153.73,3.01V0h6.03V3.01h-6.03Zm6.03,33.16h-6.03v-3.01h6.03v3.01Zm-6.03,135.65v-3.01h6.03v3.01h-6.03Zm6.03,33.16h-6.03v-3.01h6.03v3.01Zm-6.03,177.85v-3.01h6.03v3.01h-6.03Zm6.03,33.16h-6.03v-3.01h6.03v3.01Zm0-403.93h-3.01v-3.01h3.01v3.01Zm0,168.81h-3.01v-3.01h3.01v3.01Zm0,211.01h-3.01v-3.01h3.01v3.01Zm0-382.83V3.01h3.01v6.03h-3.01Zm3.01,24.12h-3.01v-6.03h3.01v6.03Zm-3.01,144.69v-6.03h3.01v6.03h-3.01Zm3.01,24.12h-3.01v-6.03h3.01v6.03Zm-3.01,186.89v-6.03h3.01v6.03h-3.01Zm3.01,24.12h-3.01v-6.03h3.01v6.03ZM168.81,3.01h3.01v6.03h-3.01V3.01Zm0,30.14v-6.03h3.01v6.03h-3.01Zm0,180.86h3.01v6.03h-3.01v-6.03Zm0,30.14v-6.03h3.01v6.03h-3.01Zm0,138.66h3.01v6.03h-3.01v-6.03Zm0,30.14v-6.03h3.01v6.03h-3.01ZM171.82,0h6.03V3.01h-6.03V0Zm18.09,9.04v3.01h-18.09v-3.01h18.09Zm-18.09,15.07h3.01v3.01h-3.01v-3.01Zm6.03,12.06h-6.03v-3.01h6.03v3.01Zm-6.03,174.84h6.03v3.01h-6.03v-3.01Zm18.09,9.04v3.01h-18.09v-3.01h18.09Zm-18.09,15.07h3.01v3.01h-3.01v-3.01Zm6.03,12.06h-6.03v-3.01h6.03v3.01Zm-6.03,132.63h6.03v3.01h-6.03v-3.01Zm18.09,9.04v3.01h-18.09v-3.01h18.09Zm-18.09,15.07h3.01v3.01h-3.01v-3.01Zm6.03,12.06h-6.03v-3.01h6.03v3.01ZM180.86,3.01v3.01h-3.01V3.01h3.01Zm0,30.14h-3.01V15.07h3.01v18.09Zm0,180.86v3.01h-3.01v-3.01h3.01Zm0,30.14h-3.01v-18.09h3.01v18.09Zm0,138.66v3.01h-3.01v-3.01h3.01Zm0,30.14h-3.01v-18.09h3.01v18.09Zm3.01-385.84v-3.01h18.09v3.01h-18.09Zm0,211.01v-3.01h18.09v3.01h-18.09Zm0,168.81v-3.01h18.09v3.01h-18.09ZM195.94,21.1h-3.01V3.01h3.01V21.1Zm-3.01,12.06v-3.01h3.01v3.01h-3.01Zm3.01,198.95h-3.01v-18.09h3.01v18.09Zm-3.01,12.06v-3.01h3.01v3.01h-3.01Zm3.01,156.75h-3.01v-18.09h3.01v18.09Zm-3.01,12.06v-3.01h3.01v3.01h-3.01ZM195.94,3.01V0h6.03V3.01h-6.03Zm6.03,33.16h-6.03v-3.01h6.03v3.01Zm-6.03,177.85v-3.01h6.03v3.01h-6.03Zm6.03,33.16h-6.03v-3.01h6.03v3.01Zm-6.03,135.65v-3.01h6.03v3.01h-6.03Zm6.03,33.16h-6.03v-3.01h6.03v3.01Zm0-403.93h-3.01v-3.01h3.01v3.01Zm0,211.01h-3.01v-3.01h3.01v3.01Zm0,168.81h-3.01v-3.01h3.01v3.01Zm0-382.83V3.01h3.01v6.03h-3.01Zm3.01,24.12h-3.01v-6.03h3.01v6.03Zm-3.01,186.89v-6.03h3.01v6.03h-3.01Zm3.01,24.12h-3.01v-6.03h3.01v6.03Zm-3.01,144.69v-6.03h3.01v6.03h-3.01Zm3.01,24.12h-3.01v-6.03h3.01v6.03ZM211.01,3.01h3.01v6.03h-3.01V3.01Zm0,30.14v-6.03h3.01v6.03h-3.01Zm0,223.07h3.01v6.03h-3.01v-6.03Zm0,30.14v-6.03h3.01v6.03h-3.01Zm0,96.46h3.01v6.03h-3.01v-6.03Zm0,30.14v-6.03h3.01v6.03h-3.01ZM214.02,0h6.03V3.01h-6.03V0Zm18.09,9.04v3.01h-18.09v-3.01h18.09Zm-18.09,15.07h3.01v3.01h-3.01v-3.01Zm6.03,12.06h-6.03v-3.01h6.03v3.01Zm-6.03,217.04h6.03v3.01h-6.03v-3.01Zm18.09,9.04v3.01h-18.09v-3.01h18.09Zm-18.09,15.07h3.01v3.01h-3.01v-3.01Zm6.03,12.06h-6.03v-3.01h6.03v3.01Zm-6.03,90.43h6.03v3.01h-6.03v-3.01Zm18.09,9.04v3.01h-18.09v-3.01h18.09Zm-18.09,15.07h3.01v3.01h-3.01v-3.01Zm6.03,12.06h-6.03v-3.01h6.03v3.01ZM223.07,3.01v3.01h-3.01V3.01h3.01Zm0,30.14h-3.01V15.07h3.01v18.09Zm0,223.07v3.01h-3.01v-3.01h3.01Zm0,30.14h-3.01v-18.09h3.01v18.09Zm0,96.46v3.01h-3.01v-3.01h3.01Zm0,30.14h-3.01v-18.09h3.01v18.09Zm3.01-385.84v-3.01h18.09v3.01h-18.09Zm0,253.21v-3.01h18.09v3.01h-18.09Zm0,126.6v-3.01h18.09v3.01h-18.09ZM238.14,21.1h-3.01V3.01h3.01V21.1Zm-3.01,12.06v-3.01h3.01v3.01h-3.01Zm3.01,241.15h-3.01v-18.09h3.01v18.09Zm-3.01,12.06v-3.01h3.01v3.01h-3.01Zm3.01,114.55h-3.01v-18.09h3.01v18.09Zm-3.01,12.06v-3.01h3.01v3.01h-3.01ZM238.14,3.01V0h6.03V3.01h-6.03Zm6.03,33.16h-6.03v-3.01h6.03v3.01Zm-6.03,220.05v-3.01h6.03v3.01h-6.03Zm6.03,33.16h-6.03v-3.01h6.03v3.01Zm-6.03,93.45v-3.01h6.03v3.01h-6.03Zm6.03,33.16h-6.03v-3.01h6.03v3.01Zm0-403.93h-3.01v-3.01h3.01v3.01Zm0,253.21h-3.01v-3.01h3.01v3.01Zm0,126.6h-3.01v-3.01h3.01v3.01Zm0-382.83V3.01h3.01v6.03h-3.01Zm3.01,24.12h-3.01v-6.03h3.01v6.03Zm-3.01,229.09v-6.03h3.01v6.03h-3.01Zm3.01,24.12h-3.01v-6.03h3.01v6.03Zm-3.01,102.49v-6.03h3.01v6.03h-3.01Zm3.01,24.12h-3.01v-6.03h3.01v6.03ZM253.21,3.01h3.01v6.03h-3.01V3.01Zm0,30.14v-6.03h3.01v6.03h-3.01Zm0,223.07h3.01v6.03h-3.01v-6.03Zm0,30.14v-6.03h3.01v6.03h-3.01Zm0,96.46h3.01v6.03h-3.01v-6.03Zm0,30.14v-6.03h3.01v6.03h-3.01ZM256.22,0h6.03V3.01h-6.03V0Zm18.09,9.04v3.01h-18.09v-3.01h18.09Zm-18.09,15.07h3.01v3.01h-3.01v-3.01Zm6.03,12.06h-6.03v-3.01h6.03v3.01Zm-6.03,217.04h6.03v3.01h-6.03v-3.01Zm18.09,9.04v3.01h-18.09v-3.01h18.09Zm-18.09,15.07h3.01v3.01h-3.01v-3.01Zm6.03,12.06h-6.03v-3.01h6.03v3.01Zm-6.03,90.43h6.03v3.01h-6.03v-3.01Zm18.09,9.04v3.01h-18.09v-3.01h18.09Zm-18.09,15.07h3.01v3.01h-3.01v-3.01Zm6.03,12.06h-6.03v-3.01h6.03v3.01ZM265.27,3.01v3.01h-3.01V3.01h3.01Zm0,30.14h-3.01V15.07h3.01v18.09Zm0,223.07v3.01h-3.01v-3.01h3.01Zm0,30.14h-3.01v-18.09h3.01v18.09Zm0,96.46v3.01h-3.01v-3.01h3.01Zm0,30.14h-3.01v-18.09h3.01v18.09Zm3.02-385.84v-3.01h18.09v3.01h-18.09Zm0,253.21v-3.01h18.09v3.01h-18.09Zm0,126.6v-3.01h18.09v3.01h-18.09Zm12.06-385.84h-3.01V3.01h3.01V21.1Zm-3.01,12.06v-3.01h3.01v3.01h-3.01Zm3.01,241.15h-3.01v-18.09h3.01v18.09Zm-3.01,12.06v-3.01h3.01v3.01h-3.01Zm3.01,114.55h-3.01v-18.09h3.01v18.09Zm-3.01,12.06v-3.01h3.01v3.01h-3.01ZM280.34,3.01V0h6.03V3.01h-6.03Zm6.03,33.16h-6.03v-3.01h6.03v3.01Zm-6.03,220.05v-3.01h6.03v3.01h-6.03Zm6.03,33.16h-6.03v-3.01h6.03v3.01Zm-6.03,93.45v-3.01h6.03v3.01h-6.03Zm6.03,33.16h-6.03v-3.01h6.03v3.01Zm0-403.93h-3.02v-3.01h3.02v3.01Zm0,253.21h-3.02v-3.01h3.02v3.01Zm0,126.6h-3.02v-3.01h3.02v3.01Zm0-382.83V3.01h3.01v6.03h-3.01Zm3.01,24.12h-3.01v-6.03h3.01v6.03Zm-3.01,229.09v-6.03h3.01v6.03h-3.01Zm3.01,24.12h-3.01v-6.03h3.01v6.03Zm-3.01,102.49v-6.03h3.01v6.03h-3.01Zm3.01,24.12h-3.01v-6.03h3.01v6.03ZM295.41,3.01h3.01v6.03h-3.01V3.01Zm0,30.14v-6.03h3.01v6.03h-3.01Zm0,180.86h3.01v6.03h-3.01v-6.03Zm0,30.14v-6.03h3.01v6.03h-3.01Zm0,138.66h3.01v6.03h-3.01v-6.03Zm0,30.14v-6.03h3.01v6.03h-3.01ZM298.43,0h6.03V3.01h-6.03V0Zm18.09,9.04v3.01h-18.09v-3.01h18.09Zm-18.09,15.07h3.02v3.01h-3.02v-3.01Zm6.03,12.06h-6.03v-3.01h6.03v3.01Zm-6.03,174.84h6.03v3.01h-6.03v-3.01Zm18.09,9.04v3.01h-18.09v-3.01h18.09Zm-18.09,15.07h3.02v3.01h-3.02v-3.01Zm6.03,12.06h-6.03v-3.01h6.03v3.01Zm-6.03,132.63h6.03v3.01h-6.03v-3.01Zm18.09,9.04v3.01h-18.09v-3.01h18.09Zm-18.09,15.07h3.02v3.01h-3.02v-3.01Zm6.03,12.06h-6.03v-3.01h6.03v3.01ZM307.47,3.01v3.01h-3.01V3.01h3.01Zm0,30.14h-3.01V15.07h3.01v18.09Zm0,180.86v3.01h-3.01v-3.01h3.01Zm0,30.14h-3.01v-18.09h3.01v18.09Zm0,138.66v3.01h-3.01v-3.01h3.01Zm0,30.14h-3.01v-18.09h3.01v18.09Zm3.02-385.84v-3.01h18.09v3.01h-18.09Zm0,211.01v-3.01h18.09v3.01h-18.09Zm0,168.81v-3.01h18.09v3.01h-18.09Zm12.06-385.84h-3.01V3.01h3.01V21.1Zm-3.01,12.06v-3.01h3.01v3.01h-3.01Zm3.01,198.95h-3.01v-18.09h3.01v18.09Zm-3.01,12.06v-3.01h3.01v3.01h-3.01Zm3.01,156.75h-3.01v-18.09h3.01v18.09Zm-3.01,12.06v-3.01h3.01v3.01h-3.01ZM322.54,3.01V0h6.03V3.01h-6.03Zm6.03,33.16h-6.03v-3.01h6.03v3.01Zm-6.03,177.85v-3.01h6.03v3.01h-6.03Zm6.03,33.16h-6.03v-3.01h6.03v3.01Zm-6.03,135.65v-3.01h6.03v3.01h-6.03Zm6.03,33.16h-6.03v-3.01h6.03v3.01Zm0-403.93h-3.01v-3.01h3.01v3.01Zm0,211.01h-3.01v-3.01h3.01v3.01Zm0,168.81h-3.01v-3.01h3.01v3.01Zm0-382.83V3.01h3.01v6.03h-3.01Zm3.01,24.12h-3.01v-6.03h3.01v6.03Zm-3.01,186.89v-6.03h3.01v6.03h-3.01Zm3.01,24.12h-3.01v-6.03h3.01v6.03Zm-3.01,144.69v-6.03h3.01v6.03h-3.01Zm3.01,24.12h-3.01v-6.03h3.01v6.03ZM337.61,3.01h3.02v6.03h-3.02V3.01Zm0,30.14v-6.03h3.02v6.03h-3.02Zm0,138.66h3.02v6.03h-3.02v-6.03Zm0,30.14v-6.03h3.02v6.03h-3.02Zm0,180.86h3.02v6.03h-3.02v-6.03Zm0,30.14v-6.03h3.02v6.03h-3.02ZM340.63,0h6.03V3.01h-6.03V0Zm18.09,9.04v3.01h-18.09v-3.01h18.09Zm-18.09,15.07h3.01v3.01h-3.01v-3.01Zm6.03,12.06h-6.03v-3.01h6.03v3.01Zm-6.03,132.63h6.03v3.01h-6.03v-3.01Zm18.09,9.04v3.01h-18.09v-3.01h18.09Zm-18.09,15.07h3.01v3.01h-3.01v-3.01Zm6.03,12.06h-6.03v-3.01h6.03v3.01Zm-6.03,174.83h6.03v3.01h-6.03v-3.01Zm18.09,9.04v3.01h-18.09v-3.01h18.09Zm-18.09,15.07h3.01v3.01h-3.01v-3.01Zm6.03,12.06h-6.03v-3.01h6.03v3.01ZM349.67,3.01v3.01h-3.02V3.01h3.02Zm0,30.14h-3.02V15.07h3.02v18.09Zm0,138.66v3.01h-3.02v-3.01h3.02Zm0,30.14h-3.02v-18.09h3.02v18.09Zm0,180.86v3.01h-3.02v-3.01h3.02Zm0,30.14h-3.02v-18.09h3.02v18.09Zm3.01-385.84v-3.01h18.09v3.01h-18.09Zm0,168.81v-3.01h18.09v3.01h-18.09Zm0,211.01v-3.01h18.09v3.01h-18.09Zm12.06-385.84h-3.02V3.01h3.02V21.1Zm-3.02,12.06v-3.01h3.02v3.01h-3.02Zm3.02,156.75h-3.02v-18.09h3.02v18.09Zm-3.02,12.06v-3.01h3.02v3.01h-3.02Zm3.02,198.95h-3.02v-18.09h3.02v18.09Zm-3.02,12.06v-3.01h3.02v3.01h-3.02ZM364.74,3.01V0h6.03V3.01h-6.03Zm6.03,33.16h-6.03v-3.01h6.03v3.01Zm-6.03,135.65v-3.01h6.03v3.01h-6.03Zm6.03,33.16h-6.03v-3.01h6.03v3.01Zm-6.03,177.85v-3.01h6.03v3.01h-6.03Zm6.03,33.16h-6.03v-3.01h6.03v3.01Zm0-403.93h-3.01v-3.01h3.01v3.01Zm0,168.81h-3.01v-3.01h3.01v3.01Zm0,211.01h-3.01v-3.01h3.01v3.01Zm0-382.83V3.01h3.02v6.03h-3.02Zm3.02,24.12h-3.02v-6.03h3.02v6.03Zm-3.02,144.69v-6.03h3.02v6.03h-3.02Zm3.02,24.12h-3.02v-6.03h3.02v6.03Zm-3.02,186.89v-6.03h3.02v6.03h-3.02Zm3.02,24.12h-3.02v-6.03h3.02v6.03ZM379.81,3.01h3.02v6.03h-3.02V3.01Zm0,30.14v-6.03h3.02v6.03h-3.02Zm0,96.46h3.02v6.03h-3.02v-6.03Zm0,30.14v-6.03h3.02v6.03h-3.02Zm0,223.07h3.02v6.03h-3.02v-6.03Zm0,30.14v-6.03h3.02v6.03h-3.02ZM382.83,0h6.03V3.01h-6.03V0Zm18.09,9.04v3.01h-18.09v-3.01h18.09Zm-18.09,15.07h3.01v3.01h-3.01v-3.01Zm6.03,12.06h-6.03v-3.01h6.03v3.01Zm-6.03,90.43h6.03v3.01h-6.03v-3.01Zm18.09,9.04v3.01h-18.09v-3.01h18.09Zm-18.09,15.07h3.01v3.01h-3.01v-3.01Zm6.03,12.06h-6.03v-3.01h6.03v3.01Zm-6.03,217.04h6.03v3.01h-6.03v-3.01Zm18.09,9.04v3.01h-18.09v-3.01h18.09Zm-18.09,15.07h3.01v3.01h-3.01v-3.01Zm6.03,12.06h-6.03v-3.01h6.03v3.01ZM391.87,3.01v3.01h-3.01V3.01h3.01Zm0,30.14h-3.01V15.07h3.01v18.09Zm0,96.46v3.01h-3.01v-3.01h3.01Zm0,30.14h-3.01v-18.09h3.01v18.09Zm0,223.07v3.01h-3.01v-3.01h3.01Zm0,30.14h-3.01v-18.09h3.01v18.09Zm3.01-385.84v-3.01h18.09v3.01h-18.09Zm0,126.6v-3.01h18.09v3.01h-18.09Zm0,253.21v-3.01h18.09v3.01h-18.09Zm12.06-385.84h-3.02V3.01h3.02V21.1Zm-3.02,12.06v-3.01h3.02v3.01h-3.02Zm3.02,114.55h-3.02v-18.09h3.02v18.09Zm-3.02,12.06v-3.01h3.02v3.01h-3.02Zm3.02,241.15h-3.02v-18.09h3.02v18.09Zm-3.02,12.06v-3.01h3.02v3.01h-3.02ZM406.94,3.01V0h6.03V3.01h-6.03Zm6.03,33.16h-6.03v-3.01h6.03v3.01Zm-6.03,93.45v-3.01h6.03v3.01h-6.03Zm6.03,33.16h-6.03v-3.01h6.03v3.01Zm-6.03,220.05v-3.01h6.03v3.01h-6.03Zm6.03,33.16h-6.03v-3.01h6.03v3.01Zm0-403.93h-3.02v-3.01h3.02v3.01Zm0,126.6h-3.02v-3.01h3.02v3.01Zm0,253.21h-3.02v-3.01h3.02v3.01Zm0-382.83V3.01h3.01v6.03h-3.01Zm3.01,24.12h-3.01v-6.03h3.01v6.03Zm-3.01,102.49v-6.03h3.01v6.03h-3.01Zm3.01,24.12h-3.01v-6.03h3.01v6.03Zm-3.01,229.1v-6.03h3.01v6.03h-3.01Zm3.01,24.12h-3.01v-6.03h3.01v6.03ZM422.02,3.01h3.01v6.03h-3.01V3.01Zm0,30.14v-6.03h3.01v6.03h-3.01Zm0,54.26h3.01v6.03h-3.01v-6.03Zm0,30.14v-6.03h3.01v6.03h-3.01Zm0,265.27h3.01v6.03h-3.01v-6.03Zm0,30.14v-6.03h3.01v6.03h-3.01ZM425.03,0h6.03V3.01h-6.03V0Zm18.09,9.04v3.01h-18.09v-3.01h18.09Zm-18.09,15.07h3.01v3.01h-3.01v-3.01Zm6.03,12.06h-6.03v-3.01h6.03v3.01Zm-6.03,48.23h6.03v3.01h-6.03v-3.01Zm18.09,9.04v3.01h-18.09v-3.01h18.09Zm-18.09,15.07h3.01v3.01h-3.01v-3.01Zm6.03,12.06h-6.03v-3.01h6.03v3.01Zm-6.03,259.24h6.03v3.01h-6.03v-3.01Zm18.09,9.04v3.01h-18.09v-3.01h18.09Zm-18.09,15.07h3.01v3.01h-3.01v-3.01Zm6.03,12.06h-6.03v-3.01h6.03v3.01ZM434.07,3.01v3.01h-3.01V3.01h3.01Zm0,30.14h-3.01V15.07h3.01v18.09Zm0,54.26v3.01h-3.01v-3.01h3.01Zm0,30.14h-3.01v-18.09h3.01v18.09Zm0,265.27v3.01h-3.01v-3.01h3.01Zm0,30.14h-3.01v-18.09h3.01v18.09Zm3.02-385.84v-3.01h18.09v3.01h-18.09Zm0,84.4v-3.01h18.09v3.01h-18.09Zm0,295.41v-3.01h18.09v3.01h-18.09Zm12.06-385.84h-3.01V3.01h3.01V21.1Zm-3.01,12.06v-3.01h3.01v3.01h-3.01Zm3.01,72.35h-3.01v-18.09h3.01v18.09Zm-3.01,12.06v-3.01h3.01v3.01h-3.01Zm3.01,283.35h-3.01v-18.09h3.01v18.09Zm-3.01,12.06v-3.01h3.01v3.01h-3.01ZM449.15,3.01V0h6.03V3.01h-6.03Zm6.03,33.16h-6.03v-3.01h6.03v3.01Zm-6.03,51.24v-3.01h6.03v3.01h-6.03Zm6.03,33.16h-6.03v-3.01h6.03v3.01Zm-6.03,262.25v-3.01h6.03v3.01h-6.03Zm6.03,33.16h-6.03v-3.01h6.03v3.01Zm0-403.93h-3.02v-3.01h3.02v3.01Zm0,84.4h-3.02v-3.01h3.02v3.01Zm0,295.41h-3.02v-3.01h3.02v3.01Zm0-382.83V3.01h3.01v6.03h-3.01Zm3.01,24.12h-3.01v-6.03h3.01v6.03Zm-3.01,60.29v-6.03h3.01v6.03h-3.01Zm3.01,24.12h-3.01v-6.03h3.01v6.03Zm-3.01,271.3v-6.03h3.01v6.03h-3.01Zm3.01,24.12h-3.01v-6.03h3.01v6.03ZM464.22,3.01h3.01v6.03h-3.01V3.01Zm0,30.14v-6.03h3.01v6.03h-3.01Zm0,12.06h3.01v6.03h-3.01v-6.03Zm0,30.14v-6.03h3.01v6.03h-3.01Zm0,12.06h3.01v6.03h-3.01v-6.03Zm0,30.14v-6.03h3.01v6.03h-3.01Zm0,12.06h3.01v6.03h-3.01v-6.03Zm0,30.14v-6.03h3.01v6.03h-3.01Zm0,12.06h3.01v6.03h-3.01v-6.03Zm0,30.14v-6.03h3.01v6.03h-3.01Zm0,12.06h3.01v6.03h-3.01v-6.03Zm0,30.14v-6.03h3.01v6.03h-3.01Zm0,12.06h3.01v6.03h-3.01v-6.03Zm0,30.14v-6.03h3.01v6.03h-3.01Zm0,12.06h3.01v6.03h-3.01v-6.03Zm0,30.14v-6.03h3.01v6.03h-3.01Zm0,12.06h3.01v6.03h-3.01v-6.03Zm0,30.14v-6.03h3.01v6.03h-3.01Zm0,12.06h3.01v6.03h-3.01v-6.03Zm0,30.14v-6.03h3.01v6.03h-3.01ZM467.23,0h6.03V3.01h-6.03V0Zm18.09,9.04v3.01h-18.09v-3.01h18.09Zm-18.09,15.07h3.02v3.01h-3.02v-3.01Zm6.03,12.06h-6.03v-3.01h6.03v3.01Zm-6.03,6.03h6.03v3.01h-6.03v-3.01Zm18.09,9.04v3.01h-18.09v-3.01h18.09Zm-18.09,15.07h3.02v3.01h-3.02v-3.01Zm6.03,12.06h-6.03v-3.01h6.03v3.01Zm-6.03,6.03h6.03v3.01h-6.03v-3.01Zm18.09,9.04v3.01h-18.09v-3.01h18.09Zm-18.09,15.07h3.02v3.01h-3.02v-3.01Zm6.03,12.06h-6.03v-3.01h6.03v3.01Zm-6.03,6.03h6.03v3.01h-6.03v-3.01Zm18.09,9.04v3.01h-18.09v-3.01h18.09Zm-18.09,15.07h3.02v3.01h-3.02v-3.01Zm6.03,12.06h-6.03v-3.01h6.03v3.01Zm-6.03,6.03h6.03v3.01h-6.03v-3.01Zm18.09,9.04v3.01h-18.09v-3.01h18.09Zm-18.09,15.07h3.02v3.01h-3.02v-3.01Zm6.03,12.06h-6.03v-3.01h6.03v3.01Zm-6.03,6.03h6.03v3.01h-6.03v-3.01Zm18.09,9.04v3.01h-18.09v-3.01h18.09Zm-18.09,15.07h3.02v3.01h-3.02v-3.01Zm6.03,12.06h-6.03v-3.01h6.03v3.01Zm-6.03,6.03h6.03v3.01h-6.03v-3.01Zm18.09,9.04v3.01h-18.09v-3.01h18.09Zm-18.09,15.07h3.02v3.01h-3.02v-3.01Zm6.03,12.06h-6.03v-3.01h6.03v3.01Zm-6.03,6.03h6.03v3.01h-6.03v-3.01Zm18.09,9.04v3.01h-18.09v-3.01h18.09Zm-18.09,15.07h3.02v3.01h-3.02v-3.01Zm6.03,12.06h-6.03v-3.01h6.03v3.01Zm-6.03,6.03h6.03v3.01h-6.03v-3.01Zm18.09,9.04v3.01h-18.09v-3.01h18.09Zm-18.09,15.07h3.02v3.01h-3.02v-3.01Zm6.03,12.06h-6.03v-3.01h6.03v3.01Zm-6.03,6.03h6.03v3.01h-6.03v-3.01Zm18.09,9.04v3.01h-18.09v-3.01h18.09Zm-18.09,15.07h3.02v3.01h-3.02v-3.01Zm6.03,12.06h-6.03v-3.01h6.03v3.01ZM476.27,3.01v3.01h-3.01V3.01h3.01Zm0,30.14h-3.01V15.07h3.01v18.09Zm0,12.06v3.01h-3.01v-3.01h3.01Zm0,30.14h-3.01v-18.09h3.01v18.09Zm0,12.06v3.01h-3.01v-3.01h3.01Zm0,30.14h-3.01v-18.09h3.01v18.09Zm0,12.06v3.01h-3.01v-3.01h3.01Zm0,30.14h-3.01v-18.09h3.01v18.09Zm0,12.06v3.01h-3.01v-3.01h3.01Zm0,30.14h-3.01v-18.09h3.01v18.09Zm0,12.06v3.01h-3.01v-3.01h3.01Zm0,30.14h-3.01v-18.09h3.01v18.09Zm0,12.06v3.01h-3.01v-3.01h3.01Zm0,30.14h-3.01v-18.09h3.01v18.09Zm0,12.06v3.01h-3.01v-3.01h3.01Zm0,30.14h-3.01v-18.09h3.01v18.09Zm0,12.06v3.01h-3.01v-3.01h3.01Zm0,30.14h-3.01v-18.09h3.01v18.09Zm0,12.06v3.01h-3.01v-3.01h3.01Zm0,30.14h-3.01v-18.09h3.01v18.09Zm3.02-385.84v-3.01h18.09v3.01h-18.09Zm0,42.2v-3.01h18.09v3.01h-18.09Zm0,42.2v-3.01h18.09v3.01h-18.09Zm0,42.2v-3.01h18.09v3.01h-18.09Zm0,42.2v-3.01h18.09v3.01h-18.09Zm0,42.2v-3.01h18.09v3.01h-18.09Zm0,42.2v-3.01h18.09v3.01h-18.09Zm0,42.2v-3.01h18.09v3.01h-18.09Zm0,42.2v-3.01h18.09v3.01h-18.09Zm0,42.2v-3.01h18.09v3.01h-18.09Zm12.06-385.84h-3.01V3.01h3.01V21.1Zm-3.01,12.06v-3.01h3.01v3.01h-3.01Zm3.01,30.14h-3.01v-18.09h3.01v18.09Zm-3.01,12.06v-3.01h3.01v3.01h-3.01Zm3.01,30.14h-3.01v-18.09h3.01v18.09Zm-3.01,12.06v-3.01h3.01v3.01h-3.01Zm3.01,30.14h-3.01v-18.09h3.01v18.09Zm-3.01,12.06v-3.01h3.01v3.01h-3.01Zm3.01,30.14h-3.01v-18.09h3.01v18.09Zm-3.01,12.06v-3.01h3.01v3.01h-3.01Zm3.01,30.14h-3.01v-18.09h3.01v18.09Zm-3.01,12.06v-3.01h3.01v3.01h-3.01Zm3.01,30.14h-3.01v-18.09h3.01v18.09Zm-3.01,12.06v-3.01h3.01v3.01h-3.01Zm3.01,30.14h-3.01v-18.09h3.01v18.09Zm-3.01,12.06v-3.01h3.01v3.01h-3.01Zm3.01,30.14h-3.01v-18.09h3.01v18.09Zm-3.01,12.06v-3.01h3.01v3.01h-3.01Zm3.01,30.14h-3.01v-18.09h3.01v18.09Zm-3.01,12.06v-3.01h3.01v3.01h-3.01ZM491.35,3.01V0h6.03V3.01h-6.03Zm6.03,33.16h-6.03v-3.01h6.03v3.01Zm-6.03,9.04v-3.01h6.03v3.01h-6.03Zm6.03,33.16h-6.03v-3.01h6.03v3.01Zm-6.03,9.04v-3.01h6.03v3.01h-6.03Zm6.03,33.16h-6.03v-3.01h6.03v3.01Zm-6.03,9.04v-3.01h6.03v3.01h-6.03Zm6.03,33.16h-6.03v-3.01h6.03v3.01Zm-6.03,9.04v-3.01h6.03v3.01h-6.03Zm6.03,33.16h-6.03v-3.01h6.03v3.01Zm-6.03,9.04v-3.01h6.03v3.01h-6.03Zm6.03,33.16h-6.03v-3.01h6.03v3.01Zm-6.03,9.04v-3.01h6.03v3.01h-6.03Zm6.03,33.16h-6.03v-3.01h6.03v3.01Zm-6.03,9.04v-3.01h6.03v3.01h-6.03Zm6.03,33.16h-6.03v-3.01h6.03v3.01Zm-6.03,9.04v-3.01h6.03v3.01h-6.03Zm6.03,33.16h-6.03v-3.01h6.03v3.01Zm-6.03,9.04v-3.01h6.03v3.01h-6.03Zm6.03,33.16h-6.03v-3.01h6.03v3.01Zm0-403.93h-3.01v-3.01h3.01v3.01Zm0,42.2h-3.01v-3.01h3.01v3.01Zm0,42.2h-3.01v-3.01h3.01v3.01Zm0,42.2h-3.01v-3.01h3.01v3.01Zm0,42.2h-3.01v-3.01h3.01v3.01Zm0,42.2h-3.01v-3.01h3.01v3.01Zm0,42.2h-3.01v-3.01h3.01v3.01Zm0,42.2h-3.01v-3.01h3.01v3.01Zm0,42.2h-3.01v-3.01h3.01v3.01Zm0,42.2h-3.01v-3.01h3.01v3.01Zm0-382.83V3.01h3.01v6.03h-3.01Zm3.01,24.12h-3.01v-6.03h3.01v6.03Zm-3.01,18.09v-6.03h3.01v6.03h-3.01Zm3.01,24.12h-3.01v-6.03h3.01v6.03Zm-3.01,18.09v-6.03h3.01v6.03h-3.01Zm3.01,24.12h-3.01v-6.03h3.01v6.03Zm-3.01,18.09v-6.03h3.01v6.03h-3.01Zm3.01,24.12h-3.01v-6.03h3.01v6.03Zm-3.01,18.09v-6.03h3.01v6.03h-3.01Zm3.01,24.12h-3.01v-6.03h3.01v6.03Zm-3.01,18.09v-6.03h3.01v6.03h-3.01Zm3.01,24.12h-3.01v-6.03h3.01v6.03Zm-3.01,18.09v-6.03h3.01v6.03h-3.01Zm3.01,24.12h-3.01v-6.03h3.01v6.03Zm-3.01,18.09v-6.03h3.01v6.03h-3.01Zm3.01,24.12h-3.01v-6.03h3.01v6.03Zm-3.01,18.09v-6.03h3.01v6.03h-3.01Zm3.01,24.12h-3.01v-6.03h3.01v6.03Zm-3.01,18.09v-6.03h3.01v6.03h-3.01Zm3.01,24.12h-3.01v-6.03h3.01v6.03Z"/></g></svg>