<svg id="Lager_1" data-name="Lager 1" xmlns="http://www.w3.org/2000/svg" viewBox="0 0 2201.99 19030.92"><defs><style>.cls-1{fill:#fff;}.cls-2{opacity:0.15;}.cls-3{stroke:#004efe;stroke-miterlimit:10;stroke-width:5px;}</style></defs><rect class="cls-1" x="140.99" y="2913.97" width="1920" height="12000"/><g id="Group_2" data-name="Group 2" class="cls-2"><path id="Path_18" data-name="Path 18" class="cls-3" d="M2058.06-895.67l.43-1217L2032.14-737.41,2012-1991.31l-16.43,886.68-7.45-867.43c-12.3,408.18-21.69,829.11-28.06,1256.65-12.61-453.56-20.89-924.66-24.63-1401l-7.42,1013.47c-11.23-453-27.86-886.46-49.23-1282.7-13,482-18.27,994.83-15.28,1500.73-5.06-403.91-16.63-795.76-33.86-1147.25Q1815.1-987.65,1793.22,39.41c-19.13-215.61-32.42-505.86-37.36-816.33q-13.48,1978.4-27,3956.79C1695.56,1464,1674.4-286.44,1665.71-2045.84l-6.63,558.23c1.32-413.89-19.78-825.38-51-995.5-8.08,61.38-15.07,143.42-20.39,239.12-10.15-18.38-20-62.89-28.62-129.7-10.64,142.13-19,309.64-24.33,490-.58-156-19-250-28.63-146.34-5.63-290.76-9.53-586.41-11.66-883.9l-38,1253.29-8.84-240.85,21.27,1647.91c15.39-54.81,29.9-145.56,42.49-265.76,25.22,139.53,16.22,716,42.73,814.43,11.86,44,24.11-43.35,34.09-132.35,36.87-328.76,69-735.53,94.38-1196.25.43,302.07.34,626.36-13.86,875s-48.28,348.78-63.88,112.66c-11.83-179.12-15-524.33-33.87-496.32Q1553,9.74,1535.14,561.59l-10.88-1524c-20.14,347.81-38.17,713.43-53.9,1093L1441.17-367.6c-25.53,133.38-48.86-227.44-60.83-530.81-17.59,85-39.89-18.69-48.23-224.25-7.24,189.45-26.93,294.33-43.39,231.16s-27.53-286.06-24.39-491.29c-12,381.14-.47,851.75,26.85,1091.42,65.48-1,128.61-574.07,191.84-368.62,34,110.39,60.86,435.05,78.51,802.75,6.75,140.46,13.42,300.25,25.9,360.31,41.22,198.25,65.25-860.55,108.41-736.79,20.71,418.09,37.38,865.38,49.56,1329.89C1772,991.92,1786.33,656.4,1802,376.82s42.53-551.8,68.83-436.68c14.19,62.1,24,224.43,37.9,295,14.77,74.92,31.66,35.57,47.5,64.46S1989.3,490,1985,676.42c-5.17-591.5-16.14-1175.57-32.61-1736.08-10-339.68-28.11-724.61-57.93-733.68-8.38-2.55-17,26.74-25-3.46-14.57-55-22.61-290.23-37.88-290.21-13.1,0-21,173.28-32.27,253.61-14.2,101-32.86,46.67-48,126.41-13.36,70.53-21.53,231.22-31.3,362-29.57,395.86-75.56,531.22-118.65,646.8-10.13,27.18-20.75,54.29-30.76,21.39-22.6-74.23-35.55-429.26-59-430.81-14.75-1-26.73,144.74-41,187.79-33.62,101.1-58.45-356.75-87.74-580.35-18.7-142.66-41.12-192.43-61.38-299.45s-40-307.29-41.37-573.9c-61.67,261-57.32,1404.35-107.87,1904.79-3.93-245.47-8.16-499.39-20.19-702.8s-34.21-342-53.74-259.09c-33.42,141.91-35.1,767.73-66.61,963.47l-11.19-324.67-15.89,354c10.64-562.78,6.27-1165.55-12.32-1697.37-4.68,236.29-11.93,465.11-21.52,678.73-3.94-310.18-11.28-614-21.78-901.07-4-110.5-9.95-231.76-19.82-250.82-11.53-22.27-20.88,105.72-27.71,220.11L860-1693.21l-24.24-128.15c-9.29,385.64-26.48,743.13-49.6,1031.73l-10.49,192-5.46-682.91c-3.53,210.51-3.06,503.19,14.23,553.21,5.58,16.17,11.5-1.78,17.16,9.54,21.35,42.65,29.37,459.45,50.95,440.84,39.72-408.24,90-844.18,139.37-642.36,9.8,40,19,104.62,29.27,122.12,28.4,48.53,51.06-262.33,76.49-422.49,25.12-158.23,56.3-167.95,82.07-25.56,10.91,262.18,17.58,550,19.51,842.55,4.21-483.24-.43-977.46-13.5-1437-32.3,660.09-71,1274.61-115,1827.09-44.43-190.49-78.11-649.82-122.31-847.74-59-264-131.62,34.19-165.07,677.53L722.73-1642.22,697.15-1346,671.8-1934.13c-64.61,103.81-109.2,809.2-146.3,1456.76" transform="translate(140.99 2913.97)"/><path id="Path_19" data-name="Path 19" class="cls-3" d="M-138.28-540.29c-1.35-573.25,3.81-1148.7,15.31-1705.1,3.27,456.92,4.5,916,3.66,1374.51q20.58-886.29,48-1746.73l11.17,1571.35,15.23-940.9,8.43,801.84C-23.78-1391.18-14-1624.1-7.88-1870.16c3.8,401.69,12.29,796.85,25.16,1170.08,32.41-533,58.81-1119.33,78.24-1737.67,6,453.1,6.69,916.65,1.92,1372L86.69-2092.64l-41.4,728c-3.38,59.53-7.33,123.77-13.18,138.54C17-1187.95,9-1493.57-6.44-1492.29c-7.25,178.56-12.42,369.38-15.32,565.13-2.32-340.68-7.84-678.16-16.42-1003.9l-40.47,450.47-9-266.25L-52.15-620.45C10.41-830.27,21.38-1901.71,75.71-2330.87c8.66,179.73,25.84,294.4,43,287.27l11.1,720.73L198-2314.16l19.43,380.55c10.91-174.66,19.53-370.12,25.44-576.91L232.09-444.19c20.45-576.74,45.33-1130.46,74.24-1651.66.43,327.32,2.82,654.27,7.12,977.48,7.23-291,17.72-570.13,31.11-827.31l10.92,207.28c10.52-1.95,20.83-67.95,26.87-172.08,13.66,189.67,22.79,426.42,26,674.77.44-48.94,3.3-101.88,7.37-100.24s5.59,90.86,1.54,96.59c-4.39,170.6-5.77,352.45-4,529.87,6.81-622.07,29.67-1217.09,64.6-1681.34,45.9,260.45,53.08,999.12,53.91,1611.69,26.89-394.47,48.29-843.27,63.07-1322.08,7.13,117.95,11.68,258.29,13.1,403.28,3.1-71,3.28-159.53.48-232.31L573.75-363.33c11.17-795.67,31.12-1573.3,59.14-2305.92,36.16,273.62,61.88,741.17,68.73,1250.17l-8.64-244c2.25,68.17-8.26,102-12.1,45.12s-3.21-138.71-4.61-210.07-7.89-143.89-12.91-102.62c-23.93,389.19-40.11,847.49-46.8,1325.58-27.84-51-38.9-642.54-66-551.42-18.88,63.39-22.71,429.76-42,467.32-28-410.69-84.25-479.79-118.55-145.67C372.11-661.14,356.37-382.51,333.56-407c-9.35-265.22-23.29-506.62-40.67-704-22.55-17.28-36.29,422.3-58.15,353.74-9-28.16-14.48-135.13-22-200.21-13.24-114-33.77-75.93-43.57,80.77-4.75-158.08-15.46-288.43-28.5-347.2L98.49-709,78-1182.65c-27.23,193-50.42,468.39-66.87,793.93L-.67-673.86C-2.85-474.13,3.49-263.62,15.77-127.38Q93.86-787.59,170.84-1466.61c42.75,254.79,34.52,1166.84,78.81,1379.75,26.54-495.19,60.14-934.92,98.88-1294,13.19,345,22.24,713,26.8,1089,10.44,54.36,21.53-50.83,29.57-147.9Q436.73-823.87,468.57-1208C513.94-916.24,529-102.48,578.87,46.63c36.44,108.92,72.44-211.56,94.79-576,6.73-109.56,13.72-233,24.61-269,21-69.5,42.65,227.75,62.83,128.58L792-1778.81l42,1211.1c41.92-422,88.35-778.38,137.78-1057.57,24.59,636.36,34.63,1353.74,28.73,2052.43,9.4-568.91,32.72-1103.18,66.26-1518.21,6.34-78.36,13.78-156.76,22.83-164.39,9.6-8.1,18.19,65.09,27.2,105.7,34.61,155.85,70.37-172.71,96.24-491.23s57.32-681.2,93.7-604.38c10.68,371.3,23.61,733.11,38.68,1081.51.2-141.36,19.06-88.5,27.21,12.88s25.59,183.22,28.12,45.21c-16.4,320.07-37.89,601.92-63,825.63q-41-750.94-87.44-1455.61c-10.39,416-14.49,854.79-12,1288.32" transform="translate(140.99 2913.97)"/><path id="Path_20" data-name="Path 20" class="cls-3" d="M-138.25,1820l1-1100.53c8.18-99.49,19.87,56,29.47,134.85C-91.2,990.23-67,860.52-57,651.43S-47,186.57-47.44-55.24l34.77,1245.42C25.15,263.91,45.21-767.49,45.47-1800.36,29.08-986.45,19.28-153.19,16.25,683.68L52.39-1014C62.83-243.08,68.09,538.09,68.1,1319.27,95.86,889.64,117,397.36,130-124.53l25.44,1721.16c16-335.06,34.1-656,54-959.34l31.81,563.55,61.62-731.47c.68,249.5,1.52,507.47,10.53,732.09s28.54,407.79,49,373.7c47.1-78.47,49.91-1086.84,97-1166.53-.14,187.5,7.42,373.57,19.79,486.9L531.55-133.64c20,629.46,16.14,1363.76-10.4,1957.07L394.88,719C369,492.6,328.62,286.31,309.55,596.2c-4.59,74.47-6.94,170.55-12.94,228.48s-17.86,32.25-17.67-60.53q-18.26,546.21-36.52,1092.43l-96.37-1712L81.7,1688.71C66.59,1220.92,45.37,782.06,19.05,393.41c-8.38,261-20.23,505.65-35,721.69-18.58-554.79-40.55-1093-65.66-1609C-92.13-315.93-97.87-97-97.73,121.94-97.35,30.11-109.35-.63-114.8,63.6s-5.79,166.88-5.78,258.83l.09,1779.65,8.91-395.23c11.36,426.94,47.61,737.3,84.71,725.27,54-17.52,101.67-634,154.42-492.32,36,96.76,61.29,527.1,97.51,612.78,44.66,105.63,83.59-335.65,120-666.25s95.26-536,121.86-89.88c40.9-532.54,78.39-1103.4,112-1705.76l21.91,395.54c11.94-314.06,27.72-606.73,46.67-865.54l9.83,902.13c1.32-121,12.84-209.17,22.46-171.9,8.89,488.31,23.39,961.65,43,1402.18,30.19-924.75,52-1889.56,64.8-2871.48C786.87-491.53,771,132,742.41,655L691.26,148.4c-13.33,497-20.73,1017.14-21.91,1539.38,1.53-318.57-34.58-497.57-58.57-364.17S573.5,1765.09,562,2052l.49-714.23c28-8,48.74-389.14,76.68-371.81,13.37,8.29,26.32,110,39.32,72.2C689.57,1005.87,697,882,703.32,767.06L797.61-936.48q11.21,636,22.39,1272.09L846.48,31.82c-6.76,234.74,6.77,489.35,23.52,633.53s37,222.73,53.31,373.5c20.91,192.81,35.3,500.52,60.13,605.44,65.35,276.17,121-1057.11,187.17-809.61l31,852.76c17.95-85.48,33.53-241.81,43.78-439.28,41.45,266.28,74.19,724.58,89.93,1258.93,20-228,34.47-525.68,41.23-847.62l20.68,557.08c39.57,136.62,85.83-186.87,95.75-669.54l43.16,451.89c13.17-139.28,23.56-316.67,30-513.07-50.85-373.56-106.39-653.86-164.13-828.34.93,290,20.15,556.51,43.8,607.28s49.28-119.43,58.42-387.84l80.43,1852.9c45.9-389.4,97.91-669.18,152-846.52,57.13-187.21,130.15-191.16,162,411.74l76.68-1001.21c9.7-126.76,34.19-176.72,31.42-7.29l-11-458.57-8.82,414.66q3.36-1651.78-5.14-3302.95c-20.22,634.31-35.67,1290.79-46.1,1958.73-23.56-247-40-591.65-45.79-961.84-11.61,394.16-20.42,800.35-26.31,1212.65-26.49-61.58-43.92,321.08-50.75,636.43-13.4,618.15-21.21,1254-23.24,1892.52-43.42,289.49-94.09-202.79-122.49-694.08S1606.55,893,1557,893.42c-20.64.18-40.08,112.06-60.42,154.95s-45.2-13.25-54.15-238.1c-3.75-94.27-4.23-208.32-9.75-288.87C1418,307.75,1391,528,1372,684.1,1324.72,1073,1253.45,946,1217.45,408.77c-6.65-99.31-15.13-223.87-25.33-190-5.65,18.76-9.37,82.23-12.6,141.35l-39.47,721.32c-44.28-83.72-91.67,218-111,706.69-24.78-564.57-42.4-1175-52-1803.44-6.46,700-67.59,1096.67-120.33,1396.4s-112.4,767.12-111,1471.2" transform="translate(140.99 2913.97)"/><path id="Path_21" data-name="Path 21" class="cls-3" d="M1939,4157.32V869.66L1938.22,1904c-1.37-244.36-8.29-483.85-19.83-685.27C1848.87,2509.4,1872,4249,1818.58,5647.13l-76.14-1977-9.39,603.49c3.19-692.8,2.36-1388.31-2.49-2079.71-1.55-221.25-12.24-517.78-29.73-449.58-9,35-13.27,155.52-16.47,262.8q-26.79,896.79-53.57,1793.57Q1594.33,2410,1549,1056.29L1510.27,2937l-41.44-792.89c-7-133.73-18.74-287.18-30.72-223.13-6.58,35.25-9.78,124.17-12.34,205.51q-17.18,546.09-31.62,1104.09l-45.33-1099.4L1313.54,3080c-18.21-291.28-62.17-238-75.22,91.23-6.35-301.39-15.59-593.86-27.48-869.63-15.53,445.47-25.62,1088.58,10.26,1302.24,10.36,61.72,22.47,66.33,33.15,119.71,16.29,81.42,28.16,270.38,45.18,325.66,51.16,166.14,75.9-908.74,128.6-973.76,10.57,548.68,57,961.49,103.46,920.58l35.91-726.16c15.06,204.37,24.69,466.18,27.16,738.14,22.77-1032.45,38.68-2087,47.53-3150.1,1.53-184,.72-415.7-13.2-492.45-51.37,743-79.24,1891.85-157.69,2088.1-55.44,138.65-111.09-300.12-167.43-234-60.44,71-105.63,690.84-161.6,975.34-26.63-106.35-26.52-678.32-54.28-727.05-16.65-29.22-29.87,164.19-45.86,227.33-12.12,47.85-25.39,18.2-38,43-42.45,83.71-59.45,698-68,1207.56-9.34-1027.87-11.23-2065.6-5.65-3097.45-4.25,475.19-13,944.49-26,1395.83L887.29,1747c-17.55,469.23-32.3,953.79-44.09,1448.64-27.29-76.19-51.72-292-66-583.22-15.49,401-27.35,822.53-35.28,1254.56-24.9-399.49-43.14-859.27-53.32-1344-1.72,296.78-8.13,589.5-18.78,857.73-12.58-298.11-28.65-574.71-47.58-819L593,3196.63c-4.75-241.43-17.19-459.51-34.18-599-3.19,242-12.5,471.63-26.37,650.44-42.05-375.77-106.34-326.23-144.1,111.06-17.26-183.28-30.63-419.72-38.47-680.7-12.3,760.33-32.75,1501.33-60.69,2198.61-59.54-515.81-94.8-1415.42-90.12-2298.9L151.31,3153c-14.81-199.3-32.94-362.3-53-476.28l-41.7,474.91c-8-580.86-29.61-1133.43-61.7-1576.54-27.88,667.16-51.65,1359.35-71.06,2069-9.64,71.86-24.23,6.91-27.7-123.37l-3.5,663.85c17.27-236,38.82-493.42,64.75-459.65,10.41,13.56,19.93,74.28,29.92,112.25C18.12,3954.26,51.7,3850.08,81.39,3697c93.94-484.43,167.68-1437.55,262.74-1888.63,12.65-60,26.61-111.13,39.65-64.48,28.89,103.44,32.91,565.39,46.79,888.66,21.38,498,70.53,695.33,113.54,906.35S633.84,4116.64,636,4677.05q78.76-835,150.24-1763.68c76,492.69,131.44,1426.46,145.61,2455,7.84,568.58,9.59,1273.64,52.26,1531.5q87.81-1070,178.9-2100l21.37,429.29c22.18,4.54,39.83-212.52,54.53-413.09q60.67-827.19,121.34-1654.37c13.31,458.94,64.76,540.48,104.06,435.38s80.35-314.53,118.16-147.66c32.2,142.14,52.71,525.08,65.65,908.72,16.9-199.59,44,77.17,51.86,346.57s15.33,618.07,38.67,662.87c9.08,17.44,18.19-21.43,26.83-59.68l93.87-415.71c4.1-452.44-3.17-919-20.6-1322.45l-62.1,973.76c-101.68-425.35-208.46-672.31-315.95-730.71-38.26-20.79-76.8-18.09-114.49-100.06-62-134.94-120.47-503.93-165-1042.52-31.22-377.2-59.25-860.3-102.38-974.12-69.27,1346-161.17,2521.17-268.46,3433.07-4-268.27-31-399.07-53.38-360.39s-42,191.06-63.28,283.08c-71.51,309.93-155.33-78.67-224.9,290-13.2,69.93-27,168.3-41,129.79-15.15-41.52-24.2-224.37-31.48-390.23q-26.46-602.91-52.93-1205.82l-35.75,425c-8.2-231.93-23.08-428.44-41.47-547.68-56.4,408.43-104.18,989.09-137.65,1672.9L96.29,4377c-21.16,761.65-42,1616.24-13.52,2342.21C117.42,5988.71,194.54,5595.1,262,5804.31c54.41,168.67,111.33,675.7,160.53,348,19.43-129.39,32.05-365.65,43.86-592.46,22.32-428.41,45-867.56,54.23-1361.35s2.54-1061.37-27.45-1414.89c10.59,1203,56.85,2355.67,128.47,3201L870.51,3356.17c14.87,375.32,41.35,681.47,73,844.58l90-712.21c12,236,25.06,484.69,45.82,601.65s51,26.74,56.75-241.23c2.25,455.72,15.32,902.9,37.26,1274.57l110-947.45-3.13,2043.18c123.36-348.52,234.23-1302.61,301.83-2597.33,15.86,164.11,15.76,502.91-.19,665.72-39.33,138.77-51.77-821.15-92.73-831.18-17.84-4.36-31.42,182.07-47.21,282.42-31.12,197.87-70.83,55.09-103.05,225.54-20.42,108-35.18,328.18-54,472.68-39.59,304.05-90.95,235.76-136.58,104.51-77.8-223.79-152.59-598.4-231.57-750.49-206.12-397-410.43,753.32-618.86,887.64C222.93,4727.05,140,4601.2,88.92,3937.61c-51.3,244.23-98.42,616-137.54,1085.32-3.24-106.2,12.35-125.51,20.68-73.83,42.43,263.29,82.6,579.69,119.67,942.49,27.78-805.14,68.42-1545.17,119-2167.37,4.77,794,19,1579.54,42.18,2324.83,26.07-370.7,56.19-699.91,89.31-976.48l52.54,1446.3Q438,4778.26,466.6,2991.39c7.2,814.14,9.39,1634.73,6.56,2452.79.28-408.72-3.13-817.79-10.15-1217.61L450.78,5924.09c4.45-1045,15-2086.21,31.48-3113.43l43.51,4313.27c13.25-189,21.51-428.29,23.32-675" transform="translate(140.99 2913.97)"/><path id="Path_22" data-name="Path 22" class="cls-3" d="M1459.79,7076.55c3.22-471.19-5.38-953.25-24.39-1366.51l-30.14,1164.68c-2.54,97.82-6.45,211.38-14.77,231.21-5.27,12.54-10.5-18.63-15.25-48.86q-36.77-233.92-73.54-467.85c-30.18,989.33-46.1,2041.93-46.82,3096.3-36.8-1060.89-87.17-2052.83-148.78-2929.73-8-113.62-16.74-230.15-28.48-275.8s-27.11,10.92-30.69,153.53c-14-441.33-44.92-799.44-82-950L922.78,7623.91,856.06,5423c-14.3,155.42-23.08,382.83-23.73,615.15l-45.66-666.26c-5.09-74.34-10.77-153.13-18.57-174.13-15.33-41.34-27.36,154.1-34.19,325.08-27.6,690.11-45.34,1437.51-52.23,2199.42q-18.73-755.49-37.49-1511c-9.52,93.27-14.2,253.19-11.65,398.05,25.29-277.33,25.23-869.94,58.28-974.05,28.29-89.13,50.34,274.34,73.14,495.7,56.69,550.58,139.87,257.72,207.71-59.18l221.55-1035c31.64-147.8,66.52-297.07,98.64-165.54,48.42,198.22,69,942.67,116.47,1172.27,65,314.55,127.28-483.51,193.56-756.86q13.9,336.32,27.83,672.61c28.75-26.83,56.2-214.76,72.88-499,17.21,261.15,27.85,584.64,30.18,917.29,22.17-236.39,41-519,55.26-831.51,12.29,373.81,20.38,767.7,24,1167.54,30.48-828.57,56.51-1681.06,77.86-2550.31l10.45,714.37c1.72-154.91-3.51-318.59-13.41-419.19-12,955.92-29,1902.76-50.73,2833.17-12.64-399.28-31.93-767.63-56.37-1076.59-45.94,527.8-79.08,1216.14-94.36,1959.46-23.77-413.75-50-806.6-78.5-1174.42-18.14,239.09-33.64,507.6-45.93,796.07l-68.63-796.68C1434,7678,1388.53,8518.72,1360.61,9437.87c-32.37-220.3-57.29-595.17-68.11-1024.5q-26.36,475.32-49,978.8c-54.87-525.94-58.5-1766.89-127.41-1917.81-37.61-82.38-72.17,242.71-100.94,546.84q-44-540.87-88.06-1081.74c-29.05,509.17-88.17,731.89-136,512.48-42.39-194.34-88.94-683.85-125.28-356.35-7.74,69.78-13.32,169.22-20.75,243.75-34.61,347-89.18,23.66-131,224.22-34.29,164.61-58.12,671.79-94.87,631.19-26.93-29.76-49.81-363.66-76.06-284.88-25.42,76.29-47.55,515.9-68.55,326.8-6.4-57.63-9-156.94-11.34-249-10-387.94-27.9-816.06-60.88-895.37-47.1-113.3-99.94,553-137.67,193.85-11.92-113.38-19.8-319.24-34.93-331.8-12.36-10.26-22.11,119-29.78,236.59q-32.56,498.61-65.14,997.23C-78.68,8099.9-83.75,7864-75.49,7707.3L-64,8642c1,79.09,3.35,176.34,9.9,188.21s6.68-158.37,1-117.75q5.37,900,10.73,1800.1C-16.19,8809.85,19,7127.2,62.76,5478.05c-5.8,1135.47,15.08,2289,59.56,3291.68,18.16-398.41,39.79-773.77,64.41-1117.93l46.21,590.78c12.59-209.47,30.24-373.95,50.21-467.84,23.24,622.39,41.34,1272.74,54,1938.31l41.77-1356.91c5.26,160.22,25,111.7,37.48,27.4,59.65-404.2,110.69-992.29,146.93-1693.07,9.58-185.33,18.55-383.89,33-514.75,28.57-258.13,70.21-183.19,100.72-406.49q15.9,569.61,31.79,1139.22c16-11.83,31.54-107.62,41.72-257.87C782.89,7355.84,828.84,7960,886,8168l37.55-728c5.45,374.5,24.79,716.2,51.7,913.26q47.44-878.73,100.36-1711.94c11.26,673.87,75,1038.17,131.91,1039.45,74.67,1.67,148.36-464.2,190.82-1206.32,18.22,751.19,93.94,1006.52,157.77,1140.34l106.54-1444c7,254,17.58,493.58,31.15,705.2l72.82-510.3c24.41,85,35.73,419.61,41.73,717.95,20.53,1019.6,18,2105.54-7.24,3109.58-23-455.78-58.34-819.21-99.24-1021.2-21.33,190.88-39.52,432.72-53.21,707.43-43.66-486.3-22.34-1523.95-72.49-1908.08-10.93-83.75-23.91-121.12-35-200.89-32.48-232.66-41-744.54-46.33-1196.18-56,268.63-97.68,927.54-104.52,1650.32" transform="translate(140.99 2913.97)"/><path id="Path_23" data-name="Path 23" class="cls-3" d="M1530.39,9020.47l2.46-1099.87c33.79,552.43,72.78,1058.27,116,1504.53,20.39-571.47,31.18-1192.66,31.53-1815l-11.9,2708.26.6-2294.62c9.51,440.66,22,871.89,37.34,1287.92L1745.5,8325c17.28,324.11,28.13,697.86,31.4,1081.36,9.76-64.69,17.24-177.94,20.29-307.32,13.62,13.73,16.6,239.7,26.19,357.46,11.28,138.69,31.65,101.59,43.68-27.67s17.72-321.95,22.66-507c16-600.66,29.12-1212.94,39.11-1832.47.91,222.12-1.14,446-6,660.34l-22.44-78.76q-75.58,2023.94-145.52,4077.73c-42-283.07-44-1097.71-87.43-1346.16-31.58-180.5-68.6,33.26-103.49,10.38-16.66-10.94-32.72-76.51-48.33-148.1-62.25-285.64-121.17-677.37-174.47-1160" transform="translate(140.99 2913.97)"/><path id="Path_24" data-name="Path 24" class="cls-3" d="M985.85,7455.44l.72,636.37-3.63-911-73.6,3470.82c-26.69-294.81-38.46-732.14-50.25-1145.16Q835.33,8674.25,805.86,7868c-5.9-161.45-15.49-349-30.06-336.3l-27,806.07L737,7878.62c-8.72,402.32-14.7,813.31-17.85,1227.46l-40.85-721c-2.89-51-6-104.25-10.61-131-15.27-88.55-28.47,158.28-33.26,354.61q-5.29-533.61-7.17-1071.09c-7.68,578-9.6,1167.19-5.71,1750.73" transform="translate(140.99 2913.97)"/><path id="Path_25" data-name="Path 25" class="cls-3" d="M583.68,9157.38c-8.85-954.58-23.66-1901.1-44.24-2828.91-19.48,396.16-31.11,848.25-33.64,1308C495.06,7465.79,472,7482.78,458,7614.4s-21.21,340.06-27.83,539l-52,1562.14q-26.64-917.25-53.3-1834.5c-7.2,431.69-17.3,856.29-30.17,1268.26-16.6-381.14-36.89-738.72-60.34-1063-31.12,639-54.13,1335.54-68,2057.81-3.53-962.73-12.78-1922.39-27.68-2869.12-3,336.89-8.49,670.53-16.39,995.64-11.64-367.4-26-722.13-42.9-1058.48Q43.07,8653.56,17.62,10130.72c-2.75-753.12-1.69-1508.28,3.18-2259.84,10.5,297.63,16.08,620.44,16.32,943.95" transform="translate(140.99 2913.97)"/><path id="Path_26" data-name="Path 26" class="cls-3" d="M435.77,9672V6983.52l5,1276.54.39-2258.89c0-199.91-3.84-459.39-20.19-490.73L323.13,9075.68c-17.49-341.27-20.19-786.75-7-1155.12,16.94,688.26,40.67,1352.11,70.51,1973.09,8.87,184.52,18.67,370.43,33.15,492.42,33.2,279.54,80.32,132.7,112.78-159.1s56.1-704.27,86.77-1023.14c9.57-99.54,21.48-194.82,33.88-166.26l18,945.79c19.69,162.5,43.67-112.57,56.55-355Q764,8946.9,800.22,8265.45l9.84,952.34C860.51,8148,891.21,6943,899.29,5715.62l15.26,2409.43" transform="translate(140.99 2913.97)"/><path id="Path_27" data-name="Path 27" class="cls-3" d="M1132.8,9740.8l.18-4288.32q-2.34,1482.86,2.52,2965.65c13.1-104.63,22.35-276.92,24.92-464l41.32,1842.69c8.76,58,16.47-95,18.54-212.94q8.63-490,17.26-979.91,14.74,1099.17,29.48,2198.33c4.51-733,4-1470.47-1.57-2202.41l24.24,773.85c3.21,102.51,10.61,227.91,18.81,181.23l21.81-706.48c19,774.63,30.44,1576.08,34.09,2382.72" transform="translate(140.99 2913.97)"/><path id="Path_28" data-name="Path 28" class="cls-3" d="M722.68,12071.84c-1.19-1300.92-2.51-2614.67-27.47-3880.21q-27,1768.75-57.12,3530.23l-68.91-1597.94c-40.46,471.1-55.47,1168.58-68.73,1828.39L444.79,9797c-4.16-160.76-10-343.38-23.29-395-22.27,822-40.73,1659-55.29,2505.79-8.68-568.87-11.08-1148.63-13.46-1726.39-9.46,430.15-15,872.85-16.51,1317.57" transform="translate(140.99 2913.97)"/><path id="Path_29" data-name="Path 29" class="cls-3" d="M241.34,13950.79v-3011.1l.35-830.35c37,374.17,55.44,955.53,89.48,1368.87,63.94,776.32,182.41,736.23,242.65-82.11l43.26,1162.18c4.45,119.33,10,251,20.31,290.51,17,65.07,31.4-157.83,39.78-348.36l65.28-1483.07q15.9,526.64,31.81,1053.28c21.66-171.59,38.94-422.89,48.91-711.69l25.66,412.56L911,10712.75c11.29,212.6,17.5,464.19,17.67,716.81" transform="translate(140.99 2913.97)"/><path id="Path_30" data-name="Path 30" class="cls-3" d="M1123.41,12894.66l-.18-4423q2.41,1689.64-2.65,3379.25c-24.24-460.72-51-901.93-80.12-1319.74-24.66,712-40.49,1468.5-46.81,2236.52.64-721-6.71-1442.94-21.78-2140.57L914.53,12351c-10.66-186.38-17.67-403-20.32-627.25-6.52,216.41-1.74,476.19,11.77,638.73,96.84-537.81,119.8-2092.88,197.94-2968.65l28,890.86c19.31-107.29,37.33-248.33,53.33-417.35,5.26,1051.57,5.64,2106.69,1.15,3158.78l63.86-1343.71c6,201.78,27.9,275.81,44.81,211.15s29.8-227.07,41.92-383.43l162.81-2100.22c5.37,552.76,4.8,1113.9-1.69,1664.91,8.65-483,24.11-948,45.52-1369,7.69,359.28,20.06,703.89,36.5,1017.37,17.59-32.59,34.61-109.32,49.66-223.91l43.67,479.08c14.44-206.05,32.53-374.51,52.71-490.68,22.63,426.65,36.6,919.94,40.33,1424.73" transform="translate(140.99 2913.97)"/><path id="Path_31" data-name="Path 31" class="cls-3" d="M23.2,12461l.34-1754.87c-5.91,273.93,14.58,574.85,38,575.62s43.71-276.67,42.36-559.27l53.69,1700.8c35.23-1008.79,58.67-2077.6,69.39-3164.84l31.1,2824.89c18-403.37,28.83-853.83,31.4-1311.28l18.24,5344.9c43-2730.66,62.6-5514.79,58.52-8293.9-33.07,904.2-48.83,1900-45.73,2887.87,15.42-499.95,43.83-940.08,80.21-1242.44,22.91,1019.89,50.66,2023.9,83.07,3005.45,6.57,199,15.32,419.86,32.28,482.23,26.74,98.33,48.83-255.18,61.55-556q39.69-939.36,79.39-1878.7,17.61,664.31,30.18,1346.08,36.69-757.32,73.4-1514.62c5,752.83,22,1493.79,49.76,2170.3,40.44-354,71.16-867.58,86.29-1442.74,5.72,121.48,15.48,214.24,26.6,252.75l91.86-3504.36q.14,2426.85,17.45,4847.63c28.33-1904.24,43.85-3836.26,46.37-5770.77l71.83,4091.25,23.31-193.8c11.36,275.43,41.34,374.24,66.16,305.23s45.66-265.74,65.61-457.1L1344,12679.36c4.28,227.85,10.73,488.19,28.6,577.3l46-480.59c14.66,96.52,27.18,240,35.93,411.67,10.81-719.57,27.09-1427.11,48.58-2110.78,7.35,239.07,16.68,469.24,27.8,686l17-664.68,37.79,503.29,39.23-613,49.1,1876.23q18.6-1031.73,45.59-2037.84c26.92,503.35,48.94,1044.85,65.48,1609.83,6.34-19.76-2.36-145.36-7.24-92.59s-2.91,148.33-.57,222.19q17.35,546.92,34.7,1093.84" transform="translate(140.99 2913.97)"/></g></svg>